<svg id="713149cb-c2a7-4fcb-be5b-f202c7ff9002" data-name="Layer 1" xmlns="http://www.w3.org/2000/svg" viewBox="0 0 20.64 20.62"><defs><style>.a2997093-e80e-4ba8-b731-3a967e619854{fill:#d2ac83;}</style></defs><title>bullet-01</title><path class="a2997093-e80e-4ba8-b731-3a967e619854" d="M20.64,10.84l-8.41-.15L20,13.75l-.42,1-7.69-3.39L18,17.19l-.78.78-5.82-6,3.35,7.66-1,.45L10.69,12.2l.17,8.41H9.76L10,12.2,6.89,20l-1-.45,3.37-7.66L3.41,18l-.77-.78L8.7,11.37,1,14.77l-.41-1L8.4,10.69,0,10.87V9.73l8.4.19L.59,6.86l.41-1L8.7,9.24,2.64,3.41l.77-.77,5.83,6L5.88,1l1-.44L10,8.4,9.76,0h1.1l-.17,8.4L13.75.57l1,.44L11.4,8.68l5.82-6,.78.77L11.94,9.24l7.69-3.39.42,1L12.23,9.92l8.41-.19Z"/></svg>