<svg id="01128658-03df-487b-bfc3-b02ca769b5f2" data-name="Layer 1" xmlns="http://www.w3.org/2000/svg" viewBox="0 0 105.86 35.29"><defs><style>.\31 e12e533-bdaf-47f3-9967-8a3b71cce6ec{fill:#231f20;}</style></defs><title>canon-feast</title><path class="1e12e533-bdaf-47f3-9967-8a3b71cce6ec" d="M56.89,26.54l.47,0a.45.45,0,0,1,.42.2c.17.21.35.41.53.61s.53.57.78.87.49.56.74.83l.83.93c.22.24.41.49.65.71s.33.37.5.55.37.37.54.58a.31.31,0,0,0,.09.07c.06,0,.11,0,.13-.05s0-.11.07-.14,0,0,0-.06,0-.15-.05-.22,0-.27,0-.41a.21.21,0,0,1,0-.1c0-.05.07-.09,0-.13s0-.06,0-.09a.86.86,0,0,0,0-.41.56.56,0,0,1,0-.2c0-.39,0-.78,0-1.17s0-1,0-1.51a.54.54,0,0,0-.36-.56,1.31,1.31,0,0,0-.29-.09.24.24,0,0,1-.17-.17,0,0,0,0,1,0-.06h.12a3.63,3.63,0,0,0,.61,0c.29,0,.59,0,.88,0a.47.47,0,0,1,.17,0,.07.07,0,0,1,.05.06.07.07,0,0,1,0,.09l-.11,0a.82.82,0,0,0-.33.16.85.85,0,0,0-.27.42.92.92,0,0,0-.09.38,3.28,3.28,0,0,0,0,.63.48.48,0,0,1,0,.12c0,.58,0,1.15,0,1.73,0,.39,0,.78,0,1.17s0,.71,0,1.06a6.74,6.74,0,0,1,0,.69.19.19,0,0,0,0,.08.81.81,0,0,1,0,.46s0,0,0,0-.12-.16-.18-.23-.07-.13,0-.19.05,0,0-.07-.05,0-.08,0l-.07,0s-.07,0-.11,0-.26-.31-.39-.47-.28-.27-.41-.42l-.4-.45a.09.09,0,0,1,0-.13c0-.06,0,0,0,0s-.1,0-.14-.06-.36-.41-.54-.6-.21-.2-.3-.32l-.09-.14a.51.51,0,0,0-.22-.23s-.06,0-.06-.05a.75.75,0,0,0-.25-.31c-.19-.18-.32-.4-.52-.56a.7.7,0,0,1-.1-.12s0-.06-.06-.08a6.69,6.69,0,0,1-.54-.58,1,1,0,0,1-.25-.35s0-.05-.07,0,0,0-.06,0a1.72,1.72,0,0,0-.31-.35s-.08-.09-.14-.07-.08.09-.08.15c0,.29,0,.59,0,.88s0,.59,0,.88c0,.46,0,.92,0,1.38,0,0,0,0,0,0s0,.29,0,.43,0,.32,0,.47a3.4,3.4,0,0,0,0,.46c0,.19.06.39.09.58a.4.4,0,0,0,.31.31,2.6,2.6,0,0,1,.4.21.06.06,0,0,1,0,.07.07.07,0,0,1-.06,0H58.1c-.37,0-.73,0-1.1,0-.16,0-.32,0-.48,0s-.15,0-.16-.08.08-.09.15-.1c.27,0,.38-.24.5-.44s.08-.26.15-.38a.11.11,0,0,0,0-.07,3.87,3.87,0,0,1,0-1,.11.11,0,0,0,0-.05,1.85,1.85,0,0,1,0-.74q0-.57,0-1.14c0-.4,0-.8,0-1.2s0-.72,0-1.08a.39.39,0,0,0-.09-.21,1.08,1.08,0,0,0-.45-.39.73.73,0,0,0-.18-.06l-.08,0c-.05,0-.13-.05-.12-.13s.09-.05.14-.05Zm.47,1.09c.06,0,0-.07,0-.11s0,0,0,0-.07,0-.07.1A0,0,0,0,0,57.36,27.64Zm-.07.29s0,0,0,0a0,0,0,0,0,0,0,0,0,0,0,0,.06,0Zm.13,5.5s0,0,0,0,0,0,0,0,0,0,0,0S57.44,33.43,57.42,33.42Zm2.1-3.88,0,0s0,0-.06,0l0,0A.06.06,0,0,0,59.52,29.55Zm-1.55,4v0s0,0,0,0a0,0,0,0,0,0,0Zm-.72-.38,0,0h0s0,0,0,0Zm.63-6.06s0,0,0,0h0l0,0ZM63,26.89l0,0,0,0,0,0Zm-2.21,3.29s0,0,0,0h0Zm.18,1h0Zm1.51.84h0Zm-6-5.3s0,0,0,0h0Z"/><path class="1e12e533-bdaf-47f3-9967-8a3b71cce6ec" d="M75.36,26.54l.47,0a.45.45,0,0,1,.42.2c.17.21.35.41.53.61s.53.57.78.87.49.56.74.83l.83.93c.22.24.41.49.65.71s.33.37.5.55.37.37.54.58a.31.31,0,0,0,.09.07c.06,0,.11,0,.13-.05s0-.11.07-.14,0,0,0-.06,0-.15-.05-.22,0-.27,0-.41a.21.21,0,0,1,0-.1c0-.05.07-.09,0-.13s0-.06,0-.09a.86.86,0,0,0,0-.41.56.56,0,0,1,0-.2c0-.39,0-.78,0-1.17s0-1,0-1.51a.54.54,0,0,0-.36-.56,1.31,1.31,0,0,0-.29-.09.24.24,0,0,1-.17-.17,0,0,0,0,1,0-.06h.12a3.63,3.63,0,0,0,.61,0c.29,0,.59,0,.88,0a.47.47,0,0,1,.17,0,.07.07,0,0,1,.05.06.07.07,0,0,1,0,.09l-.11,0a.82.82,0,0,0-.33.16.85.85,0,0,0-.27.42.92.92,0,0,0-.09.38,3.28,3.28,0,0,0,0,.63.48.48,0,0,1,0,.12c0,.58,0,1.15,0,1.73,0,.39,0,.78,0,1.17s0,.71,0,1.06a6.74,6.74,0,0,1,0,.69.19.19,0,0,0,0,.08.81.81,0,0,1,0,.46s0,0,0,0-.12-.16-.18-.23-.07-.13,0-.19.05,0,0-.07-.05,0-.08,0l-.07,0s-.07,0-.11,0-.26-.31-.39-.47-.28-.27-.41-.42l-.4-.45a.09.09,0,0,1,0-.13c0-.06,0,0,0,0s-.1,0-.14-.06-.36-.41-.54-.6-.21-.2-.3-.32l-.09-.14a.51.51,0,0,0-.22-.23s-.06,0-.06-.05a.75.75,0,0,0-.25-.31c-.19-.18-.32-.4-.52-.56a.7.7,0,0,1-.1-.12s0-.06-.06-.08a6.69,6.69,0,0,1-.54-.58,1,1,0,0,1-.25-.35s0-.05-.07,0,0,0-.06,0a1.72,1.72,0,0,0-.31-.35s-.08-.09-.14-.07-.08.09-.08.15c0,.29,0,.59,0,.88s0,.59,0,.88c0,.46,0,.92,0,1.38,0,0,0,0,0,0s0,.29,0,.43,0,.32,0,.47a3.4,3.4,0,0,0,0,.46c0,.19.06.39.09.58a.4.4,0,0,0,.31.31,2.6,2.6,0,0,1,.4.21.06.06,0,0,1,0,.07.07.07,0,0,1-.06,0h-.08c-.37,0-.73,0-1.1,0-.16,0-.32,0-.48,0s-.15,0-.16-.08.08-.09.15-.1c.27,0,.38-.24.5-.44s.08-.26.15-.38a.11.11,0,0,0,0-.07,3.87,3.87,0,0,1,0-1,.11.11,0,0,0,0-.05,1.85,1.85,0,0,1,0-.74q0-.57,0-1.14c0-.4,0-.8,0-1.2s0-.72,0-1.08a.39.39,0,0,0-.09-.21,1.08,1.08,0,0,0-.45-.39.73.73,0,0,0-.18-.06l-.08,0c-.05,0-.13-.05-.12-.13s.09-.05.14-.05Zm.47,1.09c.06,0,0-.07,0-.11s0,0,0,0-.07,0-.07.1A0,0,0,0,0,75.83,27.64Zm-.07.29s0,0,0,0a0,0,0,0,0,0,0,0,0,0,0,0,.06,0Zm.13,5.5s0,0,0,0,0,0,0,0,0,0,0,0S75.91,33.43,75.89,33.42ZM78,29.55l0,0s0,0-.06,0l0,0A.06.06,0,0,0,78,29.55Zm-1.55,4v0s0,0,0,0a0,0,0,0,0,0,0Zm-.72-.38,0,0h0s0,0,0,0Zm.63-6.06s0,0,0,0h0l0,0Zm5.08-.25,0,0,0,0,0,0Zm-2.21,3.29s0,0,0,0h0Zm.18,1h0ZM80.9,32h0Zm-6-5.3s0,0,0,0h0Z"/><path class="1e12e533-bdaf-47f3-9967-8a3b71cce6ec" d="M69.12,26.35a2.41,2.41,0,0,1,.6.07,5.68,5.68,0,0,1,1.38.49,1.14,1.14,0,0,1,.44.34.74.74,0,0,0,.13.13,2.17,2.17,0,0,1,.47.55.43.43,0,0,1,0,.19s.11,0,.15.09.21.31.17.51a0,0,0,0,0,0,0,1.25,1.25,0,0,1,.19.67,3.64,3.64,0,0,1,0,1.16,4.4,4.4,0,0,1-.18.7,2.58,2.58,0,0,1-.32.68,2.31,2.31,0,0,1-.66.74.34.34,0,0,0-.1.11,1.64,1.64,0,0,1-.27.26.17.17,0,0,1-.19,0s-.06,0-.09,0a1.17,1.17,0,0,1-.77.4h-.07a2.63,2.63,0,0,1-.9.11h-.24a.25.25,0,0,1-.13,0,.89.89,0,0,0-.37-.05,1.5,1.5,0,0,1-.49-.08,1.63,1.63,0,0,0-.32-.09.56.56,0,0,1-.32-.16c-.06-.06-.16-.07-.24-.12a2,2,0,0,1-.41-.35l-.24-.26a2.71,2.71,0,0,1-.56-.9.21.21,0,0,0,0-.06,1.41,1.41,0,0,1-.26-.79,4.29,4.29,0,0,1,0-1.18,6.12,6.12,0,0,1,.23-1,2.37,2.37,0,0,1,.5-.89c.08-.09.15-.18.23-.27a3.22,3.22,0,0,1,.94-.76,4,4,0,0,1,.61-.26c.1,0,.22,0,.31,0C68.64,26.34,68.92,26.42,69.12,26.35Zm1.27,6.85h0a3.38,3.38,0,0,1,.38-.33,4.35,4.35,0,0,0,.58-.68,1.91,1.91,0,0,0,.36-.83,4.9,4.9,0,0,0,.15-1.1c0-.39,0-.78-.06-1.17,0,0,0-.07,0-.08s-.07-.2-.1-.3a.81.81,0,0,0,0-.15c-.06-.13-.11-.27-.18-.4a2.14,2.14,0,0,0-.23-.41c-.17-.19-.34-.39-.52-.58a1.51,1.51,0,0,0-.24-.25c-.07,0-.14,0-.2-.07s-.39-.11-.56-.23a4,4,0,0,1-.6,0,2.63,2.63,0,0,0-.93.12l0,0s0,0,0,0h.07l-.08,0a1.91,1.91,0,0,0-.53.25c-.17.16-.41.26-.48.52,0,0,0,0-.05.07a4.76,4.76,0,0,0-.42.74,2.22,2.22,0,0,0-.13.47,2.2,2.2,0,0,0-.12.58,5.76,5.76,0,0,1,0,.71,2.7,2.7,0,0,0,0,.41.94.94,0,0,0,0,.3,6.09,6.09,0,0,1,.19.77,2,2,0,0,0,.25.55,2,2,0,0,0,.26.35c.05,0,.09.1,0,.13h0s0,0,0,0,0,0,.05,0a0,0,0,0,0,.05,0c0-.08.08,0,.11,0a1.23,1.23,0,0,0,.38.35,1.75,1.75,0,0,0,.77.35l.07,0a4,4,0,0,0,1,.09h0c.23-.05.45-.1.68-.16A2,2,0,0,1,70.39,33.2ZM71.66,28s.06,0,0,0l0,0s0,0,0,0Zm-1.44-1.35s0,0,0,0a0,0,0,0,0,0,0,0,0,0,0,0,.05,0S70.23,26.62,70.22,26.62Zm2,2.38s0,0,0,0,0,0,0,0,0,0,0,0S72.23,29,72.21,29Zm-.44,3.37a0,0,0,0,0,0,0h0s0,0,0,0Zm.58-3.72,0,0h0l0,0Zm-.78-.53h0Zm.13.1h0ZM72.42,31s0,0,0,0h0Zm-1.93,2.29h0Zm-2.6.1s0,0,0,0h0Z"/><path class="1e12e533-bdaf-47f3-9967-8a3b71cce6ec" d="M47.88,33.57a.6.6,0,0,1-.44-.09c-.09,0-.1,0-.13,0s0,.07-.06.07a3,3,0,0,1-.92,0s-.1,0-.09,0a.15.15,0,0,1,.06-.13l.08,0a2.22,2.22,0,0,0,.81-.37,1.39,1.39,0,0,0,.41-.47c.09-.16.17-.33.26-.5s0-.06.08,0,.11,0,.16-.07,0-.07,0-.09-.08-.16,0-.24c.16-.32.31-.65.49-1,.05-.09.08-.19.13-.27.17-.29.29-.6.46-.89.07-.11.1-.24.16-.35s0-.1.09-.06.11.13.07.16-.06.06,0,.11,0,.07,0,.09-.15.28-.23.41a1,1,0,0,0-.16.33c0,.2,0,.22.18.23h2.53c.12,0,.15-.05.1-.17a3.64,3.64,0,0,0-.32-.69s0-.05,0-.07-.11-.22-.16-.33-.2-.36-.26-.55a.54.54,0,0,0-.08-.17.33.33,0,0,1-.09-.19.14.14,0,0,0-.05-.08c-.08-.08-.16-.16-.1-.29s0,0,0,0-.14-.1-.21-.16h0a.1.1,0,0,0-.16,0,.52.52,0,0,0-.11.19,5.52,5.52,0,0,1-.35.68c-.13,0-.11.12-.11.22a.57.57,0,0,1-.12.26.1.1,0,0,1-.14,0,.11.11,0,0,1-.06-.15,1.17,1.17,0,0,1,.17-.31c.09-.14.12-.3.21-.44s.21-.37.3-.57.2-.39.28-.6.2-.33.25-.51.06-.06.11,0a.33.33,0,0,1,.12.12c.18.38.35.77.55,1.14.12.22.2.46.32.67s.28.55.42.83c.23.47.49.94.74,1.4s.59,1.17.9,1.74c.1.19.19.39.3.59a.8.8,0,0,0,.45.36l.22.08s.08,0,.07.1-.05.08-.11.08h-.47a8.21,8.21,0,0,0-.84,0h-.07c-.09,0-.17-.12-.28,0s-.18,0-.28,0-.09,0-.13,0-.08,0-.06-.09a.19.19,0,0,1,.08-.09,1.26,1.26,0,0,0,.26-.24.44.44,0,0,0,.07-.46.91.91,0,0,1-.07-.26.24.24,0,0,0,0-.11,1.76,1.76,0,0,1-.15-.3,4.81,4.81,0,0,1-.35-.79.25.25,0,0,0-.1-.13.25.25,0,0,1-.1-.19c0-.11-.1-.17-.18-.23s-.16-.1-.26,0a.1.1,0,0,1-.08,0,2.82,2.82,0,0,0-.62,0H49.34a3.11,3.11,0,0,0-.44,0,.17.17,0,0,0-.16.13.2.2,0,0,1-.09.12c-.1.06-.08.21-.19.26s0,.05,0,.08,0,.07,0,.07-.08.1-.09.17a1,1,0,0,1-.13.33c-.1.16-.14.36-.29.49s-.17.38-.16.6a.49.49,0,0,0,.44.45l.2,0a.13.13,0,0,1,.1,0s0,0,0,.06h0a.2.2,0,0,0-.19,0,.35.35,0,0,1-.2,0,.52.52,0,0,0-.2,0s0,0,0,0Zm3.77-4.19s0-.09,0-.09,0,.06,0,.09v0s0,.06,0,.09h0s0-.06,0-.09S51.65,29.4,51.65,29.38Zm2.08,4.06c0-.06,0-.05-.08-.07s-.06,0-.06,0a.07.07,0,0,0,.06.09A.07.07,0,0,0,53.73,33.44Zm-2.26-5.11a0,0,0,0,0,0,0,.06.06,0,0,0,.07-.05s0,0,0,0A.06.06,0,0,0,51.47,28.34Zm-4,5s0,0,0,0a0,0,0,0,0,0,0,0,0,0,0,0,0,0S47.47,33.32,47.45,33.31Zm5.62-.92s0,0,0,0a0,0,0,0,0,0,0,0,0,0,0,0,0,0A0,0,0,0,0,53.07,32.39Zm-6,1a.06.06,0,0,0-.05.05s0,0,0,0,0,0,0-.06A0,0,0,0,0,47.1,33.37Zm.56-.19s0,0,0,0,0,0,0,.06a0,0,0,0,0,0,0S47.66,33.21,47.67,33.17ZM51.46,29a0,0,0,0,0,0,0,0,0,0,0,0,0,0,0,0,0,0,0,0,0A0,0,0,0,0,51.46,29Zm1.42,2.5s0,0,0,0l0,0a0,0,0,0,0,0,0A0,0,0,0,0,52.88,31.51Zm-5.2,2,0,0,0,0,0,0Zm5-1.9,0,0h0s0,0,0,0S52.66,31.55,52.67,31.56Zm-3.74-1.21h0s0,0,0,0h0S48.92,30.36,48.92,30.35ZM50.81,28s0,0,0,0h0Zm1.29,1.64h0Zm-2.89.08h0Zm4.32,2.78h0Zm-.23-.29h0Zm-.94-2.13s0,0,0,0h0Zm-1.73-3.21h0Z"/><path class="1e12e533-bdaf-47f3-9967-8a3b71cce6ec" d="M42.89,26.44a6.44,6.44,0,0,1,.68.15.39.39,0,0,0,.4-.1c.06-.07.16,0,.2.06s.14.35.21.53a3.24,3.24,0,0,0,.27.56l.08.15a0,0,0,0,1,0,.06.06.06,0,0,1-.06,0,.1.1,0,0,1-.05-.06c0-.11-.14-.18-.16-.29s0-.05-.06,0a.09.09,0,0,1-.13,0c-.05,0-.12-.1-.1-.16s0-.1-.09-.11H44s-.07,0-.06-.07,0-.12-.12-.11-.11,0-.09-.08,0-.06-.08-.06a1.87,1.87,0,0,1-.61-.17s-.06,0-.06,0c0-.22-.21-.12-.3-.09a.44.44,0,0,1-.37,0,.57.57,0,0,0-.32,0,5.07,5.07,0,0,1-.57,0,.43.43,0,0,0-.24.06.25.25,0,0,1-.27,0c-.06,0-.09,0-.1.06a.15.15,0,0,1-.11.12.69.69,0,0,0-.31.2h0a.09.09,0,0,0-.11-.06h-.13S40,27,40,27s0,.06.05.08.06.05,0,.09-.06,0-.09,0a0,0,0,0,0-.06,0s0,.05,0,.08,0,.11,0,.16a3.83,3.83,0,0,0-.52.93c0,.08,0,.16-.07.24a4.22,4.22,0,0,0-.22,1.45,3.71,3.71,0,0,0,.18,1,4.69,4.69,0,0,0,.33.74h0c.17.14.25.35.43.47s.16.11.17.22h0s0,0,0,0h0a0,0,0,0,0,0,0l0,0a1.1,1.1,0,0,1,.36.25,2.94,2.94,0,0,0,.69.38l.12,0h.12a2.47,2.47,0,0,0,1,.07,2.33,2.33,0,0,0,.27,0,4.47,4.47,0,0,0,.92-.26,3,3,0,0,0,.52-.28.18.18,0,0,1,.22,0c.05,0,.07,0,.05,0s0-.18.11-.25a8,8,0,0,0,.62-.6s0-.09.07-.13.05-.06.1,0,.08.06,0,.11-.13.2-.19.3-.07,0-.11,0-.06,0-.07,0,0,0,0,.05,0,.08,0,.12l-.15.16a3.72,3.72,0,0,1-1,.86.52.52,0,0,1-.29.07h0a.23.23,0,0,1-.2.1h0c-.14.16-.35.08-.52.15a.88.88,0,0,1-.43,0h0s0,0,0,0h0a.73.73,0,0,1-.53,0,.19.19,0,0,0-.16,0l-.1,0a1.46,1.46,0,0,1-.63-.12c-.07,0-.16,0-.24-.05s-.07,0-.09-.07,0-.06-.05-.06,0,0,0,.06,0,0-.06,0l-.3-.12a1.29,1.29,0,0,0-.31-.13.15.15,0,0,1-.14-.15c0-.06,0-.07-.09,0s-.16-.05-.23-.08-.15-.06-.14-.17,0,0-.05-.06a2.74,2.74,0,0,1-.86-1,2.24,2.24,0,0,1-.18-.54.06.06,0,0,1,0-.06s0-.06,0-.09a.38.38,0,0,1-.14-.31,5.21,5.21,0,0,0-.06-.57.37.37,0,0,1,0-.1c.06-.33.09-.66.18-1a2.36,2.36,0,0,1,.38-.84.42.42,0,0,0,0-.09,2,2,0,0,1,.41-.57,1,1,0,0,0,.11-.11,2.1,2.1,0,0,1,.7-.59l.34-.19a3.11,3.11,0,0,1,.41-.15,4.21,4.21,0,0,1,1-.13,3.37,3.37,0,0,1,.86.05.51.51,0,0,0,.17,0,.11.11,0,0,1,.11.06ZM39.09,32h0s0,0,0,0l0,0s0,0,0,0a.26.26,0,0,0,0,0Zm-.18-1.87v0a.39.39,0,0,0-.26-.1,0,0,0,0,0,0,.07l.17.13A.07.07,0,0,0,38.91,30.16Zm.18-1.64a0,0,0,0,0,0,0,.06.06,0,0,0,.05.06s0,0,0,0A.06.06,0,0,0,39.08,28.52Zm-.34.51s0,0,0,0a0,0,0,0,0,0,0,0,0,0,0,0,0,0A0,0,0,0,0,38.74,29Zm4.39-2.4s0,0,0,0a0,0,0,0,0,0,0,0,0,0,0,0,0,0S43.11,26.63,43.13,26.63Zm-4.57,3.7s0,0,0,0v0a0,0,0,0,0,0,0S38.58,30.34,38.57,30.33Zm0,.9s0,0,0,0v0s0,0,0,0Zm.36-.6,0,0h0Zm.09-.94,0,0h0l0,0Zm.68,2.38h0Zm1.89,1.43h0s0,0,0,0h0Zm-1.34-.64h0l0,0Zm-1.66-3.68h0Zm5.25-2.42h0s0,0,0,0Zm-5.15,3.57s0,0,0,0h0Zm1-2.88h0ZM39,31.91h0Zm-.4-1.44h0Zm5.18,2.77s0,0,0,0h0Zm-4.3-5.57h0Z"/><path class="1e12e533-bdaf-47f3-9967-8a3b71cce6ec" d="M26.23,31.44h0c.54-.81,1-1.33,1.62-1.33a.62.62,0,0,1,.66.69,2.82,2.82,0,0,1-1,1.8,2.29,2.29,0,0,1-1.46.74c-.41,0-.61-.27-.61-.71a5.16,5.16,0,0,1,.39-1.51l.89-2.36c.16-.43.18-.56.08-.64L26.65,28a.1.1,0,0,1,0-.11,3,3,0,0,1,.92-.15l0,0-.39,1Zm.47-.27A2.7,2.7,0,0,0,26,32.7c0,.3.14.4.27.4a1.38,1.38,0,0,0,.74-.51,4.39,4.39,0,0,0,1-1.95.25.25,0,0,0-.27-.28C27.55,30.37,27.17,30.63,26.7,31.17Z"/><path class="1e12e533-bdaf-47f3-9967-8a3b71cce6ec" d="M30.7,31.41a9.07,9.07,0,0,1-.11,1.69h0a6.21,6.21,0,0,0,.64-1.32,6.66,6.66,0,0,0,.28-1.42c0-.22.13-.24.18-.24a.5.5,0,0,1,.21.07.16.16,0,0,1,.07.15,6,6,0,0,1-.89,2.34,10.32,10.32,0,0,1-1.26,1.84c-.57.65-.95.77-1.19.77a.36.36,0,0,1-.4-.35.31.31,0,0,1,.31-.33.26.26,0,0,1,.21.12.26.26,0,0,0,.21.14.74.74,0,0,0,.42-.21,2.74,2.74,0,0,0,.67-1.15,7.41,7.41,0,0,0,.15-1.75c0-.85-.15-1.15-.29-1.15s-.28.26-.44.58a.11.11,0,0,1-.15-.1c.16-.51.5-1,.87-1S30.69,30.87,30.7,31.41Z"/><path class="1e12e533-bdaf-47f3-9967-8a3b71cce6ec" d="M.18.16H8.56a.18.18,0,0,1,.18.18V2.28a.18.18,0,0,1-.18.18H2.71a.18.18,0,0,0-.18.18V4.72a.18.18,0,0,0,.18.18H7.82A.18.18,0,0,1,8,5.08V7a.18.18,0,0,1-.18.18H2.71a.18.18,0,0,0-.18.18v4.08a.18.18,0,0,1-.18.18H.18A.18.18,0,0,1,0,11.46V.34A.18.18,0,0,1,.18.16Z"/><path class="1e12e533-bdaf-47f3-9967-8a3b71cce6ec" d="M24,.16h8.29a.18.18,0,0,1,.18.18V2.23a.18.18,0,0,1-.18.18H26.54a.18.18,0,0,0-.18.18v2a.18.18,0,0,0,.18.18h5a.18.18,0,0,1,.18.18V6.8a.18.18,0,0,1-.18.18h-5a.18.18,0,0,0-.18.18v2a.18.18,0,0,0,.18.18h5.87a.18.18,0,0,1,.18.18v1.88a.18.18,0,0,1-.18.18H24a.18.18,0,0,1-.18-.18V.34A.18.18,0,0,1,24,.16Z"/><path class="1e12e533-bdaf-47f3-9967-8a3b71cce6ec" d="M52,.08h2.09a.18.18,0,0,1,.17.11L59,11.39a.18.18,0,0,1-.17.25H56.6a.18.18,0,0,1-.17-.11l-1-2.35a.18.18,0,0,0-.17-.11H50.7a.18.18,0,0,0-.17.11l-1,2.35a.18.18,0,0,1-.17.11H47.23a.18.18,0,0,1-.17-.25L51.83.19A.18.18,0,0,1,52,.08Zm2.43,6.5L53.17,3.52a.18.18,0,0,0-.34,0L51.58,6.59a.18.18,0,0,0,.17.25h2.51A.18.18,0,0,0,54.43,6.59Z"/><path class="1e12e533-bdaf-47f3-9967-8a3b71cce6ec" d="M73.16,9.83l1.26-1.51a.18.18,0,0,1,.25,0A5.16,5.16,0,0,0,78,9.57c1,0,1.66-.41,1.66-1.08v0c0-.64-.39-1-2.31-1.46C75,6.41,73.5,5.77,73.5,3.49v0c0-2.08,1.67-3.46,4-3.46a6.65,6.65,0,0,1,4.12,1.35.19.19,0,0,1,0,.25L80.57,3.21a.18.18,0,0,1-.25,0,5.23,5.23,0,0,0-2.84-1c-1,0-1.48.44-1.48,1v0c0,.75.49,1,2.48,1.51,2.33.61,3.64,1.44,3.64,3.44v0c0,2.28-1.74,3.56-4.21,3.56a7.31,7.31,0,0,1-4.73-1.71A.19.19,0,0,1,73.16,9.83Z"/><path class="1e12e533-bdaf-47f3-9967-8a3b71cce6ec" d="M99.66,2.49H96.53a.18.18,0,0,1-.18-.18v-2a.18.18,0,0,1,.18-.18h9.14a.18.18,0,0,1,.18.18v2a.18.18,0,0,1-.18.18h-3.13a.18.18,0,0,0-.18.18v8.78a.18.18,0,0,1-.18.18H100a.18.18,0,0,1-.18-.18V2.67A.18.18,0,0,0,99.66,2.49Z"/></svg>