<svg id="093342ab-382d-41de-9a25-04efa2f86bdf" data-name="Layer 1" xmlns="http://www.w3.org/2000/svg" viewBox="0 0 104.41 71.26"><defs><style>.\37 a5847a2-f336-4d41-a6fe-009ac4106454{fill:#d2ab82;}</style></defs><title>east-sac</title><path class="7a5847a2-f336-4d41-a6fe-009ac4106454" d="M96.17,5c0,.42-.39.57-.69.72-1.61.79-3.17,1.68-4.75,2.5a3.49,3.49,0,0,0-2.2,3.37,3.4,3.4,0,0,0,.1,1.54c.51-.32.36-.89.52-1.35a4.47,4.47,0,0,1,.15-.64c.15-.29.2-.88.47-.8s.09.61.07.93a23.63,23.63,0,0,1-1.06,4.74,5.91,5.91,0,0,0,.17,3.47c.16.56.44.6.82.14a8.28,8.28,0,0,0,1.64-3.12c.21-.76.38-1.53.55-2.3a6.9,6.9,0,0,1,.6-1.59.36.36,0,0,1,.42-.22.48.48,0,0,1,.33.38,2.54,2.54,0,0,1-.23,1.41,10.49,10.49,0,0,0-.58,2.7c-.08.91.3,1.21,1.18,1a2.86,2.86,0,0,0,1.67-1.21,8.17,8.17,0,0,0,1.28-6.27c-.09-.57-.35-.87-1-.74A2.87,2.87,0,0,1,94,9.48a.49.49,0,0,1-.3-.53A.44.44,0,0,1,94,8.58a2.58,2.58,0,0,1,1.67-.21,2.21,2.21,0,0,0,1.76-.22q3.21-1.34,6.44-2.66c.19-.08.42-.24.55,0,0,.06-.2.28-.34.35-1.77.86-3.55,1.71-5.32,2.57l-.6.28c-1.21.61-1.13.6-.88,1.91a9.39,9.39,0,0,1-1,6.49,3.3,3.3,0,0,1-4,1.5c-.56-.23-.87-.12-1.12.46a6.89,6.89,0,0,1-.92,1.43c-.6.76-1.2.76-1.83,0-.08-.1-.14-.23-.22-.33-.4-.48-.61-.47-.77.12a10.43,10.43,0,0,1-1.25,2.88,7.51,7.51,0,0,1-.95,1.26A1.31,1.31,0,0,1,83,24.13c-.15-.27-.21-.58-.34-.85s0-.71-.47-.68-.43.42-.53.68A17.32,17.32,0,0,0,80.42,27c-.06.4-.14.85-.69.74s-.49-.51-.47-.93c.07-1.44.1-2.89.15-4.33a3.21,3.21,0,0,0,0-.39c0-.3,0-.71-.27-.83s-.63.21-.82.5c-.94,1.43-1.79,2.91-2.77,4.31A18.25,18.25,0,0,1,74,28a2.14,2.14,0,0,1-1.71.85,1.45,1.45,0,0,0-1.3.74,16.8,16.8,0,0,1-1.51,1.82c-1.63,1.6-3.36,1.39-4.59-.51C64,29.55,63.76,29.56,63,31c-.44.81-.84,1.63-1.27,2.45-.12.24-.28.47-.59.45s-.48-.31-.53-.64c-.08-.56-.18-1.12-.28-1.69,0-.21-.1-.47-.36-.46s-.26.22-.32.37c-.6,1.32-1.18,2.64-1.78,4-.21.46-.29,1.22-.88,1.16s-.65-.81-.65-1.38a2,2,0,0,0,0-.26c0-.22,0-.51-.26-.56s-.27.26-.35.44a11.14,11.14,0,0,1-1.61,2.7,1.5,1.5,0,0,1-1.35.68,1.09,1.09,0,0,1-.89-.45c-.5-.71-.57-.69-.9.13A6.39,6.39,0,0,1,50,39.47c-.36.45-.83.87-1.46.62s-.64-.9-.55-1.47a18.5,18.5,0,0,1,1-3.25c.16-.43.74-1,.37-1.28s-.84.43-1.21.73a13.32,13.32,0,0,0-3,4.29C44.22,41,43.34,43,42.38,45a6.42,6.42,0,0,1-.67,1.13.89.89,0,0,1-1.64-.21,4,4,0,0,1-.27-2.19,28.93,28.93,0,0,1,.87-4.79,3.8,3.8,0,0,0,.16-.9c0-.39-.23-.6-.59-.47a14.22,14.22,0,0,0-3.51,1.76c-.43.31-.42.84-.51,1.31a29.15,29.15,0,0,1-3.36,9.08A6.88,6.88,0,0,1,29,53.13a3.07,3.07,0,0,1-3-.1c-.49-.34-.79-.15-1,.34a14.76,14.76,0,0,1-.9,1.6c-.88,1.34-2.31,2.49-4.06,1.15-.44-.34-.6,0-.72.35-.22.71-.44,1.42-.68,2.13a3.69,3.69,0,0,1-.73,1.24,1.25,1.25,0,0,1-2.22-.35,4.25,4.25,0,0,1-.28-1.93,13.35,13.35,0,0,1,1.11-4.84c.13-.28.24-.56.34-.85a.26.26,0,0,0-.06-.22c-.07-.07-.15,0-.22.06a14.75,14.75,0,0,0-1.22,1.19c-2,2.46-3.77,5-5.5,7.68a.81.81,0,0,0,0,1c1.05,1.88.67,3.71-.28,5.5a9,9,0,0,1-2.94,3.62,4,4,0,0,1-2.24.6c-1.08,0-1.35-.34-1.12-1.37A8.16,8.16,0,0,1,4,67.81c1.12-2.09,2.63-3.93,3.9-5.93.56-.88.58-.92-.37-1.42s-2.13-1-3.2-1.55A12.76,12.76,0,0,1,2.2,57.68C.14,56.14-.56,54.09.47,51.78a17.47,17.47,0,0,1,3.13-5,2.29,2.29,0,0,1,3.16-.64,11,11,0,0,1,1.72,1,2.06,2.06,0,0,1,.93,2.62,12.1,12.1,0,0,1-1.23,2.47c-.06.12-.19.23-.31.15A.38.38,0,0,1,7.8,52a5.82,5.82,0,0,1,.45-.94,4.79,4.79,0,0,0,.59-1.59A1.53,1.53,0,0,0,8,47.58c-2.35-1.36-2.81-1.25-4.29.69a17.24,17.24,0,0,0-2.46,4.17,3.43,3.43,0,0,0,.89,4.18c1.24,1.29,2.94,1.71,4.41,2.55A16.28,16.28,0,0,1,8.18,60a.78.78,0,0,0,1.3-.22q1.16-1.67,2.33-3.33a30.85,30.85,0,0,1,6.3-7c.48-.36,1-.88,1.64-.52s.6,1.08.49,1.77c-.15.91-.2,1.83-.28,2.75a1.92,1.92,0,0,0,0,.65c.19.72.37,1.51,1.18,1.78s1.23-.35,1.71-.77a9.47,9.47,0,0,0,1.93-2.95,1.64,1.64,0,0,0,0-1.16A11.64,11.64,0,0,1,26,43a2,2,0,0,1,2.1-1.28,2.45,2.45,0,0,1,1.8,2c0,.17.08.37-.12.46s-.34-.07-.42-.22-.22-.58-.37-.84c-.51-.84-1.17-.89-1.77-.09a6.09,6.09,0,0,0-1,1.82,14.83,14.83,0,0,0-.86,4.5,4.4,4.4,0,0,0,.5,2,1.9,1.9,0,0,0,2.93.89A9,9,0,0,0,32.22,49a45.36,45.36,0,0,0,3-7.42,4.68,4.68,0,0,0,.15-.64c.15-.87.12-.91-.8-1.07-1.16-.2-1.56-.79-1.25-2a8.47,8.47,0,0,1,2.88-4.15c.52-.45,1-.2,1,.55a12.57,12.57,0,0,1-.29,2.87c-.13.85,0,1,.78.66a13,13,0,0,1,2.18-.91c1.4-.33,2.07.27,1.77,1.67a54.79,54.79,0,0,0-1,5.44,6.81,6.81,0,0,0-.07.92c0,.2,0,.46.32.49s.32-.16.4-.3c.66-1.29,1.35-2.56,1.94-3.88a36.17,36.17,0,0,1,2.54-4.59,17.32,17.32,0,0,1,4.32-4.19c.45-.35.91-.68,1.37-1,.23-.16.5-.26.71,0a.53.53,0,0,1-.06.72c-.28.34-.53.7-.78,1.05A17.93,17.93,0,0,0,49,38.12c-.05.17-.09.34-.13.51a.28.28,0,0,0,.15.33c.14.08.25,0,.33-.12a7.91,7.91,0,0,0,1.38-2.37c.31-.91.62-1.82.95-2.73.1-.27.16-.68.58-.56s.37.47.35.77c0,.74-.12,1.49-.14,2.23,0,.37-.2.91.22,1.07s.74-.35,1-.68A9.93,9.93,0,0,0,54.9,34.7c.32-.67.69-1.32,1-2,.16-.33.32-.67.75-.59s.46.36.53.68,0,.91.27.94.46-.53.62-.87c.41-.87.86-1.72,1.31-2.57.17-.31.38-.65.77-.65s.59.46.78.79c0,.07,0,.17.1.24.19.28-.1.84.35.9s.57-.43.76-.77A5.23,5.23,0,0,1,63,29.48a1.13,1.13,0,0,1,1.89.11c.38.48.69,1,1.06,1.51a1.24,1.24,0,0,0,1.82.42,10,10,0,0,0,2.67-2.86c.21-.27.07-.58,0-.88a4.69,4.69,0,0,1,1-4.78,2.66,2.66,0,0,1,.68-.61.83.83,0,0,1,1.37.61,5.33,5.33,0,0,1-.53,2.93c-.15.41-.37.79-.54,1.2-.08.19-.26.44-.06.6s.5,0,.71-.15a7.48,7.48,0,0,0,.67-.63,22.42,22.42,0,0,0,2.7-3.55,12.82,12.82,0,0,1,1.95-2.47c.67-.64,1.25-.54,1.63.29a2.64,2.64,0,0,1,.2,1.16,9.71,9.71,0,0,0,.07,1.18c0,.11.12.2.18.3.1-.07.25-.12.3-.22.21-.43.39-.88.58-1.32a4.73,4.73,0,0,1,.34-.71c.51-.77,1.08-.76,1.44.08a14.23,14.23,0,0,1,.47,1.64c.09.29.16.64.51.7s.55-.24.72-.49c1.55-2.37,2.94-4.79,2.7-7.79a32.37,32.37,0,0,1,.12-4.6c0-.78-.11-.88-.79-.48A41.38,41.38,0,0,0,79.37,16,16.85,16.85,0,0,1,78,17.12c-.17.13-.41.25-.58,0s0-.41.16-.56c1-.87,1.92-1.81,3-2.6a42.54,42.54,0,0,1,6.06-4.17,2.5,2.5,0,0,0,1.5-2.13A5.33,5.33,0,0,1,89,5.2c.19-.28.43-.66.84-.42s.41.59.06,1a3.07,3.07,0,0,0-.58,1.45c-.06.25-.23.55,0,.75s.58,0,.86-.1.78-.4,1.18-.59a31.74,31.74,0,0,1,4.91-2.19ZM9.56,64.59a5.27,5.27,0,0,0,0-1.83.71.71,0,0,0-.4-.63c-.32-.13-.46.17-.62.36a9.89,9.89,0,0,0-.63.84,55.11,55.11,0,0,0-3.35,5.32c-.29.55-.91,1.25-.33,1.75S5.51,70.32,6,70A9.27,9.27,0,0,0,9.56,64.59ZM19,53.93c0-.59.12-1.73.2-2.86,0-.18,0-.37-.17-.45s-.21.13-.29.23a12.19,12.19,0,0,0-2.51,7.32c0,.45-.11,1.12.45,1.26s.83-.5,1.05-.95A15.21,15.21,0,0,0,19,53.93ZM36.34,36.56a5.59,5.59,0,0,0,.08-.83c0-.32-.26-.53-.5-.28a5.66,5.66,0,0,0-1.71,3c-.08.51.24.7.73.6a1.12,1.12,0,0,0,1-.89C36,37.63,36.19,37.13,36.34,36.56ZM72.73,24.19c0-.28.18-.6-.06-.75s-.53.19-.69.4a3.46,3.46,0,0,0-.79,2.54c0,.12,0,.3.11.35s.3-.07.4-.19A8.11,8.11,0,0,0,72.73,24.19ZM51,11.54c-.81-.1-1.37.47-2,.75-.4.17-.79.37-1.18.56s-.58.18-.77-.18.06-.55.35-.68c1.27-.59,2.51-1.23,3.81-1.75a3.86,3.86,0,0,0,2.43-2.55,4.83,4.83,0,0,1,.65-1.13.33.33,0,0,1,.46-.12.38.38,0,0,1,.19.45c-.1.33-.26.64-.37,1s-.19.44,0,.63.39.07.59,0c2-.7,4-1.37,6-2s3.75-1.15,5.62-1.77a2.12,2.12,0,0,1,1.28,0l0,0c-2.16.82-4.32,1.69-6.5,2.46S57.24,8.61,55.15,9.4a2.59,2.59,0,0,0-1.87,2.41,11.31,11.31,0,0,0,0,3.27A2.09,2.09,0,0,0,55.52,17a11.63,11.63,0,0,0,3.85-.77,46.91,46.91,0,0,0,7.42-3.34c.14-.07.32-.27.44-.09s-.11.3-.25.39a27.12,27.12,0,0,1-9.88,4.42l-.39.07c-3.49.5-4.46-1.71-4.43-4.18,0-.51.35-1.3-.12-1.46s-.79.62-1.13,1a30.71,30.71,0,0,1-5.71,5.41,7.71,7.71,0,0,1-.85.62A2.08,2.08,0,0,0,43.35,21a10.06,10.06,0,0,1-1.2,4.27,4,4,0,0,1-.83,1.17c-1,.85-1.79.65-2.18-.59A4.65,4.65,0,0,1,38.92,24c0-.1-.1-.21-.16-.32-.11.06-.26.1-.31.2-.57,1-1.13,2-1.69,3A16.63,16.63,0,0,1,35.38,29a3,3,0,0,1-.88.77c-.94.55-1.33.45-2-.64-.32-.54-.44-.4-.64,0a4.88,4.88,0,0,1-1.14,1.9c-.23.2-.49.41-.83.29a.79.79,0,0,1-.52-.83,12.29,12.29,0,0,1,.29-2.61c0-.16.13-.36-.09-.45s-.32.08-.41.24c-.84,1.44-1.71,2.86-2.51,4.32A35,35,0,0,1,24,36.08a2.06,2.06,0,0,1-.26.3c-.35.32-.67.85-1.19.67s-.7-.87-.66-1.45a27.34,27.34,0,0,1,1.51-7.71c.32-.86.33-.87-.53-1.1s-1-.89-1.16-1.59a13.67,13.67,0,0,1,.16-4.45A68.39,68.39,0,0,1,25.8,7.4a22.57,22.57,0,0,1,3.63-6.08A3.71,3.71,0,0,1,30.82.15c.7-.3,1-.16,1.11.57a8.58,8.58,0,0,1,.21,1.87c0,.69-.31,3.2-.46,4.51a45.42,45.42,0,0,1-2.59,7.69c-.08.21-.18.47-.43.4s-.29-.4-.18-.65c.56-1.28,1-2.61,1.45-3.94a31.8,31.8,0,0,0,1.21-4.71c.17-1.24.37-4.29.36-4.59,0-.47-.27-.64-.7-.39a4.72,4.72,0,0,0-1.07,1,20.27,20.27,0,0,0-3.58,6.09,74.81,74.81,0,0,0-2.92,9,27.57,27.57,0,0,0-1,7.28c0,.66,0,1.46.65,1.74s1.07-.42,1.52-.82a20.83,20.83,0,0,0,2.2-2.78c.18-.22.38-.43.64-.25s.15.4,0,.6a13,13,0,0,1-.71,1.11,22.13,22.13,0,0,0-3.86,9.82,14.13,14.13,0,0,0-.1,1.7c0,.17,0,.36.17.45s.43,0,.57-.2a26.19,26.19,0,0,0,2.26-3.23c1.67-2.78,3.16-5.66,5.06-8.3a4.57,4.57,0,0,1,.64-.83c.33-.29.52-.93,1.13-.68a1.7,1.7,0,0,1,1,1.69c-.1,1.14-.2,2.27-.28,3.41a4.14,4.14,0,0,0,0,.92c.11.71.42.83,1,.39a5.82,5.82,0,0,0,1.1-1.3,60.29,60.29,0,0,0,3.35-5.81c1.27-2.5,2.47-5,3.75-7.52.57-1.1.78-2.33,1.34-3.42a4.36,4.36,0,0,1,.43-.81c.24-.3.3-1,.89-.7s.05.7-.08,1c-.31.77-.71,1.51-1,2.3a12.34,12.34,0,0,0-.49,5.07c.06.68.27.78.83.39A31,31,0,0,0,50.85,12a1.29,1.29,0,0,0,.12-.49h0ZM42.42,22c0-.38.35-.88-.06-1.17s-.68.24-1,.39l-.11.07a3.68,3.68,0,0,0-1.38,4.34c.21.49.49.57.88.18a3.44,3.44,0,0,0,.61-.84A11.92,11.92,0,0,0,42.42,22Zm.25-3.22c0-.61-.06-1.21-.1-1.82,0-.17,0-.39-.22-.43s-.28.16-.36.3q-.78,1.57-1.55,3.15c-.07.15-.23.31-.09.47s.4.05.57-.05q.61-.37,1.21-.76A1,1,0,0,0,42.67,18.79ZM30.35,28.55c0,.2-.09.5-.13.8s-.07.39.1.47.38-.12.47-.32a28.79,28.79,0,0,0,1.56-5c0-.17.21-.45-.11-.53s-.35.2-.44.4A15.22,15.22,0,0,0,30.35,28.55ZM96.17,5A.94.94,0,0,0,97,5c.29-.17.85-.49.79-.55-.31-.33-.57.1-.86.21a5.15,5.15,0,0,0-.77.46ZM67.93,4.72l0-.09c-.06.07,0,.09.06,0Z"/></svg>