<svg id="5280a8ea-f5c5-440f-8874-69aa8d1a7d6e" data-name="46d88610-2c05-459f-98b3-2d57a661e790" xmlns="http://www.w3.org/2000/svg" viewBox="0 0 75.3 1.13"><defs><style>.\33 60056ea-a451-456f-a082-82479dca7fdc{fill:#666;}</style></defs><title>line-thin</title><path class="360056ea-a451-456f-a082-82479dca7fdc" d="M0,.08H.79C2.15.08,3.51,0,4.87.08L6.11.14A5.49,5.49,0,0,0,7.38.1a1.15,1.15,0,0,1,.3,0c.78.05,1.57,0,2.35,0a1.76,1.76,0,0,1,.65.05.33.33,0,0,0,.16,0C12.41,0,14,.08,15.6.07A16.78,16.78,0,0,1,18,.18a16.35,16.35,0,0,0,2.67,0c.84,0,1.67,0,2.5,0S24.77.1,25.57.11c.3,0,.59.06.89.06.69,0,1.37-.09,2.06-.1s1.4,0,2.1,0a3.1,3.1,0,0,1,1.06.07A12.43,12.43,0,0,1,33.81.05a9.31,9.31,0,0,1,1.93,0c.59.07,1.21,0,1.82,0s1.24,0,1.86,0A42.74,42.74,0,0,1,44,.09a11.62,11.62,0,0,0,1.84.06c.61-.05,1.24,0,1.85-.06.21,0,.37.14.54.13a2.82,2.82,0,0,1,.5-.13c1.07.06,2.14-.06,3.2.07.89.1,1.81,0,2.71.21a3.29,3.29,0,0,0,.66-.05c.82,0,1.65-.08,2.47-.09C59,.23,60.18.16,61.4.12h.2A26,26,0,0,0,65.46,0c.81,0,1.62,0,2.43,0,1.5,0,3,.05,4.49,0,.42,0,.85,0,1.27-.06a2,2,0,0,1,.89.09A.64.64,0,0,0,75,0c.15,0,.23,0,.26.19s.09.36-.24.35c-.62,0-1.24,0-1.85.06s-1.07,0-1.6,0a34.28,34.28,0,0,1-3.46.08c-1,0-1.94,0-2.92.07a2.12,2.12,0,0,1-1-.1.35.35,0,0,0-.2,0,4.37,4.37,0,0,1-1.64,0,.53.53,0,0,0-.25,0,6.53,6.53,0,0,1-2,.13,2.45,2.45,0,0,1-1.25-.1.28.28,0,0,0-.16,0,12.69,12.69,0,0,1-2.42.1A.52.52,0,0,1,55.8.65c-.08-.09-.18-.15-.24,0s-.15.14-.26.14c-.65,0-1.29.08-1.93.13-1,.07-1.89-.06-2.83-.06-.67,0-1.34-.06-2,0-.35,0-.71,0-1.07,0-1,0-2.08.05-3.13.06S42,.84,40.75.79c-.45,0-.89-.06-1.35,0-.63,0-1.26,0-1.89-.09a4.12,4.12,0,0,0-.74,0,1.27,1.27,0,0,1-.73-.07.21.21,0,0,0-.3.06.15.15,0,0,1-.17.08c-.44-.17-.89.05-1.33,0s-.9,0-1.35,0c-.68,0-1.37-.06-2.06-.05s-1.09,0-1.64,0c-.3,0-.59.08-.89.08-1.21,0-2.41.11-3.62,0-.43,0-.87,0-1.31,0-.64,0-1.28,0-1.93,0a20.07,20.07,0,0,0-2.18,0,25.94,25.94,0,0,1-3.12,0c-.77,0-1.53,0-2.3,0a21.51,21.51,0,0,0-2.79,0c-1.15,0-2.3,0-3.45.11A21.47,21.47,0,0,1,5,.77H4.58A6,6,0,0,1,3.39.72a2.82,2.82,0,0,0-.82,0,2.41,2.41,0,0,1-.74,0,1.12,1.12,0,0,0-.45,0A2.12,2.12,0,0,1,.53.61C.41.61.42.86.35.79S.21.57.14.59.09.22,0,.08ZM70.21.42s-.08.05-.07.13.08.18.15.16.08,0,.07-.12S70.28.42,70.21.42Zm-25,.16c0-.1,0-.13-.06-.14a.08.08,0,0,0-.06.06.13.13,0,0,0,0,.13h0s.06,0,.07,0h0ZM48.85,1a.13.13,0,0,0,0-.08s-.06,0-.08,0V1a.12.12,0,0,0,0,.08s.07,0,.08,0v0ZM61.7.73s.06,0,0-.06,0,0-.07,0a0,0,0,0,0,0,.06s0,0,.07,0ZM21.41.8h0s0,.06,0,0,0,0,0,0ZM72.6.69V.63h-.07V.68Zm-5.11,0h0s0-.07,0-.06,0,0,0,0Zm4-.06h0l0,0Zm-27,.4v0h0Z"/></svg>