<svg id="46d88610-2c05-459f-98b3-2d57a661e790" data-name="Layer 1" xmlns="http://www.w3.org/2000/svg" viewBox="0 0 254.06 2.45"><defs><style>.\31 d049e88-094c-42a6-8c8f-d061e8249118{fill:#d6c6b2;}</style></defs><title>line</title><path class="1d049e88-094c-42a6-8c8f-d061e8249118" d="M0,.21H2.67c4.59,0,9.18-.12,13.76,0L20.6.34a29,29,0,0,0,4.3-.1,6.07,6.07,0,0,1,1,0c2.64.11,5.28-.05,7.92,0A9.2,9.2,0,0,1,36,.35a1.73,1.73,0,0,0,.54,0C41.87,0,47.25.2,52.62.17c2.68,0,5.36,0,8,.24a86.5,86.5,0,0,0,9,.07c2.82,0,5.64-.09,8.45,0S83.55.24,86.27.27c1,0,2,.12,3,.12C91.6.4,93.89.19,96.21.18s4.72,0,7.08.07a16.28,16.28,0,0,1,3.57.16,65.52,65.52,0,0,1,7.19-.27,49.24,49.24,0,0,1,6.51,0c2,.16,4.09,0,6.14.08s4.17,0,6.26,0c5.14-.07,10.27-.28,15.41,0,2.07.1,4.16.24,6.21.13s4.17,0,6.23-.12c.72-.06,1.25.3,1.81.27a14.12,14.12,0,0,1,1.69-.27c3.6.13,7.23-.12,10.81.14,3,.22,6.12.09,9.14.46a17.28,17.28,0,0,0,2.21-.11c2.78,0,5.55-.17,8.33-.19,4.11,0,8.22-.16,12.34-.25.23,0,.47,0,.69,0,4.35.31,8.67-.05,13-.15,2.73-.06,5.46.06,8.19.05,5.05,0,10.1.11,15.15,0,1.43,0,2.87-.08,4.3-.12a10.5,10.5,0,0,1,3,.2,3.22,3.22,0,0,0,1.59-.17c.52-.1.78-.1.87.4.14.78.3.78-.81.76-2.09,0-4.17.09-6.24.12-1.79,0-3.6,0-5.39.05-3.89.15-7.77.27-11.66.17-3.29-.08-6.56.07-9.84.15a11.06,11.06,0,0,1-3.43-.21,1.83,1.83,0,0,0-.68,0,23,23,0,0,1-5.52,0,2.8,2.8,0,0,0-.83,0,34.34,34.34,0,0,1-6.9.27,12.78,12.78,0,0,1-4.23-.21,1.44,1.44,0,0,0-.54,0,67,67,0,0,1-8.15.22,2.36,2.36,0,0,1-1.48-.39c-.27-.2-.62-.33-.8.05s-.51.31-.89.31c-2.18,0-4.34.18-6.51.27-3.21.14-6.38-.12-9.56-.13-2.25,0-4.51-.12-6.77,0-1.19.06-2.41-.06-3.61-.05-3.52,0-7,.11-10.55.12-4,0-8-.16-12.06-.27-1.51,0-3-.13-4.54-.1-2.12,0-4.25-.08-6.36-.19a21.78,21.78,0,0,0-2.49,0,6.62,6.62,0,0,1-2.46-.14,1,1,0,0,0-1,.13.62.62,0,0,1-.58.18c-1.49-.36-3,.11-4.49,0s-3.05.05-4.57,0c-2.31-.08-4.63-.12-6.94-.11-1.84,0-3.68.08-5.54,0-1-.05-2,.18-3,.17-4.07,0-8.14.23-12.21.07-1.46-.06-2.94.09-4.41.09-2.17,0-4.33,0-6.5-.07-2.45,0-4.92-.17-7.36,0-3.53.18-7,0-10.54-.09-2.59-.09-5.17.08-7.75-.1-3.14-.21-6.3-.05-9.42,0-3.88.1-7.77.08-11.64.24-2.95.12-5.9,0-8.85-.11-.46,0-.93,0-1.39,0a31.76,31.76,0,0,1-4-.11,14.89,14.89,0,0,0-2.77,0,12.72,12.72,0,0,1-2.49,0,5.87,5.87,0,0,0-1.52,0,11,11,0,0,1-2.86-.25c-.41,0-.4.54-.63.4s-.45-.48-.7-.43S.29.51,0,.21ZM236.86.94c-.16,0-.26.11-.22.27a.44.44,0,0,0,.5.35c.15,0,.27-.09.23-.25A.51.51,0,0,0,236.86.94Zm-84.44.34c0-.21-.07-.29-.21-.3a.25.25,0,0,0-.2.12.21.21,0,0,0,.14.3A.19.19,0,0,0,152.41,1.29Zm12.37,1c0-.06-.09-.16-.15-.18a.2.2,0,0,0-.29.16c0,.05.08.15.14.17A.21.21,0,0,0,164.79,2.29Zm43.35-.68c.12,0,.2-.05.16-.13s-.15-.07-.23-.08-.2.05-.16.12S208.06,1.58,208.14,1.61Zm-135.9.14s-.1,0-.11,0,0,.12.11.1.06,0,.09-.06Zm172.66-.23,0-.12-.22,0s0,.07,0,.11Zm-17.23.05s.11,0,.12,0,0-.14-.11-.12-.07,0-.11.06Zm13.57-.12-.1,0,.07.05ZM150,2.29l0,.07h.1Z"/></svg>