<svg xmlns="http://www.w3.org/2000/svg" xmlns:xlink="http://www.w3.org/1999/xlink" viewBox="0 0 292.75 108.82"><defs><clipPath id="clip-path" transform="translate(-0.25 -1.5)"><path d="M82.39,77.48A3.07,3.07,0,0,1,80.16,77c-.47-.25-.48-.24-.67.25-.06.17-.1.33-.31.37a15.11,15.11,0,0,1-4.69.16c-.18,0-.48.09-.47-.21a.78.78,0,0,1,.3-.68,1.26,1.26,0,0,1,.41-.14,11.3,11.3,0,0,0,4.11-1.87,7.08,7.08,0,0,0,2.09-2.37c.48-.81.89-1.67,1.31-2.52.1-.19.13-.33.42-.23s.55-.23.84-.33a.23.23,0,0,0,.06-.43c-.64-.31-.42-.82-.24-1.2.8-1.65,1.56-3.33,2.52-4.9.27-.45.4-1,.66-1.39.86-1.46,1.46-3,2.33-4.51.33-.56.53-1.2.81-1.79.08-.18.16-.49.48-.3s.54.64.34.82-.33.29-.13.55,0,.33-.07.48c-.39.7-.75,1.43-1.19,2.09a5.18,5.18,0,0,0-.8,1.7c-.24,1-.17,1.14.91,1.16h12.87c.6-.06.74-.27.53-.86a18.54,18.54,0,0,0-1.65-3.53c-.08-.12-.24-.26-.22-.36.16-.79-.58-1.13-.8-1.7-.38-1-1-1.83-1.35-2.82a2.77,2.77,0,0,0-.43-.84,1.7,1.7,0,0,1-.47-1,.69.69,0,0,0-.26-.43c-.4-.42-.82-.83-.49-1.5,0-.07,0-.23-.08-.2-.75.23-.72-.52-1.06-.81v-.06a.49.49,0,0,0-.81,0,2.66,2.66,0,0,0-.57,1A28.07,28.07,0,0,1,92.57,52c-.65.14-.54.6-.56,1.1a2.88,2.88,0,0,1-.58,1.34.53.53,0,0,1-.7.27h0A.58.58,0,0,1,90.4,54h0a6,6,0,0,1,.84-1.58c.45-.71.63-1.52,1-2.24.54-.94,1-1.91,1.51-2.88s1-2,1.42-3,1-1.67,1.29-2.62c.08-.28.31-.33.54-.15a1.7,1.7,0,0,1,.59.61c.91,1.94,1.77,3.91,2.82,5.8.61,1.1,1,2.32,1.62,3.42.76,1.38,1.42,2.82,2.11,4.24,1.19,2.42,2.51,4.77,3.78,7.14,1.58,2.93,3,5.94,4.58,8.87.53,1,1,2,1.53,3a4.07,4.07,0,0,0,2.31,1.82c.38.14.77.24,1.14.38.21.08.43.23.37.51s-.27.38-.57.4h-2.41a41.79,41.79,0,0,0-4.28.07l-.34.06c-.48.11-.86-.63-1.43-.11-.39.35-.92.15-1.41,0-.21,0-.45.09-.67.1a.3.3,0,0,1-.3-.45,1,1,0,0,1,.4-.44,6.39,6.39,0,0,0,1.21-1.31,2.22,2.22,0,0,0,.38-2.35,4.62,4.62,0,0,1-.37-1.32,1.21,1.21,0,0,0-.2-.56,9,9,0,0,1-.76-1.54,24.48,24.48,0,0,1-1.77-4,1.28,1.28,0,0,0-.5-.68,1.28,1.28,0,0,1-.5-1c0-.55-.5-.88-.93-1.17s-.84-.53-1.33-.13a.49.49,0,0,1-.41.07,14.35,14.35,0,0,0-3.16,0H89.75a15.83,15.83,0,0,0-2.23.22.88.88,0,0,0-.83.64,1,1,0,0,1-.47.6c-.51.31-.42,1-1,1.32-.1.05,0,.27,0,.41s.08.33-.08.37c-.51.12-.39.5-.47.87A5.17,5.17,0,0,1,84.05,69c-.53.81-.72,1.83-1.5,2.49-.14,1-.85,1.94-.83,3A2.48,2.48,0,0,0,84,76.81c.34,0,.69.06,1,.09a.67.67,0,0,1,.53.24c.07.09.13.21,0,.31a.24.24,0,0,1-.23,0,1,1,0,0,0-1,0,1.78,1.78,0,0,1-1,0,2.65,2.65,0,0,0-1,0c0-.05.09-.1,0-.15Zm19.16-21.34c0-.13,0-.47-.14-.47s0,.29-.1.43a.67.67,0,0,0-.07.16c-.07.15-.18.3,0,.46a.16.16,0,0,0,.15,0c.18-.1.15-.28.17-.45S101.55,56.22,101.55,56.14Zm10.59,20.68c0-.28-.23-.27-.4-.34s-.29-.09-.31.12a.35.35,0,0,0,.26.42h0a.37.37,0,0,0,.44-.22Zm-11.48-26a.24.24,0,0,0,.19.25.29.29,0,0,0,.36-.27c0-.13-.11-.19-.23-.19a.28.28,0,0,0-.29.21ZM80.21,76.13c-.13,0-.23,0-.22.17a.25.25,0,0,0,.15.17.17.17,0,0,0,.23-.06h0A.21.21,0,0,0,80.21,76.13Zm28.61-4.67a.14.14,0,0,0-.15.16.21.21,0,0,0,.24.18h0a.14.14,0,0,0,.15-.16A.22.22,0,0,0,108.82,71.46ZM78.46,76.4a.32.32,0,0,0-.27.27c0,.12,0,.25.16.23s.2-.18.23-.32a.15.15,0,0,0-.11-.18Zm2.87-1a.19.19,0,0,0-.17-.21h0a.24.24,0,0,0-.21.26v0a.16.16,0,0,0,.15.17h0C81.23,75.69,81.31,75.6,81.33,75.4Zm19.31-21.19a.16.16,0,0,0-.16.15.19.19,0,0,0,.14.23h0a.15.15,0,0,0,.17-.13h0a.2.2,0,0,0-.18-.2Zm7.24,12.71c.1,0,.16-.05.14-.15a.18.18,0,0,0-.09-.12.12.12,0,0,0-.18.09.14.14,0,0,0,.13.22Zm-26.47,10s.1-.07.1-.11-.06-.07-.1-.11-.1.07-.1.11S81.38,76.88,81.41,76.92Zm25.35-9.68.11-.09v-.07h-.13s0,.11,0,.15ZM87.76,61h0s-.11,0-.1.09a.09.09,0,0,0,0,.06s.07,0,.06-.1Zm9.61-11.77c0-.07,0-.08-.08,0s0,0,0,.06Zm6.57,8.36H104v-.07ZM89.22,58h-.07v.07Zm22,14.16Zm-6-12.27c0-.06,0-.08-.07-.06h0Zm-8.8-16.34Z" style="fill:none"/></clipPath><clipPath id="clip-path-2" transform="translate(-0.25 -1.5)"><path d="M129.75,41.32a16.15,16.15,0,0,0,2.41-.12,2.29,2.29,0,0,1,2.12,1c.85,1.08,1.8,2.07,2.7,3.12,1.29,1.5,2.7,2.9,4,4.4s2.48,2.85,3.76,4.24c1.44,1.56,2.81,3.17,4.24,4.73,1.1,1.2,2.11,2.49,3.3,3.61.92.87,1.68,1.88,2.53,2.81s1.9,1.9,2.74,3a1.59,1.59,0,0,0,.46.38c.32.18.57.09.64-.27s.07-.56.37-.73c.12-.07.1-.19,0-.29-.33-.32-.25-.76-.27-1.14V64a1,1,0,0,1,.11-.5c.16-.25.35-.46-.05-.68-.17-.09-.09-.3-.06-.47a4.4,4.4,0,0,0,0-2.08,2.86,2.86,0,0,1-.06-1c.08-2-.09-4,0-5.94.08-2.56-.18-5.11,0-7.66a2.76,2.76,0,0,0-1.82-2.83,6.68,6.68,0,0,0-1.47-.45,1.2,1.2,0,0,1-.85-.86.25.25,0,0,1,.19-.3h0a1.83,1.83,0,0,1,.6,0,18.45,18.45,0,0,0,3.09.08,41.82,41.82,0,0,0,4.48-.1,2.42,2.42,0,0,1,.86,0,.36.36,0,0,1,.27.3.38.38,0,0,1-.19.44,1.79,1.79,0,0,1-.56.21,4.19,4.19,0,0,0-1.69.8,4.33,4.33,0,0,0-1.4,2.12,4.71,4.71,0,0,0-.43,1.92,16.68,16.68,0,0,0,.1,3.18,2.44,2.44,0,0,1,0,.6c-.23,2.93-.1,5.86-.11,8.79,0,2,0,4,.06,5.95s.09,3.61.06,5.41a34.32,34.32,0,0,1-.06,3.52,1,1,0,0,0,.08.41,4.11,4.11,0,0,1-.18,2.36c0,.1-.15.15-.16.06-.06-.59-.6-.81-.92-1.19s-.34-.65,0-1c.1-.09.27-.19.17-.34s-.27-.06-.39,0a1.44,1.44,0,0,0-.36.23c-.25.23-.37.1-.54-.12-.62-.82-1.33-1.57-2-2.39a26.24,26.24,0,0,0-2-2.06c-.7-.7-1.34-1.54-2-2.28a.45.45,0,0,1-.06-.63l.06-.06c.25-.28.05-.24-.16-.18a.85.85,0,0,1-.73-.31c-1-1-1.81-2.07-2.75-3.08a20,20,0,0,1-1.54-1.63c-.18-.22-.32-.47-.48-.71a2.59,2.59,0,0,0-1.11-1.16.56.56,0,0,1-.33-.27,3.8,3.8,0,0,0-1.28-1.58c-.95-.9-1.64-2-2.66-2.86a3.55,3.55,0,0,1-.43-.66c-.11-.13-.16-.32-.29-.42a34,34,0,0,1-2.75-3,5.2,5.2,0,0,1-1.28-1.8c-.08-.22-.14-.25-.36-.11s-.21-.12-.28-.22a8.75,8.75,0,0,0-1.57-1.8c-.22-.18-.4-.46-.73-.37s-.39.44-.4.77c0,1.49-.11,3-.13,4.48s0,3,0,4.48c-.09,2.35.12,4.68.1,7,0,.09.05.2,0,.25-.48.72,0,1.47-.05,2.2s0,1.61,0,2.41a17.28,17.28,0,0,0,.13,2.32c.16,1,.3,2,.47,3a2.06,2.06,0,0,0,1.57,1.56,13.23,13.23,0,0,1,2.05,1.07.29.29,0,0,1,.19.35.37.37,0,0,1-.32.25,1.31,1.31,0,0,1-.43,0c-1.86-.25-3.74,0-5.59-.2-.84-.08-1.64.13-2.45.08-.32,0-.78.11-.83-.38s.4-.47.74-.51c1.38-.13,1.94-1.22,2.54-2.22.35-.59.39-1.32.76-1.92a.55.55,0,0,0,0-.33,19.69,19.69,0,0,1,.11-5,.56.56,0,0,0,0-.26c-.49-1.23-.17-2.49-.16-3.74v-5.7c0-2,.12-4.08.09-6.11,0-1.84,0-3.68-.15-5.51a2,2,0,0,0-.48-1.08,5.48,5.48,0,0,0-2.3-2,3.69,3.69,0,0,0-.89-.29,1.33,1.33,0,0,1-.42-.09c-.28-.14-.65-.27-.59-.64s.45-.26.71-.27C127.91,41.32,128.83,41.32,129.75,41.32Zm2.4,5.57c.28-.08.21-.34.25-.54s0-.2-.1-.19c-.27,0-.34.25-.34.48a.21.21,0,0,0,.15.25h0Zm-.36,1.51c0-.14-.06-.19-.15-.19a.14.14,0,0,0-.16.15.16.16,0,0,0,.3,0Zm.68,28c-.12,0-.23,0-.25.17s.06.16.15.16.23,0,.25-.17-.07-.16-.15-.22Zm10.66-19.8a.38.38,0,0,0-.11-.08.46.46,0,0,0-.3.07c-.08.07.07.08.11.08a.33.33,0,0,0,.3-.07Zm-7.9,20.49s.07-.08.07-.12-.06-.14-.15-.08a.15.15,0,0,0,0,.13l.08.07Zm-3.68-1.91s-.06-.09-.1-.1a.14.14,0,0,0-.11.07c0,.09,0,.14.13.13S131.55,75.22,131.55,75.18Zm3.21-30.83c0-.06-.07-.07-.12,0s0,.06,0,.06l.1.09Zm25.85-1.26s-.07-.09-.11-.09-.07.06-.11.09.07.09.11.08,0-.06.1-.09ZM149.37,59.82c0-.07,0-.08-.08,0s0,0,0,.06S149.35,59.83,149.37,59.82Zm.93,4.87ZM158,69h0ZM127.19,42Z" style="fill:none"/></clipPath><clipPath id="clip-path-3" transform="translate(-0.25 -1.5)"><path d="M217.64,41.32a16.15,16.15,0,0,0,2.41-.12,2.29,2.29,0,0,1,2.12,1c.85,1.08,1.8,2.07,2.7,3.12,1.29,1.5,2.7,2.9,4,4.4s2.48,2.85,3.76,4.24c1.44,1.56,2.81,3.17,4.24,4.73,1.1,1.2,2.11,2.49,3.3,3.61.92.87,1.68,1.88,2.53,2.81s1.9,1.9,2.74,3a1.59,1.59,0,0,0,.46.38c.32.18.57.09.64-.27s.07-.56.37-.73c.12-.07.1-.19,0-.29-.33-.32-.25-.76-.27-1.14V64a1,1,0,0,1,.11-.5c.16-.25.35-.46-.05-.68-.17-.09-.09-.3-.06-.47a4.4,4.4,0,0,0,0-2.08,2.86,2.86,0,0,1-.06-1c.08-2-.09-4,0-5.94.08-2.56-.18-5.11,0-7.66a2.76,2.76,0,0,0-1.82-2.83,6.68,6.68,0,0,0-1.47-.45,1.2,1.2,0,0,1-.85-.86.25.25,0,0,1,.19-.3h0a1.83,1.83,0,0,1,.6,0,18.45,18.45,0,0,0,3.09.08,41.82,41.82,0,0,0,4.48-.1,2.42,2.42,0,0,1,.86,0,.36.36,0,0,1,.27.3.38.38,0,0,1-.19.44,1.79,1.79,0,0,1-.56.21,4.19,4.19,0,0,0-1.69.8,4.33,4.33,0,0,0-1.4,2.12,4.71,4.71,0,0,0-.43,1.92,16.68,16.68,0,0,0,.1,3.18,2.44,2.44,0,0,1,0,.6c-.23,2.93-.1,5.86-.11,8.79,0,2,0,4,.06,5.95s.09,3.61.06,5.41a34.32,34.32,0,0,1-.06,3.52,1,1,0,0,0,.08.41,4.11,4.11,0,0,1-.18,2.36c0,.1-.15.15-.16.06-.06-.59-.6-.81-.92-1.19s-.34-.65,0-1c.1-.09.27-.19.17-.34s-.27-.06-.39,0A1.44,1.44,0,0,0,246,75c-.25.23-.37.1-.54-.12-.62-.82-1.33-1.57-2-2.39s-1.36-1.47-2.06-2.18-1.34-1.54-2-2.28a.45.45,0,0,1-.06-.63l.06-.06c.25-.28.05-.24-.16-.18a.85.85,0,0,1-.73-.31c-1-1-1.81-2.07-2.75-3.08a20,20,0,0,1-1.54-1.63c-.18-.22-.32-.47-.48-.71a2.59,2.59,0,0,0-1.11-1.16.56.56,0,0,1-.33-.27A3.8,3.8,0,0,0,231,58.43c-.95-.9-1.64-2-2.66-2.86a3.55,3.55,0,0,1-.5-.59c-.11-.13-.16-.32-.29-.42a34,34,0,0,1-2.75-3,5.2,5.2,0,0,1-1.28-1.8c-.08-.22-.14-.25-.36-.11s-.21-.12-.28-.22a8.75,8.75,0,0,0-1.57-1.8c-.22-.18-.4-.46-.73-.37s-.39.44-.4.77c0,1.49-.11,3-.13,4.48s0,3,0,4.48c-.09,2.35.12,4.68.1,7,0,.09.05.2,0,.25-.48.72,0,1.47-.05,2.2s0,1.61,0,2.41a17.28,17.28,0,0,0,.13,2.32c.16,1,.3,2,.47,3a2.06,2.06,0,0,0,1.57,1.56,13.23,13.23,0,0,1,2.05,1.07.29.29,0,0,1,.19.35.37.37,0,0,1-.32.25,1.31,1.31,0,0,1-.43,0c-1.86-.25-3.74,0-5.59-.2-.84-.08-1.64.13-2.45.08-.32,0-.78.11-.83-.38s.4-.47.74-.51c1.38-.13,1.94-1.22,2.54-2.22.35-.59.39-1.32.76-1.92a.55.55,0,0,0,0-.33,19.69,19.69,0,0,1,.11-5,.56.56,0,0,0,0-.26c-.49-1.23-.17-2.49-.16-3.74V57.19c0-2,.12-4.08.09-6.11,0-1.84,0-3.68-.15-5.51a2,2,0,0,0-.48-1.08,5.48,5.48,0,0,0-2.3-2,3.69,3.69,0,0,0-.89-.29,1.33,1.33,0,0,1-.42-.09c-.28-.14-.65-.27-.59-.64s.45-.26.71-.27A22.64,22.64,0,0,0,217.64,41.32Zm2.4,5.57c.28-.08.21-.34.25-.54s0-.2-.1-.19c-.27,0-.34.25-.34.48a.21.21,0,0,0,.15.25h0Zm-.36,1.51c0-.14-.06-.19-.15-.19a.14.14,0,0,0-.16.15.16.16,0,0,0,.3,0Zm.68,28c-.12,0-.23,0-.25.17s.06.16.15.16.23,0,.25-.17-.06-.16-.15-.22Zm10.69-19.8a.38.38,0,0,0-.11-.08.46.46,0,0,0-.3.07c-.08.07.07.08.11.08A.33.33,0,0,0,231.05,56.6Zm-7.9,20.49s.07-.08.07-.12-.06-.14-.15-.08a.15.15,0,0,0,0,.13l0,.07Zm-3.69-1.91s-.06-.09-.1-.1a.14.14,0,0,0-.11.07c0,.09,0,.14.13.13s0-.06.05-.1Zm3.21-30.83c0-.06-.07-.07-.12,0s0,.06,0,.06l.1.09Zm25.85-1.26s-.07-.09-.11-.09-.07.06-.11.09.07.09.11.08.08-.06.12-.09ZM237.26,59.82c0-.07,0-.08-.08,0s0,0,0,.06S237.24,59.83,237.26,59.82Zm.93,4.87ZM245.85,69h0Zm-30.8-27Z" style="fill:none"/></clipPath><clipPath id="clip-path-4" transform="translate(-0.25 -1.5)"><path d="M189.05,40.33a12.26,12.26,0,0,1,3.06.37,28.89,28.89,0,0,1,7,2.48,5.82,5.82,0,0,1,2.22,1.73,3.76,3.76,0,0,0,.66.68,11,11,0,0,1,2.38,2.81,2.19,2.19,0,0,1,.17,1c0,.22.56.12.74.46.44.82,1.08,1.57.88,2.61a.22.22,0,0,0,0,.16,6.38,6.38,0,0,1,1,3.39,18.54,18.54,0,0,1,.05,5.91,22.41,22.41,0,0,1-.91,3.58A13.11,13.11,0,0,1,204.67,69c-1,1.34-1.79,2.9-3.34,3.77a1.74,1.74,0,0,0-.51.57,8.35,8.35,0,0,1-1.36,1.32.86.86,0,0,1-1,.15c-.17-.07-.31-.13-.46.05a6,6,0,0,1-3.91,2,1.21,1.21,0,0,0-.34,0,13.41,13.41,0,0,1-4.58.56,6.91,6.91,0,0,0-1.2.07,1.25,1.25,0,0,1-.68,0,4.55,4.55,0,0,0-1.86-.26,7.66,7.66,0,0,1-2.49-.41,8.28,8.28,0,0,0-1.64-.44,2.84,2.84,0,0,1-1.65-.82c-.31-.32-.82-.36-1.21-.62a10.31,10.31,0,0,1-2.1-1.8c-.38-.44-.8-.87-1.21-1.3a13.8,13.8,0,0,1-2.84-4.55,1.09,1.09,0,0,0-.14-.32,7.16,7.16,0,0,1-1.31-4,21.81,21.81,0,0,1,0-6,31.12,31.12,0,0,1,1.21-4.85,12,12,0,0,1,2.56-4.53c.41-.44.76-.93,1.15-1.4a16.4,16.4,0,0,1,4.83-3.83,20.55,20.55,0,0,1,3.05-1.3c.49-.18,1.1-.06,1.59-.24C186.62,40.27,188.05,40.67,189.05,40.33Zm6.49,34.87h0a17.21,17.21,0,0,1,1.93-1.67,22.13,22.13,0,0,0,3-3.44,9.7,9.7,0,0,0,1.81-4.24,24.93,24.93,0,0,0,.76-5.61c-.07-2-.11-4-.28-5.93,0-.14,0-.34-.07-.41-.48-.41-.36-1-.48-1.51a4.14,4.14,0,0,0-.17-.75,19.26,19.26,0,0,0-.91-2,10.89,10.89,0,0,0-1.17-2.1c-.87-1-1.73-2-2.64-2.94a7.66,7.66,0,0,0-1.22-1.28c-.33-.22-.69-.11-1-.37-.81-.68-2-.58-2.85-1.15a20.11,20.11,0,0,1-3.07-.25,13.37,13.37,0,0,0-4.74.63l-.13-.09c-.06,0-.13-.1-.2,0a.08.08,0,0,0,0,.07l.21.07h.15l-.4.16a9.7,9.7,0,0,0-2.72,1.25c-.87.79-2.09,1.34-2.46,2.63,0,.13-.18.22-.26.34a24.22,24.22,0,0,0-2.15,3.77,11.29,11.29,0,0,0-.64,2.4,11.21,11.21,0,0,0-.61,2.94,29.31,29.31,0,0,1-.24,3.61,13.73,13.73,0,0,0,0,2.07,4.76,4.76,0,0,0,.07,1.51,31,31,0,0,1,1,3.91,9.9,9.9,0,0,0,1.25,2.81,10,10,0,0,0,1.23,1.77c.27.25.44.5-.08.67l-.16.08a.17.17,0,0,0-.14.19h0c0,.1.16.15.27.18a.2.2,0,0,0,.27-.09h0c.19-.4.42-.23.57,0a6.26,6.26,0,0,0,1.94,1.8,8.9,8.9,0,0,0,3.9,1.79,1.49,1.49,0,0,1,.33.1c1.58.56,3.24.31,4.85.48h.17c1.15-.27,2.31-.5,3.44-.82a10,10,0,0,1,1.65-.59Zm6.51-26.63c.14,0,.28,0,.24-.18s-.14-.09-.21-.1-.25,0-.21.18.14.08.18.11Zm-7.34-6.85a.22.22,0,0,0-.24.2h0a.14.14,0,0,0,.1.17h0a.24.24,0,0,0,.27-.25c0-.09-.08-.11-.16-.11ZM204.8,53.83c-.08,0-.19,0-.18.13s.11.12.2.12.18,0,.18-.13-.11-.11-.19-.11ZM202.55,71a.08.08,0,0,0,0-.11h-.16s0,.15.06.17A.21.21,0,0,0,202.55,71Zm3-18.92.09.08h0l-.09-.16Zm-4-2.66h.06v-.06c0-.06,0,0-.06,0Zm.67.53v0h.06Zm3.63,14.27c-.06,0-.06.07,0,.11h0s0-.14,0-.16Zm-9.8,11.59v-.05H196Zm-13.25.48c0-.07-.07-.07-.12,0s0,0,.05,0h.07Z" style="fill:none"/></clipPath><clipPath id="clip-path-5" transform="translate(-0.25 -1.5)"><path d="M57.05,41.16a32.78,32.78,0,0,1,3.43.75,2,2,0,0,0,2.08-.51c.31-.36.82-.19,1,.3.37.9.72,1.8,1,2.72a16.46,16.46,0,0,0,1.35,2.85c.15.25.28.5.41.75a.21.21,0,0,1,0,.29h0a.32.32,0,0,1-.33,0,.51.51,0,0,1-.34-.28c-.13-.58-.72-.9-.82-1.49a.2.2,0,0,0-.33-.15.45.45,0,0,1-.63,0h0c-.27-.23-.6-.53-.51-.84.15-.53-.19-.51-.47-.58a1.27,1.27,0,0,1-.43,0,.32.32,0,0,1-.3-.36c.16-.62-.23-.61-.63-.55s-.58.07-.47-.41c.06-.28-.2-.29-.4-.33a9.5,9.5,0,0,1-3.06-.84c-.1-.06-.29-.06-.31-.12-.22-1.12-1.08-.62-1.53-.45a2.22,2.22,0,0,1-1.88,0,2.9,2.9,0,0,0-1.62-.13,25.82,25.82,0,0,1-2.92.11,2.17,2.17,0,0,0-1.29.24,1.28,1.28,0,0,1-1.37.2c-.28-.14-.43.06-.49.31a.76.76,0,0,1-.55.6,3.54,3.54,0,0,0-1.55,1h0a.47.47,0,0,0-.56-.29,1.88,1.88,0,0,1-.68,0c-.18,0-.37,0-.43.19s.1.31.26.38a.32.32,0,0,1,.18.48c-.14.22-.32.13-.48,0a.23.23,0,0,0-.32,0h0c-.14.12-.1.26,0,.38.26.32.1.56-.11.84A19.5,19.5,0,0,0,39.33,51c-.15.4-.21.84-.35,1.24a21.46,21.46,0,0,0-1.1,7.37,18.86,18.86,0,0,0,.92,5.15,23.88,23.88,0,0,0,1.66,3.74v.08c.84.69,1.28,1.76,2.2,2.38.41.28.81.55.88,1.1h-.17c-.08,0-.16,0-.19.13a.08.08,0,0,0,0,.07.17.17,0,0,0,.21-.09l.09-.14a5.58,5.58,0,0,1,1.83,1.26,15,15,0,0,0,3.53,2,2.13,2.13,0,0,0,.71.12,3.11,3.11,0,0,1,.6,0,12.55,12.55,0,0,0,5.27.36,11.86,11.86,0,0,0,1.37,0,22.73,22.73,0,0,0,4.69-1.35A15.25,15.25,0,0,0,64.12,73a.93.93,0,0,1,1.12,0c.27.16.37.06.26-.25-.21-.58,0-.94.54-1.29a40.81,40.81,0,0,0,3.16-3c.18-.16.23-.46.37-.68s.26-.33.49-.17.39.29.23.56c-.31.52-.67,1-.95,1.54-.11.23-.35.08-.54,0s-.29-.07-.37.1,0,.22.14.28c.36.19.22.4,0,.62s-.48.57-.74.84c-1.55,1.58-2.91,3.38-5,4.38a2.66,2.66,0,0,1-1.47.38h.06a1.17,1.17,0,0,1-1,.48h-.16c-.7.83-1.78.4-2.64.78a4.49,4.49,0,0,1-2.21.11h.06a3.72,3.72,0,0,1-2.69,0,1,1,0,0,0-.81,0,.91.91,0,0,1-.5.09,7.41,7.41,0,0,1-3.22-.61c-.33-.2-.82-.05-1.21-.25-.18-.09-.37-.13-.44-.35s-.1-.31-.26-.31,0,.22-.13.31-.21,0-.3,0L44.4,76a6.56,6.56,0,0,0-1.57-.65.76.76,0,0,1-.71-.75c0-.3-.18-.35-.48-.25-.47.16-.79-.26-1.19-.4s-.77-.31-.7-.84c0-.18-.14-.21-.26-.28a14,14,0,0,1-4.38-5A11.41,11.41,0,0,1,34.19,65a.28.28,0,0,1,.1-.31c.21-.2.11-.33-.07-.48a1.94,1.94,0,0,1-.72-1.57,26.51,26.51,0,0,0-.29-2.91,1.9,1.9,0,0,1,0-.51c.29-1.66.48-3.35.94-5a12,12,0,0,1,1.9-4.32,2.13,2.13,0,0,0,.22-.46,10.1,10.1,0,0,1,2.09-2.89,5.17,5.17,0,0,0,.55-.55,10.7,10.7,0,0,1,3.57-3q.86-.49,1.73-.94a15.82,15.82,0,0,1,2.07-.76,21.43,21.43,0,0,1,5.09-.68,17.15,17.15,0,0,1,4.36.26,2.58,2.58,0,0,0,.86.06.55.55,0,0,1,.57.29ZM37.68,69.64h-.17a.18.18,0,0,0-.2.21.16.16,0,0,0,.11.1.23.23,0,0,0,.23-.19,1.34,1.34,0,0,0,0-.16Zm-.92-9.54a.88.88,0,0,0-.06-.16,2,2,0,0,0-1.3-.5.18.18,0,0,0-.06.33,6.34,6.34,0,0,0,.88.64.36.36,0,0,0,.54-.3Zm.91-8.35a.15.15,0,0,0-.14.16h0a.32.32,0,0,0,.26.31A.17.17,0,0,0,38,52,.29.29,0,0,0,37.67,51.75ZM35.92,54.4a.14.14,0,0,0-.15.17.22.22,0,0,0,.25.19h0a.14.14,0,0,0,.15-.16.22.22,0,0,0-.24-.2h0ZM58.27,42.14a.15.15,0,0,0,.15-.15v0a.18.18,0,0,0-.18-.18h0a.17.17,0,0,0-.15.17C58.05,42.12,58.15,42.15,58.27,42.14ZM35.05,61c-.09,0-.16,0-.16.12a.17.17,0,0,0,.07.13.12.12,0,0,0,.17,0h0C35.15,61.08,35.05,61,35.05,61Zm0,4.56c0-.08,0-.15-.14-.14s-.07.08-.07.12,0,.16.14.14.06-.08.08-.12Zm1.85-3.06-.08.1h0l.12-.06Zm.43-4.76s-.06-.1-.1-.11a.16.16,0,0,0-.15,0s.06.1.1.11a.18.18,0,0,0,.17-.06Zm3.44,12.12h0v-.05h0Zm9.6,7.28h-.08s-.09.06,0,.09a.09.09,0,0,0,.08,0,.56.56,0,0,0,0-.1Zm-6.82-3.29h-.13v.06l.1.09Zm-8.43-18.7-.11.07h0l.11-.07ZM61.87,42.86h0s-.11,0-.08.07S61.84,42.85,61.87,42.86ZM35.66,61c0-.06,0-.08-.08,0s0,0,0,.06ZM40.78,46.4h.06c.06,0,0,0,0-.06s0,0-.06,0S40.77,46.4,40.78,46.4ZM37.48,69h0Zm24.33,6.75c0-.05-.06-.06-.1,0h.1ZM39.92,47.4v.06H40Z" style="fill:none"/></clipPath></defs><title>logo-two</title><g id="Border"><path id="Border-2" data-name="Border" d="M1.05,56.21c0-1.67-.14-3.34-.09-5C1.05,47.79.48,44.39.76,41a6.57,6.57,0,0,0,0-2.71c-.15-.45.19-.86.15-1.34C.69,34.27.7,31.62.41,29a82.55,82.55,0,0,1-.06-9.27c0-2.27.12-4.54.15-6.82,0-.91.67-1.3,1.74-1.42a32.3,32.3,0,0,1,4.58.13c.75,0,1-.24.92-.88-.19-1.22-.19-2.44-.39-3.65-.23-1.62.35-2.07,2.27-2,1.71,0,3.36.41,5,.54a11,11,0,0,0,2.33-.14,57.2,57.2,0,0,1,8.18-.18c1.94,0,3.88-.12,5.82-.19,3.09-.11,6.15.26,9.23.26,2.44,0,4.89-.15,7.34-.24L53.43,5c1.68-.07,3.35-.22,5-.2,1.87,0,3.7-.44,5.55-.4a15.42,15.42,0,0,0,2.41,0,33,33,0,0,1,4.45-.23c3-.08,6-.2,9,0,4.27.26,8.55.53,12.83.65,3.36.1,6.72.27,10.1.24h9.08c3.56.07,7.13-.2,10.69-.17h4c3.49,0,7,0,10.47-.17,2.31-.14,4.64-.07,7-.15s4.35-.31,6.54-.34c2.62,0,5.25.06,7.87,0,1.67-.07,3.32,0,5,.06A10.19,10.19,0,0,0,165.17,4c1.74-.25,3.49,0,5.24-.13q4.13-.2,8.27-.21c3.12,0,6.23-.29,9.35-.33q4.32,0,8.61-.41c1.16-.1,2.34-.15,3.48-.28,3.46-.41,6.9.19,10.33,0,3.1-.13,6.1.52,9.17.52,3.75,0,7.5.09,11.26-.19,2.22-.16,4.48-.23,6.72-.32.82,0,1.62-.24,2.44-.29,2.9-.19,5.81-.22,8.69-.56,2.57-.3,5.09.12,7.62,0,1.83-.12,3.65.07,5.49-.16a21.84,21.84,0,0,1,4.92.08,56.79,56.79,0,0,0,6.12,0c1.53,0,3.07-.08,4.6-.12.69,0,1.22.3,1.28.85a7.16,7.16,0,0,0,1.64,3.45,18.71,18.71,0,0,0,5.29,5.3,26.55,26.55,0,0,0,3.2,1.62,17.54,17.54,0,0,0,3.29.8c.92.2.93.63.66,1.17-1,2-.81,4-.89,6v2.51c-.12,3,0,5.89-.2,8.84-.14,2.58-.33,5.16-.28,7.74q.11,5.45,0,10.89c0,2.68,0,5.36.09,8s.31,5.06.36,7.58a52.53,52.53,0,0,1-.2,6.32c-.21,2,.18,4,0,6s.19,3.91,0,5.89c-.15,1.22-.16,2.48-.2,3.72-.06,2.48-.29,5-.4,7.44a14.11,14.11,0,0,0,0,4.18c.2.8-.93,1.73-2.28,1.4-1.93-.47-3.8.08-5.68.29-.52.06-.42.44-.41.7,0,1.05.13,2.1.19,3.15v1.29c0,.43-.34.7-.85.84a9.81,9.81,0,0,1-3.28.07c-4.11-.21-8.22,0-12.32,0a76.2,76.2,0,0,0-9.59.44c-1.65.18-3.32.1-5,.22-1.84.13-3.69.27-5.54.33-3.16.1-6.3.33-9.47.31-2.7,0-5.4.21-8.11.26-5.6.1-11.19,0-16.78,0-4.52,0-9-.14-13.56-.23-3.58-.07-7.16,0-10.73.06-3.74,0-7.47.07-11.21.08-5,0-9.93.05-14.89,0H151.12c-3.23-.06-6.46.14-9.69.22-1.19,0-2.39.06-3.58.05q-4.9,0-9.8-.08c-5.68-.06-11.36-.1-17-.23l-8-.18c-2.21,0-4.46.05-6.68,0-3.26-.05-6.52-.28-9.78-.38-3.48-.11-7,0-10.45-.1-5.1-.16-10.19.28-15.3.07a61.42,61.42,0,0,0-8.7.36c-2.73.28-5.49.34-8.26.37-3,0-6.09.07-9.13.2-3.48.15-7,.22-10.45.39-2.48.12-4.94.38-7.42.53-1.75.11-1.8,0-2.29-1.26a15.83,15.83,0,0,0-6-8C7,100,5.41,99.14,3.76,98.28a9.84,9.84,0,0,0-2.4-.64c-.77-.2-1.17-.6-1-1.28a19.88,19.88,0,0,0,.18-4.51C.47,89.9.54,88,.56,86c0-2.75.36-5.49.54-8.23s.14-5.55.25-8.32a93.65,93.65,0,0,0,0-9.77C1.32,58.57,1.05,57.4,1.05,56.21Zm230.16,48.71s-.16,0,0,.11,0-.09,0-.13ZM44.34,6.29c-.39.16-1,.09-1,.7a33.34,33.34,0,0,0,.4,3.76c.06.51.52.23.8.27s.44,0,.41-.35q-.14-1.84-.2-3.69a.73.73,0,0,0-.49-.71Zm2.91,2.64a4,4,0,0,0,.47,1.86c.06.13.27.06.43,0a1.19,1.19,0,0,0,.9-1.39c-.09-.77-.2-1.55-.26-2.32,0-.44-.1-.84-.76-.8s-.67.49-.67.9A6.6,6.6,0,0,1,47.29,9Zm129-2.06V5.49c0-.46-.08-.6-.6-.62s-.69.06-.74.49A13.43,13.43,0,0,0,174.78,9a.72.72,0,0,0,.74.7h.1c.58,0,.62-.41.64-.75v-2Zm-97.78.88a4.67,4.67,0,0,0,.08-1.91c-.09-.52-.47-.7-1.07-.67s-.57.43-.63.81a13.86,13.86,0,0,0,.33,3.64c0,.42.46.28.73.32s.66.09.58-.19c-.21-.68.34-1.33,0-2h0Zm83.59,1c.36.12.26.42.28.63,0,.43.21.62.76.59s.85-.14.85-.64a20.29,20.29,0,0,1,.19-3.3c0-.26.05-.55-.33-.69-.78-.28-2,.38-1.72,1a5,5,0,0,1,0,2.38A.72.72,0,0,1,161.6,8a10.72,10.72,0,0,1,.08-2.18.45.45,0,0,0-.24-.59h-.06a.66.66,0,0,0-.83.2,1.64,1.64,0,0,0-.35.66,7.8,7.8,0,0,0,0,3.38c.14.51.39.54.87.57s.65-.27.74-.64c0-.2-.26-.57.26-.6Zm16.87-1.91c-.45-.39-.22-.93-.4-1.38s-.27-.81-.9-.76-.58.48-.62.86a8.1,8.1,0,0,0,0,3.28c.1.33-.17.84.54.82s1.05-.16,1.05-.84a14.42,14.42,0,0,1,.28-2Zm-50.58,98.64c.27-.09.44,0,.45.23v1.86c0,.21-.49.57.11.56.37,0,1.14.21,1.15-.5a8.39,8.39,0,0,0-.44-3.79c-.13-.29-.22-.62-.66-.54s-.39.5-.37.8c0,.48.17,1-.24,1.39-.06-.59-.12-1.18-.19-1.77s-.47-.59-1-.55-.67.27-.66.69a21.41,21.41,0,0,0,.05,3.54c.07.42.18.65.71.66s.77-.12.9-.61C128.36,106.8,128.16,106.13,128.35,105.48Zm79.26-.48v-.06h0c.41.49.23,1,.17,1.57a2.58,2.58,0,0,0,.09,1c.18.65.78.39,1.23.42s.74-.11.75-.54q0-1.73.08-3.46c0-.34-.23-.5-.59-.49-.72,0-1.5-.06-1.48.89a1.74,1.74,0,0,1-.25.7Zm-21.56.61c.58.53.15,1.12.12,1.69,0,.18-.19.37,0,.53.43.29,1.87-.12,2-.6a12.59,12.59,0,0,0,.34-3.22c0-.88-.3-1-1.51-.87-.85.08-.72.59-.71,1.08s.37,1-.27,1.42a1.07,1.07,0,0,1-.3-.82,4.64,4.64,0,0,0-.08-1.13c-.14-.84-.93-.53-1.49-.59s-.62.25-.69.66a28.35,28.35,0,0,0-.17,3.62c0,.31.16.42.5.46,1.27.15,1.7-.18,1.8-1.4C185.62,106.12,185.43,105.71,186.05,105.61Zm-43.13-1.84c-.64-.7-1.55-.47-2.39-.51-.66,0-.81.19-.64.74a10.81,10.81,0,0,1,.67,2.91c0,1.08.2,1.18,1.45,1.13.47,0,.57-.15.7-.53.41-1.25-.06-2.52.2-3.75a1,1,0,0,1,.31.58c.11,1.07.24,2.14.31,3.21,0,.24,0,.42.29.48,1.18.22,1.76-.21,1.66-1.25a11.17,11.17,0,0,1-.17-2.18c0-.45.13-1-.53-1.16S143.41,103.14,142.92,103.77Zm120.54-.37a10.2,10.2,0,0,1,.16,2.34c0,.29-.12.72.52.68s.83-.22.81-.71,0-1.18-.06-1.77c0-.19-.17-.5.19-.52s.26.3.34.5c.26.66-.09,1.35.22,2s.59.37,1,.39.68-.16.67-.52a26.56,26.56,0,0,0-.17-3.07c-.06-.51-.41-.81-1.13-.65-.45.1-.5.48-.77.62-.49.25-.24-.62-.83-.5s-.94.16-.94.71v.48a2.18,2.18,0,0,1-.53-.66c-.27-.74-1-.39-1.52-.39s-.54.35-.57.74a12.47,12.47,0,0,0,.32,2.81c.07.47.48.64,1,.58s.84-.16.79-.72a10.51,10.51,0,0,1,.09-1.71C263.05,103.78,263,103.4,263.46,103.4ZM197.63,6.58a3.64,3.64,0,0,1-.43-1.88.77.77,0,0,0-.8-.73h-.2c-.56.08-1.35,0-1.4.66a17.77,17.77,0,0,0,.09,3.64c.12.91.85.68,1.54.67s.79-.42.83-.92-.24-1.1.4-1.5c.13.66.27,1.32.37,2,0,.25.05.41.42.37a8.32,8.32,0,0,1,1,0c.6,0,.79-.2.82-.79.06-1.13-.05-2.26.07-3.38,0-.43.1-.76-.33-1a2.69,2.69,0,0,0-1.9,0c-.44.11-.28.51-.3.84C197.81,5.21,198.2,5.93,197.63,6.58Zm-6.37,1a.88.88,0,0,1,.23.77c-.2.79.22.93,1,.82a3.43,3.43,0,0,1,.75,0c.73.06,1.07-.24,1-.85-.07-1.21-.15-2.42-.27-3.63,0-.4-.38-.6-.85-.58a4.87,4.87,0,0,1-.84.07c-.72-.1-.85.22-.86.74,0,.89-.11,1.78-.17,2.66h0ZM162.82,11h.07a1.24,1.24,0,0,1-.72.16,30.06,30.06,0,0,0-4.6.11c-4.6.31-9.21.11-13.82.13-2,0-4.07-.17-6.11-.1-1.75.06-3.5.1-5.25.07-2.61,0-5.22-.12-7.83-.23-2.23-.09-4.47.19-6.67,0-3-.24-6,0-9,.05-3.44,0-6.89.24-10.33.16-3.75-.09-7.49-.29-11.25-.12-2.71.13-5.39-.21-8.09-.19s-5.33,0-8,.1c-2.48.1-5,0-7.43,0-1.46,0-3-.18-4.4-.1-3.94.21-7.88.42-11.8.88-1.88.22-3.81.15-5.7.32-2.78.25-5.57.31-8.36.31-4.89,0-9.78-.15-14.67.13-3,.17-5.93.42-8.9.34-.83,0-1,.22-1,.88a54.16,54.16,0,0,1,.09,5.82c.06,2.94-.52,5.87-.32,8.82.14,2.08.12,4.16.32,6.23a23.28,23.28,0,0,1,.15,3.39c-.11,2.33-.09,4.65,0,7,.12,2.73.32,5.46.22,8.2a41.51,41.51,0,0,0,0,6.48A24.9,24.9,0,0,1,9.55,64c-.15,3,.09,6.06-.14,9.1-.17,2.24,0,4.5-.11,6.74a108.67,108.67,0,0,0,.18,11.56.93.93,0,0,0,.51.9,21.83,21.83,0,0,1,4.06,2.79,23.52,23.52,0,0,1,4.33,4.54c.77.94,1.42,2,2.27,2.86a.92.92,0,0,0,.76.39c1.28,0,2.57.07,3.86,0,3.68-.16,7.35-.45,11-.53,2.64-.06,5.24-.35,7.86-.5,2.22-.12,4.42-.48,6.65-.44,1.71,0,3.41-.18,5.12-.21,2.92,0,5.82-.48,8.78-.31a65.65,65.65,0,0,0,7.86,0c2.41-.15,4.81.26,7.22.11,1-.06,2,.11,3,.14,1.86.05,3.74-.14,5.59,0,3.4.18,6.79.24,10.19.23,2.23,0,4.47.08,6.69-.05s4.68-.15,7-.17c1.63,0,3.25.3,4.87.32,1.24,0,2.5,0,3.73.12a23.85,23.85,0,0,1,3.66.15c1.06.25,2.25.1,3.36.25a35.84,35.84,0,0,0,6.39.12c2.16-.1,4.33-.07,6.48-.07,4,0,7.92.12,11.88.14,2.84,0,5.68-.17,8.53-.08,4,.12,8.05-.15,12.08-.19h7c3.43,0,6.87-.24,10.31,0,1.61.12,3.25,0,4.86.06,3.56.19,7.12.33,10.7.27a19.5,19.5,0,0,1,3.36-.09,21.77,21.77,0,0,0,4.34.13c2.46-.1,4.93-.11,7.39-.27,1.62-.1,3.24,0,4.87,0,3.59-.11,7.2,0,10.8-.11,4-.13,8.06.3,12.09-.12,2.48-.26,5-.37,7.46-.46,2.28-.07,4.55-.31,6.82-.43,1.85-.1,3.79-.59,5.63.15a.39.39,0,0,0,.27,0,3.66,3.66,0,0,1,1.75-.15c2-.05,4,.13,6-.11.86-.1,1.73-.22,2.6-.25,1.37,0,1.55-.2,1.57-1.4,0-1.94.11-3.88.13-5.82a22.52,22.52,0,0,1-.09-3.1c.32-2.15,0-4.29.13-6.43.19-2.65,0-5.32.18-8s.6-5.59.63-8.4c0-.53.28-1.12.22-1.48a19.26,19.26,0,0,1,.11-4c0-1.16.29-2.33.24-3.48a38.5,38.5,0,0,1,.22-5.34c.16-1.59,0-3.17.12-4.75.17-2.32-.52-4.64,0-7a45.5,45.5,0,0,0,.62-5,13.07,13.07,0,0,0,.29-2.32,23.48,23.48,0,0,1,.14-4.7c.23-1.56.08-3.11.19-4.67a14.68,14.68,0,0,0-.31-4.43,1.1,1.1,0,0,0-.7-.87,15.68,15.68,0,0,1-5.61-3.8c-.73-.87-1.31-1.81-2.09-2.64a12.41,12.41,0,0,1-2.76-4.53c-.17-.51-.53-.7-1.18-.67-1.9.08-3.82,0-5.71.18a44.16,44.16,0,0,1-4.59-.07,33,33,0,0,1-3.37,0c-1.37-.17-2.76,0-4.13-.1-4.48-.21-8.93.6-13.41.4-1.68-.08-3.39.14-5.08.16-2.54,0-5.08-.06-7.62,0a62,62,0,0,0-7.68.49c-3.53.55-7.14.31-10.63,1.1a1.31,1.31,0,0,1-.65,0,7.61,7.61,0,0,0-2.89-.06c-.34,0-.69.05-1,.05-1.79,0-3.58-.08-5.36,0-4.83.17-9.65.48-14.47.76-1.21.07-2.43.12-3.66.09-1.87,0-3.74-.14-5.61-.12-2.28,0-4.54.42-6.84.28a17.59,17.59,0,0,0-3.57,0A4.63,4.63,0,0,1,162.82,11ZM46.29,108a18.91,18.91,0,0,0,3.23-.21c.59-.08.67-.32.58-.71-.26-1.21.07-2.47-.41-3.66,0-.12-.07-.29.16-.31a.27.27,0,0,1,.29.25h0a2.88,2.88,0,0,1,0,.48,19.86,19.86,0,0,0,.45,3.3c.07.43.28.65.89.54a21.92,21.92,0,0,1,2.34-.23c1.15-.08,1.48-.3,1.5-1.24s-.07-1.78-.11-2.67-.47-1.2-1.47-1.08a14.23,14.23,0,0,1-1.6,0c-3.08.08-6.13.44-9.2.63q-5.73.35-11.47.61c-3.37.16-6.72.74-10.11.53a.57.57,0,0,0-.35.07c-.56.46-.86,0-1.13-.27a7.33,7.33,0,0,1-.55-.93,33.77,33.77,0,0,0-4.59-5.59,17.59,17.59,0,0,0-5.46-4A1.8,1.8,0,0,1,8,91.5a7.75,7.75,0,0,0,.1-2.1c-.23-2.34-.08-4.69-.1-7,0-1.86.37-3.73.23-5.57-.19-2.6.36-5.18.07-7.78-.14-1.3.12-2.62,0-3.94-.2-2.15-.2-4.3-.2-6.45s0-4.48.07-6.72A32.92,32.92,0,0,0,8.05,47c-.23-1.58-.13-3.16-.21-4.73-.09-1.94.08-3.89,0-5.85-.14-2.71-.26-5.36-.26-8.06V23.87a92.66,92.66,0,0,0,0-10c0-.57-.31-.8-.88-.8-.91,0-1.8-.15-2.71-.16-2,0-2-.07-2.1,1.67v.08c-.52,3.58-.27,7.18-.45,10.77a48.36,48.36,0,0,0,.37,6.2c.14,1.81,0,3.65.14,5.46.1,2.16-.2,4.32.1,6.46a21.89,21.89,0,0,1,0,2.43c.18,1.58.18,3.17.25,4.76.1,2.56.13,5.11.31,7.67a53.83,53.83,0,0,1,.16,6.23c-.1,2-.1,4-.2,6v4.71c0,2-.3,4.08-.42,6.12a97.84,97.84,0,0,0-.27,12.81c.07,1,.26,2,1.46,2.35A13.19,13.19,0,0,1,6,97.78c.62.36,1.25.7,1.86,1.07a15,15,0,0,1,3.43,2.47A24.06,24.06,0,0,1,15.6,108a2,2,0,0,0,2.45,1.13,7.82,7.82,0,0,1,2.32-.19c.57,0,1.07-.11,1.13-.72,0-.18-.36-.44,0-.52s.5.23.56.47a.71.71,0,0,0,.81.57c1.84-.12,3.68-.18,5.52-.25.68,0,1.21-.1.59-.81-.13-.15-.24-.37,0-.49s.32.13.38.26c.47,1,1.42,1,2.48,1a40.25,40.25,0,0,1,5.34-.2c.61,0,.64-.35.6-.72a15,15,0,0,0-.21-1.62c0-.17-.06-.43.27-.42s.28.2.29.37a7.1,7.1,0,0,1,.07,1.61c-.12.72.29.82.94.81h3.91c1.13,0,1.29-.08.94-1a6,6,0,0,1-.3-2.09c0-.15-.1-.45.22-.44s.09.28.11.43c0,.35.07.7.1,1.05.22,1.73.35,1.83,2.14,1.86ZM282.45,90.65c0,1.92.09,3.84.12,5.76v2.92c0,1,.21,1,1.15.7a5,5,0,0,1,2.31-.29c.78.09,1.56,0,2.34.15.54.07.76,0,.83-.57.18-1.42.23-2.86.38-4.28.29-2.68.3-5.39.39-8.09,0-.65.29-1.27.27-1.93-.09-2.8-.22-5.59-.13-8.39,0-1.5.16-3,.11-4.5-.08-2.53.28-5,0-7.59-.22-2.26,0-4.54-.3-6.82s.08-4.78,0-7.17c-.08-3.08,0-6.16-.06-9.24a48.13,48.13,0,0,1,.19-6c.13-1.47.08-3,.14-4.43a21.66,21.66,0,0,0,.17-2.83c-.14-1.54,0-3.08-.06-4.61a58.43,58.43,0,0,1,.36-7.37,1.35,1.35,0,0,0-.17-.7c-.39-.88-1.46-.9-2.21-1.3a30.93,30.93,0,0,1-3.23-1.47,20.47,20.47,0,0,1-5-4.82,12.13,12.13,0,0,1-2.4-4.15c-.14-.62-.39-.77-1-.79-2.1-.07-4.2,0-6.3.08-.81,0-1.35.22-1.31,1,0,.14,0,.31-.22.32s-.22-.17-.25-.29a.69.69,0,0,1-.06-.39c.18-.5-.1-.62-.6-.65-1.2-.08-2.41-.14-3.6-.29-.79-.1-1.07.22-1.21.79a6.45,6.45,0,0,1-.2.71c0,.15.07.42-.13.42s-.14-.26-.15-.42a2,2,0,0,1,0-.41c.14-.76-.26-.94-1.11-1-1.85-.06-3.69,0-5.54.1-.7,0-1,.32-1,.86a12.22,12.22,0,0,1-.16,2.42c-.06.3,0,.41.42.45a48.5,48.5,0,0,0,5.77.23c1.65,0,3.3-.17,5-.1a26.12,26.12,0,0,0,2.7-.07c1.18-.07,2.36-.17,3.53-.17.66,0,1.23.14,1.44,1a15.54,15.54,0,0,0,2.66,4.68A23.34,23.34,0,0,0,279,15a9.79,9.79,0,0,0,3.78,2.62,10.41,10.41,0,0,1,2.4.78c.37.24,1.18.36.29.92-.23.14-.1.4-.06.61a14.57,14.57,0,0,1,.29,3.78c-.29,2.84-.14,5.7-.39,8.56s-.4,5.92-.85,8.87a10.81,10.81,0,0,0-.27,3.47,24,24,0,0,1,.24,4.67c-.06,2.37-.22,4.73-.28,7.11-.1,4.2-.45,8.4-.64,12.6-.16,3.56-.57,7.1-.63,10.67S282.72,87,282.45,90.65Zm-33.81-86h0q0-.52,0-1c0-.39-.14-.76-.78-.67a30.76,30.76,0,0,1-5.42.25c-.74,0-1,.28-1,.87a18.27,18.27,0,0,1-.12,2.09c-.11.75.27.93,1,.89,2.48-.13,5-.19,7.44-.35,1.28-.08,2.54,0,3.81,0,.38,0,.75,0,.78-.42a10.4,10.4,0,0,0,.14-2.58c-.1-.58-.45-.82-1.1-.91a15.7,15.7,0,0,0-3.18,0c-.65,0-.81.27-.86.81-.07.78,0,1.55,0,2.33,0,.14-.06.37-.29.37s-.27-.21-.28-.36a4.29,4.29,0,0,1-.14-1.25ZM216.3,6a9.55,9.55,0,0,1-.08,1.39c0,.2,0,.51-.32.48s-.35-.29-.35-.48c0-.92,0-1.84-.06-2.75,0-.3,0-.6-.52-.64a5.25,5.25,0,0,0-2.29,0,.35.35,0,0,0-.07.14A14.79,14.79,0,0,0,212.45,8c.08.43.36.65,1,.66,2.08,0,4-.66,6.08-.78a.52.52,0,0,0,.53-.48,9.35,9.35,0,0,0,.19-1.2c.1-1.81.09-1.8-2-1.94S216.2,3.74,216.3,6ZM65.23,104.72h-.08a8.89,8.89,0,0,0,0-1.37c-.06-.48,0-1.09-.87-1.12l-3.36-.12c-.49,0-.64.17-.66.58a17.48,17.48,0,0,0,.06,2.6c.2,1.93.14,1.94,2.32,2.1,1.77.13,2.59-.52,2.58-2A5.06,5.06,0,0,0,65.23,104.72Zm20.3,1c0,.66-.19,1.19.11,1.52s2,0,2.08-.64c.05-1.05.59-2.05.44-3.12,0-.17-.13-.53.22-.52a.43.43,0,0,1,.34.58,14.4,14.4,0,0,0-.22,2.66c-.16,1.22-.19,1.2,1.22,1.23.68,0,1-.16,1-.79V103c0-.49-.16-.63-.63-.65l-4.51-.1c-.23,0-.51,0-.36.31.54,1.13,0,2.3.33,3.19Zm21-1.13c.06.89.11,1.72.19,2.55.06.54.53.73,1.07.7s.56-.47.49-.86a1.81,1.81,0,0,1-.08-.64c.08-.37-.37-.78.1-1.12.11.35.24.7.33,1.05s.4,1,0,1.46c.56.22,1.16-.18,1.72.08a.69.69,0,0,0,.28,0c.55,0,.87-.16.74-.75A15.57,15.57,0,0,1,111,103c0-.27,0-.57-.46-.58a6,6,0,0,0-2.37.07c-.53.27-.07,1.09.11,1.65a.38.38,0,0,1,0,.08c0,.19.06.44-.22.46s-.13-.25-.18-.39c-.2-.53.09-1.14-.43-1.62a1,1,0,0,0-.93-.21c-.43.09-.23.41-.16.61a11.67,11.67,0,0,1,.21,1.59Zm10.5.58h0c.06.7.15,1.4.18,2.1,0,.41.12.75.67.66s1.53.34,1.62-.65c.06-.62,0-1.24,0-1.86a11.94,11.94,0,0,1,.07-1.62.29.29,0,0,1,.3-.26c.15,0,.15.15.15.25a29.77,29.77,0,0,0,.21,3.48c0,.26-.33.66.29.63.44,0,1.11.3,1.22-.49a11.37,11.37,0,0,0-.3-3.94c-.06-.29.18-.76-.34-.83s-1-.16-1.29.39c-.08.17-.31.28-.41.06-.38-.83-1.19-.49-1.85-.54-.5,0-.65.14-.62.57a19.12,19.12,0,0,1,.1,2.1Zm-59.24-2.9v.13H56.2c-.57,0-.79.16-.72.75.15,1.29.67,2.54.46,3.86,0,.32.22.39.55.38a16.49,16.49,0,0,1,2.34,0c.75.08,1-.19,1-.73V104c0-.54.17-1.19-.12-1.57s-1.15.05-1.75-.07ZM240.74,5a2.54,2.54,0,0,0-.11-1.17.62.62,0,0,0-.77-.42h0a23.59,23.59,0,0,1-3.54.25c-.72,0-1.36.19-1.42,1s-.2,1.34-.25,2c0,.42.18.77.78.68,1.35-.21,2.72-.19,4.08-.3a1,1,0,0,0,.95-.63A2.37,2.37,0,0,0,240.74,5ZM73.85,105.78h.06c-.05-.4-.08-.81-.16-1.2-.59-2.68-.25-2.29-3.2-2.31-.72,0-.88.26-.79.78.12.72.23,1.45.35,2.17s0,1.55.43,2,1.55,0,2.35.12H73c.58,0,.89-.2.88-.72C73.86,106.32,73.86,106,73.85,105.78Zm-6.69-3.57a3.53,3.53,0,0,1-.49,0c-1-.06-1.24.29-1,1.1a20,20,0,0,1,.38,2.32c.1.55-.28,1.34.22,1.62a4.41,4.41,0,0,0,2.12,0c.84-.05,1.17-.45,1.12-1.12s-.22-1.44-.23-2.16C69.25,102.24,69.27,102.24,67.16,102.21ZM204.55,5.85a20.12,20.12,0,0,1-.11,2.47c0,.43.09.62.63.51a4.74,4.74,0,0,1,1.86-.07c1,.2,1.06-.19,1-.85V4.76c0-1,0-1.21-1.3-1.14C204.49,3.75,204.49,3.75,204.55,5.85Zm-109.5,98c-.05-.46-.22-.88.26-.91s.22.44.25.67c.18,1.2.31,2.41.45,3.61a.43.43,0,0,0,.35.41c1.1.34,1.91-.16,1.64-1.1a19.59,19.59,0,0,1-.29-2.47c-.27-1.43-.2-1.44-1.88-1.6-2.11-.21-2.13-.19-2,1.6a12.48,12.48,0,0,1,.14,2.81c0,.25-.17.51.09.66a1.21,1.21,0,0,0,1,.07c.34-.14.28-.45.23-.72-.2-1,.15-2.12-.25-3ZM208.55,6h0v.89c.08,2,.19,2.1,2.45,1.82h.05c.46-.07.74-.3.75-.71,0-1.21,0-2.42.06-3.64,0-.44-.31-.62-.77-.65-2.48-.18-2.58-.09-2.58,2.13ZM76.11,7.61h0V5.82c0-.6-.34-.64-.84-.65s-.49.4-.5.69a15.93,15.93,0,0,0,.06,3.08c0,.21.08.53-.35.56S74,9.25,74,9s.07-.74.1-1.11a5.1,5.1,0,0,0,0-2.16c-.2-.56-.65-.58-1.16-.61s-.59.29-.7.67c-.36,1.3.21,2.6-.12,3.89-.06.25.18.31.42.32,1,0,2,.06,3,.06.43,0,.71-.15.67-.6S76.12,8.2,76.11,7.61ZM81.55,8.7a1.83,1.83,0,0,1,0,.57c-.25.68.24.81.83.84s.75-.31.68-.8a4.32,4.32,0,0,1,.07-1c0-.17-.09-.43.25-.42a.43.43,0,0,1,.46.4h0V9.7c0,.65.65.43,1.07.48s.65.21.72-.25a18.35,18.35,0,0,0-.12-4c0-.59-.72-.38-1.15-.4-.61,0-.36.36-.36.63a7.57,7.57,0,0,1-.09,1,.37.37,0,0,1-.41.33h0c-.24,0-.21-.25-.19-.4A2.63,2.63,0,0,0,83.24,6a.68.68,0,0,0-.73-.51.56.56,0,0,0-.63.57C81.78,6.85,81.66,7.82,81.55,8.7Zm106-1.3c.06,2,.06,2,2,1.92h.75c.27,0,.42-.13.41-.36a31.65,31.65,0,0,0-.08-4,.68.68,0,0,0-.73-.62h-1.2c-.64,0-.94.26-1,.75C187.66,5.9,187.55,6.77,187.55,7.4ZM74.34,106.11c0,1.1,0,1.1,1.33,1.17a1.41,1.41,0,0,1,.46.05.89.89,0,0,0,1-.65,11.91,11.91,0,0,0,.09-2.56c0-.34.27-.61.17-1-.29-1.14-1.32-.85-2.15-.91-1.18-.09-1.45.18-1.31,1.2A17.85,17.85,0,0,1,74.34,106.11ZM203.86,6.9a5.32,5.32,0,0,0,0-1.94c-.2-1.45-.21-1.43-1.9-1.44-.66,0-.91.23-.92.76A12.37,12.37,0,0,1,201,6.47c-.14.72.22,1.39.12,2.09,0,.2.09.27.34.27.44,0,.87.08,1.31.07,1.22,0,1.23,0,1.16-1.1C203.86,7.45,203.87,7.1,203.86,6.9ZM224.34,6a3.37,3.37,0,0,1,.09.38c.12,1,.27,1.17,1.41,1.05a5,5,0,0,1,1.45,0,1.68,1.68,0,0,0,2-1.29V6a2,2,0,0,1,.09-.31c.25-.93-.32-1.56-1.38-1.51-.56,0-1.12.1-1.69.14-2.21.16-1.58.13-2,1.72ZM244.8,103.2a9.54,9.54,0,0,1-1,0c-.66-.06-.95.08-1.12.74a13,13,0,0,0,0,2.81c0,.42.09.8.8.7s1.19,0,1.19-.82a21.3,21.3,0,0,0-.18-2.42c0-.31,0-.57.41-.58s.51.27.43.56a7.14,7.14,0,0,0,0,2.34c0,.37,0,.83.64.81s1-.31,1-.87v-1.21c.08-1.92.08-1.92-2.17-2Zm24.81,1.47v-1.35c0-.26.19-.33.42-.34s.21.2.21.34v2.26c0,.3,0,.58.3.69a1.46,1.46,0,0,0,1.09,0c.36-.16.25-.44.25-.71a13.45,13.45,0,0,1-.1-2.42c.07-.34.31-.77-.13-.95a1.47,1.47,0,0,0-1.56.11c-.3.28-.39.2-.63,0a1.45,1.45,0,0,0-1.48-.19c-.54.17-.41.62-.37,1,.08.86.2,1.72.29,2.57.06.52.46.67,1,.67a.63.63,0,0,0,.72-.75c0-.25,0-.57,0-.9ZM32.22,8.66a8.44,8.44,0,0,0,.2,2,1.06,1.06,0,0,0,.92.71.72.72,0,0,0,.82-.51c.33-.72.41-.06.57.1s.29.6.75.46.33-.42.32-.69L35.66,7c0-.25,0-.51-.41-.52s-.5.25-.55.54a8.54,8.54,0,0,0-.15,2.37c0,.2.27.56-.13.61s-.37-.37-.37-.58c0-.86-.08-1.73-.06-2.59,0-.6-.47-.52-.89-.58s-.8.06-.83.53S32.25,8,32.22,8.66Zm80.71,99.28c1.38,0,1.5-.16,1.37-1.26a14.83,14.83,0,0,1-.18-3.7c.06-.4-.16-.56-.55-.59s-.62,0-.93,0c-1.21,0-1.31.18-1.17,1.2.16,1.18.39,2.34.52,3.52.07.72.36.89,1,.83ZM232.11,4c-2.07,0-2.43-.12-2.23,1.85.13,1.31,0,1.51,2.26,1.47,2,0,2,0,2-1.76C234.05,4,234.05,4,232.11,4ZM100,8.2h0V6.74c0-.46-.31-.53-.69-.54s-.38.3-.4.54A12.5,12.5,0,0,0,98.8,8.4c.15,2.16.29,2.11,2.09,2h.27c1.56,0,1.94-.29,1.84-1.4-.06-.67-.08-1.35-.15-2,0-.47-.11-1-.88-.92s-1.23.07-1.23.89a5.2,5.2,0,0,0,.15,1.68c.12.34-.08.63-.07.95s-.26.3-.49.3a.35.35,0,0,1-.35-.39C100,9,100,8.64,100,8.2Zm84.37-1c0,2.09.24,2.36,1.81,2.37.52,0,.78-.16.77-.61a29.17,29.17,0,0,1,.14-3.79c0-.41,0-.87-.62-.78s-1.53-.4-1.93.52a4.59,4.59,0,0,0-.19,2.25Zm-26.9,99.09c.16.36-.22.93.07,1.32.6.81,1.61.2,2.42.35.4.07.88,0,.9-.51.06-1.18.09-2.36.11-3.54,0-.33-.27-.47-.62-.48a.62.62,0,0,0-.71.51,12.86,12.86,0,0,0-.1,2.9c0,.35.24.81-.28.85s-.41-.47-.41-.79a3.76,3.76,0,0,1,0-.49c.08-.78.16-1.56.25-2.34.06-.53-.32-.65-.81-.67s-.75.12-.8.59a7.93,7.93,0,0,0,0,2.25Zm-21.77,1.81c1.73,0,1.68-.16,1.52-1.61a7.72,7.72,0,0,1-.35-2c.07-.46.08-1-.43-1.15a2.79,2.79,0,0,0-2,0c-.48.21-.33.78-.25,1.19a17.59,17.59,0,0,1,.57,2.69c0,.78.19,1.07.94.84Zm-58-4.38c.1,1,.22,1.94.3,2.91,0,.63.58.7,1.11.77a.73.73,0,0,0,.88-.67,16.4,16.4,0,0,0,.21-3.78c0-.35-.27-.5-.67-.56-1.7-.3-1.86-.19-1.78,1.29Zm-24-95.64h0V7c0-.37-.06-.88-.72-.84s-.39.52-.39.79c0,.86.29,1.71.27,2.56s.49.93,1.17.91,1.24-.15,1.86-.22c.26,0,.32-.17.27-.34a17,17,0,0,1-.07-3.15.77.77,0,0,0-.77-.77h-.12c-.54,0-.75.19-.79.68a6.49,6.49,0,0,0,.22,2.71.46.46,0,0,1-.4.69c-.43.07-.42-.28-.44-.49V8Zm93,95.39c-1-.39-1,.3-.9.94a25,25,0,0,1,.29,2.62c0,1,.53,1.1,1.48,1,.63-.05.81-.19.9-.75a13,13,0,0,0-.18-2.73c0-1.1-.17-1.18-1.62-1.18Zm-7.74,4.62h.74c.22,0,.5,0,.43-.39-.2-1.17-.33-2.35-.5-3.52-.14-1-.54-1.19-1.76-1-.75.15-.88.51-.6,1.4a7.53,7.53,0,0,1,.67,3.2c0,.32.12.37.44.3a4.28,4.28,0,0,1,.59,0Zm-34.17-.29c1,.17,1.34-.18,1.15-1a1.63,1.63,0,0,1,.06-.48,7.12,7.12,0,0,0-.23-3.35c-.32-.78-1.1-.38-1.69-.33s-.32.43-.29.75a11.33,11.33,0,0,1,.14,3.43c-.18.79-.06,1.1.87.93Zm-11.44-3a7,7,0,0,0-.09-1.45c0-.3,0-.68-.39-.74a8.9,8.9,0,0,0-1.58,0,.79.79,0,0,0-.11.28c0,1.39,0,2.79.07,4.18,0,.81.95.55,1.46.7s.44-.32.52-.6a10,10,0,0,0,.13-2.46Zm77.5-.35c-.13-1-.13-1-1.61-1-1,0-1,.46-1,1,0,.95-.07,1.89-.13,2.84,0,.31-.26.74.36.71s1.49.4,1.73-.47.46-2.13.66-3.13Zm-69.71.32h0c0,.81,0,1.62.06,2.43,0,.26.1.62.51.55s1.06.33,1.25-.18a3.6,3.6,0,0,0,.41-1.31,12.48,12.48,0,0,0-.38-3c-.11-.43-.23-.56-.73-.54-1.06,0-1.24.18-1.18,1.11a3.26,3.26,0,0,1,.07.86ZM71.37,7V5.76c0-.67-.54-.65-1-.61s-1.32-.12-1.26.62c.07,1.29.21,2.58.39,3.86.09.67.73.4,1.2.42s.68-.12.68-.56A15,15,0,0,0,71.37,7Zm27,97.14h0c.12,1,.23,2,.36,3,.06.47.93.9,1.57.75s.34-.53.31-.83a22.67,22.67,0,0,1-.06-3.33c0-.94-.13-1.07-1.26-1.13s-.88.57-.95,1.08a2.08,2.08,0,0,0,0,.45Zm25.5,1.47h0c0,.62.11,1.24.14,1.86,0,.33,0,.78.52.66s1.35.15,1.36-.67c0-1.24-.09-2.47,0-3.72.07-.87-.93-.6-1.5-.7s-.58.38-.58.71v1.86Zm98.42-97.9h1.12c.31,0,.59-.09.47-.44a3.77,3.77,0,0,1,.05-1.68c0-.41.26-1-.48-1.12a7.74,7.74,0,0,0-1.68-.1c-.48,0-.8.23-.8.72a6.24,6.24,0,0,1-.12,2c-.21.68.08.75.7.71h.73ZM116.55,104.13a6.71,6.71,0,0,0-.12-1.17c-.18-.62-.82-.46-1.32-.5s-.52.18-.53.49a38.82,38.82,0,0,0,.29,4.42c.05.59.61.51,1.06.54s.6-.23.63-.61C116.69,106.2,116.34,105.1,116.55,104.13Zm105.5,2.36V107c-.08.59,0,1.07.9,1.06s1.19-.18,1.22-1.05.06-2,.07-3c0-.32.22-.81-.45-.77s-1.38-.23-1.48.61-.17,1.88-.23,2.61Zm35.88-1.29c.18,1.41.18,1.38,1.77,1.31.6,0,.73-.19.72-.68a9.57,9.57,0,0,1-.19-2c.23-1.31.18-1.34-1.29-1.31h-.35c-.44,0-.72.19-.64.52.16.72-.13,1.44,0,2.16Zm-53.25-.42h.16a2.89,2.89,0,0,1,0-.4c0-.91-.81-.74-1.41-.8s-.75.33-.79.83c-.06.7-.07,1.4-.08,2.11,0,1.41,0,1.39,1.66,1.3.39,0,.58-.09.56-.46,0-.86-.05-1.72-.07-2.58Zm7.9.84h0v-1.38c0-.46-.35-.75-.95-.73s-1-.11-1.06.65c-.05.94,0,1.89-.09,2.82s.45,1.08,1.35,1.08c.74,0,.92-.27.85-.84s0-1.07-.09-1.61ZM183.05,4.4c-.35.29-1.33-.19-1.29.76.06,1.23.15,2.47.14,3.71,0,.78.35.91,1.15.76s.72-.58.71-1c0-1.23-.46-2.46,0-3.7C183.91,4.4,183.48,4.45,183.05,4.4ZM128.68,8.2a7.8,7.8,0,0,1-.09,1.46c0,.23,0,.43.23.56a1.27,1.27,0,0,0,1.93-.82c.06-.83,0-1.67.06-2.5s-.37-.94-1-.92-1.32,0-1.14.89a7.66,7.66,0,0,1,0,1.33Zm52.93,95c-.24,0-.78-.25-.88.38a10.44,10.44,0,0,0,.22,3.85c.06.3.19.63.65.54s.85-.11.88-.66c.06-.88.24-1.76.36-2.64.14-1.14-.12-1.49-1.23-1.51Zm-.44-96.6A4.47,4.47,0,0,0,180.82,5c-.18-.42-.59-.32-1-.31s-.58.21-.53.53a20.2,20.2,0,0,1-.12,3.7c0,.68.42.83,1,.85a.85.85,0,0,0,1-.85V6.6Zm-98.4,98.33a12.47,12.47,0,0,1-.34-1.84c0-.54-.19-.8-.85-.77s-.77.41-.73.84a17.47,17.47,0,0,1-.09,3.47c0,.46.17.67.69.62s1.08.22,1.14-.5C82.64,106.2,82.7,105.64,82.77,104.93ZM80.05,5.3A1.15,1.15,0,0,0,79,6.66a8,8,0,0,1,.25,2.85c0,.48.37.45.69.44s.73.26.81-.25c.2-1.21.05-2.46.75-3.6,0-.06,0-.22-.13-.27C81,5.57,80.66,5.1,80.05,5.3Zm139.5,100.44a6.88,6.88,0,0,0,.18,1.55.73.73,0,0,0,.69.77h.16c.61,0,.66-.4.71-.79a8,8,0,0,1,.35-2.23c.28-.64-.26-1.08-.39-1.61-.07-.29-1.32-.11-1.33.22C219.89,104.4,219.31,105,219.55,105.74Zm30-.54h0v-1.37c0-.46.13-.81-.7-.73s-1.43.17-1.36.88-.08,1.55,0,2.33.42,1,1.16.92,1-.43,1-1.05a7.87,7.87,0,0,1,0-1ZM109,7.84a8.58,8.58,0,0,0,.3,1.89c.3.65.91.41,1.38.42s.43-.42.42-.7a11,11,0,0,0,0-2.65c-.19-.72-.74-.7-1.41-.72-.85,0-.68.44-.68.85S109,7.47,109,7.84Zm146,97a2.81,2.81,0,0,0-.15-1.27,1.27,1.27,0,0,0-1.62-.78h0c-.2.05-.33.09-.32.32.06,1.09.12,2.19.14,3.28,0,.46.2.6.74.57,1.25-.07,1.39-.2,1.25-1.32v-.85ZM66.63,7.09a7.18,7.18,0,0,0,.42,2.31c.16.67.64.66,1.16.66s.45-.44.47-.73c.11-1.08-.4-2.12-.3-3.21,0-.49-.08-.86-.81-.82s-1,.2-1,.83A8.92,8.92,0,0,1,66.63,7.09ZM132,104.9a7.86,7.86,0,0,0,.34,2.16c.06.53.16,1.2,1,1.1s.67-.76.72-1.25c.12-1-.47-2-.5-3,0-.37,0-.64-.54-.62s-.9.06-1,.57a7.23,7.23,0,0,1,0,1ZM107.17,10.16c1.14,0,1.2,0,1.16-.86s-.18-1.77-.28-2.65c-.05-.55-.51-.58-1-.5s-1.11,0-1,.67a10.61,10.61,0,0,1,0,2.33C106.13,9.82,106.35,10.35,107.17,10.16Zm90.54,95.42a8.94,8.94,0,0,1-.1,1.54c-.11.54.12.69.66.67s1.11.23,1.17-.55a10.9,10.9,0,0,0-.1-3.35c-.09-.38-.27-.47-.67-.5-.82-.08-1.19.16-1.07.9a13,13,0,0,1,.11,1.3Zm-181.22-95c-.17-1.09-.33-2.19-.51-3.28-.06-.38-.34-.54-.79-.53s-.51.23-.62.55c-.43,1.34.12,2.62.24,3.92,0,.24.24.38.61.38.86,0,1.2-.34,1.07-1.07ZM168,8.34a7.72,7.72,0,0,0,.18,1,.84.84,0,0,0,.89.59c.53,0,.63-.29.69-.62a5.83,5.83,0,0,0,.1-1c0-.86-.06-1.73-.06-2.59,0-.36.11-.74-.5-.78s-.93.18-1,.67C168.19,6.47,168.11,7.4,168,8.34Zm25.15,97.06h-.1a16.07,16.07,0,0,1,0,1.7c0,.37.05.58.53.55s.93.16,1-.38a32.12,32.12,0,0,0,.37-3.71c0-.26-.16-.38-.45-.43-1.16-.2-1.53.06-1.46,1.05,0,.41.07.85.11,1.22Zm-42-97.78a13.56,13.56,0,0,0,0-1.54c-.06-.48-.4-.76-1-.77-.39,0-.74,0-.78.4a9.42,9.42,0,0,0,.88,4.32c.14.36.65.44,1.06.29s.2-.49.11-.72a6.46,6.46,0,0,1-.3-1.93Zm-39.35.46h0V9.53c0,.45.56.54,1,.51s1,0,1.06-.62a20.12,20.12,0,0,0-.14-2.33c-.06-.61-.18-1-1-.95s-1.12.38-1,1.06a8.2,8.2,0,0,1,0,.88Zm138.44,97.38v.84c-.06.91.73.66,1.3.73s.8-.24.81-.72a27.77,27.77,0,0,0-.28-2.78c0-.28.14-.72-.39-.63s-1.38-.16-1.37.65a7.25,7.25,0,0,0-.1,1.91Zm-35.12.58a8.41,8.41,0,0,0-.22-2c0-.3-.31-.46-.65-.51s-.77-.07-.85.18a3.4,3.4,0,0,0-.29,1.71,14.64,14.64,0,0,1,.32,1.88c0,.41,0,.78.64.78s1-.22,1.08-.79c0-.4-.05-.78-.06-1.25ZM18.44,8a1.67,1.67,0,0,0,0-.51c0-.16.27-.59-.12-.83A1.68,1.68,0,0,0,17,6.62c-.4.08-.28.44-.3.69-.09,1.1.37,2.17.2,3.29a.87.87,0,0,0,.9.84h.1c.72-.05.64-.43.67-.84C18.66,9.71,18.2,8.88,18.44,8ZM231,104.4a6.51,6.51,0,0,0,0-.68.51.51,0,0,0-.55-.46c-.33,0-.79-.11-.9.26a6.19,6.19,0,0,0-.13,4c.2.54.71.3,1.11.29s.62-.22.55-.59A7.06,7.06,0,0,1,231,104.4Zm-4.45,2.23a3.9,3.9,0,0,0-.14-1.35c-.09-.5-.43-.94-.42-1.42s0-.59-.46-.59-.49.25-.59.58c-.34,1.19-.08,2.4-.29,3.59-.07.38.16.65.71.66C226.33,108.11,226.55,107.9,226.55,106.63Zm13.23-1.32a13.77,13.77,0,0,1,0-1.7c.07-.56-.5-.44-.84-.47s-.94,0-.9.46a12.46,12.46,0,0,0,.23,3.45c.13.37.12.66.73.58s.92-.1.85-.7a15.54,15.54,0,0,1,0-1.63ZM165.43,104c0-.31.08-.66-.43-.63s-1.15-.23-1.29.48a14.82,14.82,0,0,0-.19,3.43c0,.46.19.54.65.54s.9,0,.95-.55c.14-1.09.24-2.19.35-3.28Zm9.76,1.45a11.83,11.83,0,0,0-.2-1.56c-.11-.36-.14-.57-.66-.57a.69.69,0,0,0-.78.59h0a8.15,8.15,0,0,0-.23,3.13c.12.81.44,1,1.37.89.16,0,.38,0,.28-.21-.5-.89.71-1.67.26-2.33ZM22.63,8.85h0v1.7c0,.56.22.71.83.72s.69-.26.74-.69a3.93,3.93,0,0,0,0-1.36A8.75,8.75,0,0,1,24,7c0-.37,0-.58-.46-.61s-1-.11-1,.46S22.61,8.2,22.63,8.85Zm233.73,97.92c.94,0,1.24-.36,1.1-.92a4.77,4.77,0,0,1,0-2.15.91.91,0,0,0-.73-1.06h0c-.93-.19-1.25.07-1.3.84a12.37,12.37,0,0,0,.16,2.58C255.7,106.58,255.88,106.88,256.36,106.77Zm-49.21-2a2.37,2.37,0,0,1,0-.32c.05-.46.06-.92-.65-.95a.87.87,0,0,0-1.05.87c-.12.92,0,1.83-.07,2.74,0,.58.1.8.81.84s.94-.33.94-.83c0-.72-.05-1.54,0-2.32ZM174.15,6V5.57c0-.38,0-.79-.65-.79s-.83.21-.87.73a14.39,14.39,0,0,0,0,3.62c.05.33.06.59.57.56s.9-.1.87-.63a17.93,17.93,0,0,1,.08-3ZM171,107.4c0,.19-.27.65.35.55.45-.07,1.28.36,1.32-.37.06-1.22.11-2.43.21-3.65,0-.5-.33-.59-.79-.56s-.79.07-.81.58c-.06,1.08-.18,2.22-.28,3.45ZM10.18,8.12a9.3,9.3,0,0,0-.13-1.28C9.9,6.42,9.4,6.4,9,6.4s-.39.23-.37.45c.09,1.42.19,2.84.31,4.26a.54.54,0,0,0,.48.59h.13a.59.59,0,0,0,.61-.57h0v-.05A19,19,0,0,0,10.18,8.12Zm115.67-.89c-.07-.27-.11-.53-.2-.79-.16-.46-.63-.34-1-.39s-.56.09-.62.36a9.37,9.37,0,0,0-.15,3.05c0,.42.38.65.94.56s.86-.21.87-.69A10.26,10.26,0,0,1,125.85,7.23Zm24.87,98a12.78,12.78,0,0,1,0-1.49c0-.25,0-.31-.3-.36-1.27-.18-1.84.27-1.42,1.31a6.06,6.06,0,0,1,.28,2.86c0,.15-.18.39,0,.43a1.46,1.46,0,0,0,.9,0,5.3,5.3,0,0,0,.92-.82c-.81-.55-.07-1.32-.38-1.89Zm2.56-98.58V6c0-.52-.38-.7-.92-.71a.57.57,0,0,0-.64.73c.2,1.17-.25,2.39.39,3.52.18.33.17.82.81.7s.56-.57.53-.92a14.91,14.91,0,0,1-.17-2.63ZM58.78,7a8.16,8.16,0,0,0,.35,2.21.59.59,0,0,0,.59.59h.12a.67.67,0,0,0,.71-.57,11.45,11.45,0,0,0,.23-2.73c0-.42,0-.91-.8-.85s-1.41-.1-1.18.84a2,2,0,0,1,0,.57ZM156,107.84c.58.14.69-.14.73-.56a16.1,16.1,0,0,1,.15-3.07c.12-.42-.15-.79-.77-.81s-.87.16-1,.67a16.91,16.91,0,0,0,0,3.16c.06.58.29.77.89.65Zm9.89-1.28h0v.65c0,.22,0,.62.48.65s.84,0,1-.44a3.22,3.22,0,0,0,.17-.71c.07-.88.08-1.77.19-2.65.07-.57-.14-.72-.79-.81s-.81.28-.85.66c-.13.92-.15,1.81-.2,2.7Zm-81.22-3c0-1.07-.14-1.31-.76-1.3-.84,0-.69.56-.72,1-.07,1.18.3,2.35.17,3.54-.07.65.65.46,1,.53.56.1.3-.27.33-.51a14.62,14.62,0,0,0,0-3.22Zm73-95.9h0c0-.59.08-1.18.07-1.77a.67.67,0,0,0-.64-.7h-.05a.63.63,0,0,0-.75.62,8.07,8.07,0,0,1-.14,1.91,1.79,1.79,0,0,0,.37,1.88c.19.24.24.6.7.51a.68.68,0,0,0,.55-.76,14.58,14.58,0,0,1-.11-1.65Zm78.11,98.09a3.38,3.38,0,0,0,.1,1.4c.11.82.9.36,1.36.42s.4-.35.36-.63a12.93,12.93,0,0,1-.24-3.12c.07-.69-.18-.85-.94-.6-.48.16-.52.53-.57.86a16.08,16.08,0,0,0-.11,1.71Zm-132-97.27V9.67c0,.4.36.57.76.56s.91,0,1-.43a7.44,7.44,0,0,0-.27-3.28c-.12-.37-.49-.42-.91-.39s-.59.22-.61.57a5,5,0,0,0,0,1.83ZM88.47,7.9h0V9.44c0,.33,0,.7.55.71s1.11-.09,1.17-.62a10.25,10.25,0,0,0-.25-3.39c-.09-.36-.46-.41-.82-.4a.49.49,0,0,0-.54.53C88.55,6.81,88.5,7.4,88.47,7.9Zm44.69-1h-.11a1.69,1.69,0,0,0,0-.48C133,6,132.51,6,132.16,6s-.5,0-.56.27a6.72,6.72,0,0,0,.07,3.62c.09.26.19.45.57.4s.66,0,.75-.38a4.53,4.53,0,0,0,.15-1,19.06,19.06,0,0,0,0-2Zm-95.43.21c.12-.33-.06-.51-.42-.57s-.71-.21-.8.16A7.62,7.62,0,0,0,36.13,9c0,.53.32,1.08.35,1.65s.27.68.82.67.43-.42.47-.7c.21-1.21-.22-2.39,0-3.58ZM171.92,5.92h-.1V5.68c0-.39.06-.83-.5-.91s-.71.4-.76.81a10.85,10.85,0,0,0,0,3.52c.08.34-.13.86.6.78a.76.76,0,0,0,.79-.91C171.93,8,171.94,6.94,171.92,5.92Zm28.33,99.58h.06v1.86c0,.62.51.48.87.55s.47-.16.5-.43c.09-1,.15-2,.28-3,.1-.8-.47-.85-1.16-.9s-.71.4-.68.83S200.22,105.12,200.25,105.5ZM145.4,9c-.07-1-.45-1.8-.47-2.7a.67.67,0,0,0-.63-.71h-.07c-.57,0-.64.39-.69.8a6.48,6.48,0,0,0,.34,2.79c.14.44-.19,1.19.76,1.15s.6-.84.76-1.32C145.41,9,145.4,9,145.4,9ZM26.27,8V7c0-.35-.31-.56-.74-.55s-.7.21-.66.62a20.11,20.11,0,0,0,.2,3.75c.11.42.38.53.78.53s.45-.27.51-.56A12,12,0,0,0,26.27,8ZM155.55,6.65a7.2,7.2,0,0,0-.1-1c-.05-.35-.48-.34-.8-.39s-.51.06-.52.32a12.82,12.82,0,0,0,.23,4.25.53.53,0,0,0,.58.44.43.43,0,0,0,.42-.54C155.05,8.71,155.55,7.69,155.55,6.65Zm-97.5.75c0-.19.06-.49.06-.78s.14-.9-.57-.91-.91.28-1,.91c-.15,1.09.52,2.11.23,3.19,0,.2.13.27.33.3,1.09.18,1.4-.08,1.11-1C58.05,8.58,58.23,8,58.05,7.4Zm84.89-.75c-.08-.32.08-.75-.47-.94a1,1,0,0,0-1,0,1,1,0,0,0-.24,1.06,6.31,6.31,0,0,1,.35,1.5,5.11,5.11,0,0,0,.47,1.64c.09.22.16.41.48.39s.55-.12.63-.4a1.42,1.42,0,0,0,0-.88A4.53,4.53,0,0,1,143,6.66Zm97.48,99.24a8.56,8.56,0,0,0,.21,1.34c.08.62.69.36,1,.43s.4-.32.37-.53a9.65,9.65,0,0,1,0-3.55c.13-.62-.6-.38-1-.4s-.74-.12-.72.38a15.89,15.89,0,0,1,.14,2.34ZM13.82,8a6.12,6.12,0,0,0-.08-.85c-.09-.43-.52-.41-.89-.42s-.47.19-.49.47a15.17,15.17,0,0,0,.46,3.8.66.66,0,0,0,.73.58h0c.52-.05.37-.44.43-.7C14.25,10,13.69,9.14,13.82,8ZM233.1,105.72a7.41,7.41,0,0,0-.08-2,.43.43,0,0,0-.47-.39h0c-.29,0-.63,0-.68.31a7,7,0,0,0,0,3.93c.18.45.64.3,1,.28a.43.43,0,0,0,.41-.6,9.68,9.68,0,0,1-.18-1.53Zm-71.62,0v1.38c0,.46-.22.76.39.85a.75.75,0,0,0,.94-.71c.11-1.15.16-2.3.2-3.46,0-.54-.51-.45-.9-.47s-.69.19-.59.55a6.56,6.56,0,0,1,0,1.89Zm35.63-.43a7.6,7.6,0,0,0-.22-1.61c0-.44-.41-.48-.81-.49-.23,0-.53,0-.48.25.21,1.14-.34,2.25-.22,3.39a.68.68,0,0,0,.57.77h.15a.72.72,0,0,0,.82-.71c.06-.4.12-1.05.18-1.58Zm77.17-1.44h0c.1.64.23,1.27.28,1.91,0,.45.32.53.74.51s.89-.08.86-.55c-.06-1-.17-2-.32-3,0-.31-.12-.73-.77-.55-.49.14-1,.16-.78.81a2.63,2.63,0,0,1,0,.9Zm-57.73-.51c-.24.31-1.13-.28-1.11.54,0,1.27.39,2.51.35,3.79,0,.47.32.45.7.35s.4-.44.42-.74a14.86,14.86,0,0,1,.28-3.54c.17-.45-.14-.44-.64-.41Zm1,2.63a14.32,14.32,0,0,1,.17,1.45c0,.36.09.55.56.57s.67-.17.71-.57c.12-1.27-.22-2.58.41-3.81,0,0,0-.15-.09-.19-.41-.3-1.43,0-1.5.45-.09.71-.15,1.44-.26,2.09ZM139.17,6.81c.25.91.52,2,.83,3,.13.42.54.51,1,.4s.34-.36.26-.66a17.39,17.39,0,0,1-.61-3.33.64.64,0,0,0-.65-.63h-.05a.66.66,0,0,0-.73.58h0A4.13,4.13,0,0,0,139.17,6.81ZM151.28,106a10,10,0,0,1,0,1.3c0,.42,0,.7.59.73a.67.67,0,0,0,.8-.71c.07-1.05.08-2.11.17-3.16,0-.53-.26-.65-.77-.68s-.75.1-.81.57a13.13,13.13,0,0,0,0,1.95ZM96.68,8.4V9.74c0,.58.56.39.9.48s.63.08.61-.29A19.25,19.25,0,0,0,98,6.49c-.14-.57-.73-.42-1.16-.4s-.38.39-.32.68A5,5,0,0,1,96.68,8.4ZM11.74,8.21a3.06,3.06,0,0,0-.13-1.29.46.46,0,0,0-.48-.42c-.29,0-.39.28-.4.54,0,1.24-.11,2.48-.15,3.73,0,.49.07.94.84.92s.55-.58.58-1A8.26,8.26,0,0,0,11.74,8.21Zm215.44,97c-.19.71.18,1.47.14,2.25,0,.31.12.54.53.52s.66-.22.65-.57,0-.48,0-.71c-.08-1,.28-2,0-3-.12-.43-.35-.53-.77-.47s-.72.27-.59.66a7.59,7.59,0,0,1,0,1.31Zm-99.25-97h0a11.07,11.07,0,0,0-.14-1.62c-.08-.54-.49-.51-.92-.5s-.41.32-.41.6a21.75,21.75,0,0,1-.11,2.67c-.1.69.17.85.88.87s.72-.47.74-.88a8.63,8.63,0,0,0,0-1.17Zm-40.1-1v-1c0-.52-.47-.46-.88-.48s-.71.12-.67.55c.08,1.07.12,2.14.24,3.2a.75.75,0,0,0,.74.64c.49,0,.42-.41.45-.68a12.87,12.87,0,0,0,.12-2.26Zm102.47,98h0v-1.62c0-.22.06-.45-.29-.5a.7.7,0,0,0-.66.25,1.54,1.54,0,0,0-.27,1c0,.89-.07,1.78-.1,2.67,0,.32-.28.75.41.81s.95-.23,1-.75a19,19,0,0,0-.09-1.93Zm-66.92-.82v-.73c0-.52-.28-.78-.84-.76s-.51.42-.52.83a38.33,38.33,0,0,1,.28,3.85c0,.24-.2.53.18.61s.5-.18.69-.36a.76.76,0,0,0,.18-.7,12.58,12.58,0,0,1,0-2.82Zm25.32-94c.39,0,.68-.07.58-.52-.28-1.32-.53-2.64-.78-4a.4.4,0,0,0-.38-.42H148c-.3,0-.32.21-.37.41a8.29,8.29,0,0,0,.22,4c.12.33.42.42.83.42Zm42.23,95.33c0,.51.1,1,.15,1.58,0,.26.1.47.5.45s.63-.08.65-.36a11.52,11.52,0,0,0,0-3.79.51.51,0,0,0-.58-.42c-.31,0-.38.18-.48.41a8.09,8.09,0,0,0-.23,2Zm-59.38-1a9,9,0,0,0,0-.94c-.07-.48-.52-.49-.93-.47s-.42.29-.37.63a28.25,28.25,0,0,1,.53,3.7c0,.32.09.53.51.52s.51-.16.58-.54c.18-1.07-.46-2.07-.32-2.91ZM20.19,8.29a6,6,0,0,0-.11-1c-.06-.34.07-.79-.53-.79s-.48.46-.53.79a14.34,14.34,0,0,0,.16,3.22c0,.38-.07.83.45.86s.73-.32.83-.8C20.63,9.76,20,9.1,20.19,8.29ZM27,8.5a10.36,10.36,0,0,0,.24,2.18.67.67,0,0,0,.74.59h.1c.48,0,.49-.42.47-.69-.12-1.22-.29-2.45-.46-3.67a.54.54,0,0,0-.58-.45c-.34,0-.37.21-.43.43A3.69,3.69,0,0,0,27,8.5ZM177,105c.07.68.15,1.56.26,2.44a.37.37,0,0,0,.32.42h0a.49.49,0,0,0,.56-.34,16.84,16.84,0,0,0,.18-3.85c0-.44-.55-.46-1-.45s-.34.35-.35.6,0,.64,0,1.17Zm56.82.31h0c.06.59.12,1.18.2,1.77,0,.29,0,.62.56.58s.51-.32.53-.64a10,10,0,0,0,.13-2.89c-.07-.33.17-.78-.42-.8a.89.89,0,0,0-1,.77h0v.06a9.27,9.27,0,0,0,0,1.14ZM30.37,9.4a8.9,8.9,0,0,0,.3,1.51c0,.32.26.4.58.38s.34-.22.38-.46A20.56,20.56,0,0,0,31.55,7,.59.59,0,0,0,31,6.36h-.13c-.45,0-.49.36-.49.67C30.33,7.83,30.35,8.61,30.37,9.4Zm246.18,94.16a12.14,12.14,0,0,0,.27,2.25.47.47,0,0,0,.43.5h.16c.27,0,.61,0,.6-.38,0-1.15.29-2.31-.19-3.44-.1-.23-.1-.5-.53-.37s-.71,0-.67.49A5.61,5.61,0,0,1,276.55,103.56ZM147.05,6.4c0-.44-.05-.86-.66-.91s-.78.31-.81.83c-.06,1.16.49,2.23.51,3.36a.53.53,0,0,0,.47.58h.14c.46,0,.38-.37.37-.62A11.29,11.29,0,0,1,147.05,6.4ZM39.55,8.92c.18-.58-.14-1.16-.09-1.75,0-.29-.06-.56-.47-.59s-.55.21-.63.55a11.13,11.13,0,0,0,.06,3,2.65,2.65,0,0,0,.18.79.53.53,0,0,0,.59.31.34.34,0,0,0,.38-.45C39.46,10.17,39.84,9.56,39.55,8.92ZM22,9.18Q21.83,8.1,21.68,7c0-.28-.1-.59-.5-.58s-.44.35-.5.65c-.24,1.15.29,2.29,0,3.44,0,.17.2.38.32.56a.56.56,0,0,0,.56.21c.31,0,.26-.25.29-.43a5.33,5.33,0,0,0,.2-1.7ZM90.8,8.86h-.12c.06.26.1.53.17.79a.58.58,0,0,0,.64.47c.44,0,.5-.27.51-.56q.06-1.62.11-3.24c0-.42-.3-.58-.72-.58s-.69.15-.66.59c.1.85.09,1.69.11,2.53Zm89.25,96.38a11.59,11.59,0,0,0,0-1.32c-.05-.41,0-.68-.56-.69s-.58.33-.59.67v3.55c0,.35.13.39.46.44.71.09.82-.32.82-.73a11.8,11.8,0,0,0-.1-1.92ZM118.62,7.94a4.37,4.37,0,0,0,.12,1.46c.09.3.19.61.6.64s.44-.35.53-.62c.3-.82-.06-1.67.17-2.5.11-.39.37-.83-.43-.9s-1.1.12-1,.79C118.62,7.11,118.6,7.4,118.62,7.94Zm39.69,1v.54c0,.32,0,.61.45.65a.58.58,0,0,0,.69-.58,32.45,32.45,0,0,1,0-3.29c.06-.37.21-.84-.45-.88s-.68.4-.67.8a9.68,9.68,0,0,0,0,2.71ZM273.79,104.4c.18-.43-.24-1-.16-1.64s-.39-.45-.75-.47a.52.52,0,0,0-.59.56c0,.3,0,.53.06.78a10.78,10.78,0,0,0,.23,2.15c.1.27.2.5.61.51s.37-.28.49-.48C273.93,105.4,273.73,105,273.79,104.4ZM115.93,7.92c-.09-.39.16-.93-.08-1.46a.7.7,0,0,0-.8-.43.55.55,0,0,0-.51.59h0c0,.49.09,1,.08,1.46a3.48,3.48,0,0,0,.18,1.44.84.84,0,0,0,.92.43c.49,0,.27-.4.27-.65S116,8.49,115.93,7.92ZM96,8.77h0a3.32,3.32,0,0,0,0-1c-.18-.53,0-1.15-.55-1.59-.27-.22-.51-.29-.6.08a8.2,8.2,0,0,0-.08,3.47c.08.42.48.45.88.43s.37-.35.37-.61V8.76ZM164.55,9v.19c.06.28-.18.74.41.75a.72.72,0,0,0,.81-.75,21.64,21.64,0,0,1,.09-3.39c0-.21.24-.6-.28-.64s-.58.25-.64.57A14.47,14.47,0,0,0,164.55,9Zm1.85-.19v.37c0,.34-.05.71.48.71a.6.6,0,0,0,.63-.74,11.62,11.62,0,0,1,0-3.46c0-.28.07-.69-.36-.72s-.59.34-.62.68a10.51,10.51,0,0,0-.12,3.16Zm-13,97.65v1c0,.41.06.5.4.55a.55.55,0,0,0,.58-.34,1.24,1.24,0,0,0,.22-.86,5,5,0,0,1,0-2.72c.09-.28.08-.54-.35-.63a.55.55,0,0,0-.71.46,5.32,5.32,0,0,0-.15,2.54ZM92.66,8.34c.05.46.12.91.16,1.37,0,.24.08.44.41.44s.55-.1.57-.42a12.69,12.69,0,0,0,.12-3.33c-.05-.26-.14-.46-.49-.5s-.5.19-.58.48A5.34,5.34,0,0,0,92.66,8.34ZM40.55,10.59c0,.27-.22.67.34.66s.44-.37.45-.71a14.61,14.61,0,0,0-.09-3c-.06-.36.08-.9-.52-.88s-.47.53-.45.9A8.93,8.93,0,0,0,40.55,10.59Zm94.56-3V6.51c0-.32-.06-.38-.34-.41s-.56,0-.62.27a7.81,7.81,0,0,0-.1,3.53.57.57,0,0,0,.66.35c.28,0,.32-.26.3-.44-.13-.79.34-1.55.12-2.23ZM62.55,7.51h0V6a.46.46,0,0,0-.5-.39.41.41,0,0,0-.39.4c-.1.75-.24,1.5-.27,2.25a2.44,2.44,0,0,0,.17,1.27.65.65,0,0,0,.67.36c.36,0,.29-.3.3-.5Q62.55,8.4,62.55,7.51ZM66,6.6V6.2c0-.29.15-.64-.29-.76a1.35,1.35,0,0,0-.89,0c-.3.21-.21.59-.13.91a15.11,15.11,0,0,1,.74,3.05c0,.32.13.57.5.56s.33-.34.3-.56A19.8,19.8,0,0,1,66,6.6Zm52,1.91a17.23,17.23,0,0,0-.22-1.93c0-.33-.29-.46-.64-.45s-.5.18-.48.41a9.81,9.81,0,0,0,.27,3.11c.08.19.12.43.48.4a.51.51,0,0,0,.52-.49c0-.35.05-.7.08-1.05Zm-53.4.23c0-1-.56-1.83-.6-2.79,0-.21-.08-.53-.48-.48s-.24.3-.24.51A13.8,13.8,0,0,0,63.4,9.4c.08.3.19.55.58.5s.57-.15.57-.5ZM45.82,10c0,.49-.2.88.37.91s.44-.44.48-.7c.13-1-.1-2,.09-3a.54.54,0,0,0-.54-.71c-.47,0-.55.31-.6.68A6.85,6.85,0,0,0,45.82,10Zm234.3,94.6h0V106c0,.25.13.41.44.42s.47-.07.49-.35a18.09,18.09,0,0,0,.08-3.58c0-.32,0-.71-.61-.63s-.49.47-.47.83C280.11,103.33,280.11,103.95,280.12,104.57ZM50.55,8.4h-.1V6.7c0-.24-.06-.52-.45-.5a.48.48,0,0,0-.51.56V8.94a2.64,2.64,0,0,0,.2,1.18c.1.23.1.51.48.5s.37-.39.39-.62C50.55,9.4,50.55,8.91,50.55,8.4ZM136.1,9v.41c0,.47.09.79.74.8s.66-.41.71-.82c.1-.89-.52-1.65-.5-2.53,0-.16-.18-.29-.4-.26a.43.43,0,0,0-.38.41,6.32,6.32,0,0,0-.2,2ZM30,10a6.24,6.24,0,0,1-.24-1.79,8,8,0,0,0-.08-1.38c-.08-.46-.31-.47-.67-.47s-.32.19-.3.42c.08,1.06.11,2.13.21,3.19,0,.45.19,1.11.67,1.11s.17-.72.37-1.06ZM139.2,9.39a19,19,0,0,0-.72-2.83c-.05-.29,0-.69-.45-.7s-.32.45-.41.7a1.3,1.3,0,0,0,.05.71c.18.73.4,1.46.59,2.19.08.31.11.74.58.71s.21-.53.36-.77Zm140.35,94.09a2.82,2.82,0,0,0-.18-1.18c-.09-.2-.21-.42-.53-.37a.45.45,0,0,0-.43.47h0c.1,1.18.22,2.35.34,3.52,0,.16,0,.35.3.33s.29-.22.3-.43C279.41,105.08,279.49,104.33,279.55,103.48ZM42.87,9.4A13.15,13.15,0,0,0,42.65,7a.42.42,0,0,0-.39-.45h0c-.27,0-.3.31-.3.51a13.58,13.58,0,0,0,0,1.37,16.67,16.67,0,0,1,.24,2.17.49.49,0,0,0,.45.53h0c.35,0,.3-.35.3-.58S42.88,9.83,42.87,9.4ZM176.35,104c0-.25.19-.65-.26-.64s-.38.45-.34.71a6.16,6.16,0,0,1-.16,2.72,5.05,5.05,0,0,0-.21.79c0,.43.33.41.63.34s.68.17.54-.31C176.19,106.4,176.77,105.17,176.35,104ZM122.17,8.15a9,9,0,0,1,0,1.3.56.56,0,0,0,.42.67h.16c.43,0,.46-.38.41-.69a7.87,7.87,0,0,1-.06-2.81c.05-.26,0-.51-.39-.53a.41.41,0,0,0-.51.45C122.2,7,122.19,7.57,122.17,8.15ZM52.17,9c-.09-.78-.18-1.61-.28-2.44a.36.36,0,0,0-.36-.36h0c-.31,0-.32.21-.33.41a10.26,10.26,0,0,0,.07,2.51c.09.45,0,1.19.64,1.15.41,0,.28-.77.27-1.27Zm68.38-.25h0v.81c0,.27,0,.47.39.45s.29-.25.29-.44a13.47,13.47,0,0,0,0-1.62c0-.21,0-.6-.3-.6s-.27.36-.29.59-.09.5-.09.77Zm162.19,54A.24.24,0,0,0,283,63c.1,0,.18-.07.14-.16a.31.31,0,0,0-.2-.14c-.06,0-.14,0-.2,0Z" transform="translate(-0.25 -1.5)" style="fill:#d2ab82"/></g><g id="A"><g id="A-2" data-name="A"><g style="clip-path:url(#clip-path)"><path d="M97.94,43.17,88.62,62h0l-3.85,5.34-2.08,8.28A1.65,1.65,0,0,1,81.18,77l-7.13.58" transform="translate(-0.25 -1.5)" style="fill:none;stroke:#dedcc5;stroke-miterlimit:10;stroke-width:7px"/><polyline points="87.9 60.94 106.83 60.94 97.69 41.67" style="fill:none;stroke:#dedcc5;stroke-miterlimit:10;stroke-width:7px"/><path d="M118.55,77.19l-8.93-1.09,1-1.75-1.21-7-2.36-4.91" transform="translate(-0.25 -1.5)" style="fill:none;stroke:#dedcc5;stroke-miterlimit:10;stroke-width:7px"/></g></g></g><g id="N1"><g id="N1-2" data-name="N1"><g style="clip-path:url(#clip-path-2)"><polyline points="131.6 77.77 130.85 41.4 159.77 73.38 157.85 32.52" style="fill:none;stroke:#dedcc5;stroke-miterlimit:10;stroke-width:12px"/></g></g></g><g id="N2"><g id="N2-2" data-name="N2"><g style="clip-path:url(#clip-path-3)"><polyline points="219.15 77.95 218.4 41.57 247.32 73.55 245.4 32.7" style="fill:none;stroke:#dedcc5;stroke-miterlimit:10;stroke-width:12px"/></g></g></g><g id="O"><g id="O-2" data-name="O"><g style="clip-path:url(#clip-path-4)"><path d="M205.85,58.9c0,9.8-8.56,18.47-17.75,18.47S172.55,68.7,172.55,58.9" transform="translate(-0.25 -1.5)" style="fill:none;stroke:#dedcc5;stroke-linecap:round;stroke-miterlimit:10;stroke-width:8px"/><path d="M172.55,58.9c0-9.8,5.91-17.67,15.1-17.67s18.2,7.86,18.2,17.67" transform="translate(-0.25 -1.5)" style="fill:none;stroke:#dedcc5;stroke-linecap:round;stroke-miterlimit:10;stroke-width:8px"/></g></g></g><g id="C"><g id="C-2" data-name="C"><g style="clip-path:url(#clip-path-5)"><path d="M68,47.52c-7.5-5.6-22.8-9.15-28.85-1A20.23,20.23,0,0,0,35.62,56c-.74,5.56.23,11.73,4.24,15.66A18.6,18.6,0,0,0,48.78,76a21,21,0,0,0,10.1.17c5.42-1.45,9.62-5.84,12.67-10.53" transform="translate(-0.25 -1.5)" style="fill:none;stroke:#dedcc5;stroke-miterlimit:10;stroke-width:10px"/></g></g></g></svg>