<svg id="084743c2-8d69-457b-921a-f382d6f6c236" data-name="Layer 1" xmlns="http://www.w3.org/2000/svg" viewBox="0 0 238.72 76.66"><defs><style>.\32 36e8e8f-a410-4074-9d2a-10587cdbc11f{fill:#d2ab82;}.cf46e1d4-445b-4c48-8aaa-b57ad83f1c6c{fill:#fff;}</style></defs><title>logo</title><path class="236e8e8f-a410-4074-9d2a-10587cdbc11f" d="M168.72,16.53c1.34,0,2.72.14,4.09.1,1.52,0,3-.19,4.57-.21,1.13,0,2.27.07,3.4,0,2.17-.14,4.35-.21,6.51-.45a14.48,14.48,0,0,0,4.51-1.47,2.65,2.65,0,0,0,1.26-2.72,1.48,1.48,0,0,0-1.56-1.17,2.3,2.3,0,0,1-1.14,0c-.17,0-.38.09-.43-.23a.54.54,0,0,1,.36-.63,2.63,2.63,0,0,1,1.52,0,6.93,6.93,0,0,1,1.46.49,1.27,1.27,0,0,1,.72.94,3.16,3.16,0,0,1,0,2.5,4.43,4.43,0,0,1-2.22,2A22.43,22.43,0,0,1,185.66,17c-2.68.2-5.37.11-8,.26-3.22.18-6.44.16-9.65.32a12.22,12.22,0,0,1-2.16-.12,1.56,1.56,0,0,0-1.3.44c-.09.08-.26.13-.22.29s.19.17.31.18c.75.08,1.5.11,2.24.24a23.65,23.65,0,0,0,3,.17c1.44.06,2.88.15,4.32.22.66,0,1.32.19,2,.22a7.23,7.23,0,0,0,2.24-.06,7.18,7.18,0,0,1,2.42-.07c.81.05,1.61,0,2.42,0a18.5,18.5,0,0,0,4.36-.77,18.65,18.65,0,0,0,5.29-1.92,12.87,12.87,0,0,0,4.39-3.58c.29-.41.66-.76,1-1.17a1.64,1.64,0,0,0,.19-1.17,5.2,5.2,0,0,1,.95-3,.66.66,0,0,1,.86-.33c.41.14.47.6.52,1a5.42,5.42,0,0,1-.3,2.08c-.13.51-.17,1-.27,1.54-.14.66.26,1.18.41,1.74.47,1.74,1.06,3.44,1.61,5.16a3.09,3.09,0,0,0,.28.53c.58,1,.79,2.27,1.36,3.33A14.77,14.77,0,0,0,205.48,25a10.16,10.16,0,0,1,1.13,1.67,18.63,18.63,0,0,0,2.2,2.78,15,15,0,0,0,3.37,2.79A19.32,19.32,0,0,0,215,34.09c1.08.5,2.08,1.29,3.31,1.35.29,0,.45.3.69.43a20.25,20.25,0,0,0,2.55,1A25.16,25.16,0,0,0,225.46,38a8.41,8.41,0,0,0,1.65.12,9.75,9.75,0,0,1,2.32.64l2.72.66c1.34.33,2.53-.44,3.82-.34a2.79,2.79,0,0,1,2.71,2.3,1.22,1.22,0,0,1-.56,1.29,2.54,2.54,0,0,1-2.42.45,11.89,11.89,0,0,1-2.12-1.07,1.27,1.27,0,0,0-.89-.13,9,9,0,0,1-2.72.32c-.37,0-.64.27-1,.35A62.87,62.87,0,0,1,222.16,44a27.07,27.07,0,0,0-5,1c-1.51.49-3.06.89-4.59,1.33a3,3,0,0,0-.82.4,4.11,4.11,0,0,1-1.41.64,1.31,1.31,0,0,0-1,.76c-.09.2-.2.39-.41.33-1-.3-1.73.45-2.52.87a35.94,35.94,0,0,0-3.59,2.28c-1.34.93-2.68,1.86-4,2.85a21,21,0,0,0-3.24,3.2,42.78,42.78,0,0,0-4.52,6.92,6.67,6.67,0,0,0-.88,2.6c-.12,1.22,0,2.41-.06,3.62a1.79,1.79,0,0,1-.78,1.54.85.85,0,0,1-1.13-.24,3.13,3.13,0,0,1-.57-1.55,5.76,5.76,0,0,1,.32-3c.09-.21,0-.35-.09-.5a6.23,6.23,0,0,0-2.54-2.66c-.8-.42-1.44-1.11-2.2-1.58a1.25,1.25,0,0,0-.8-.29c-.12,0-.28,0-.36-.05-1.16-1.18-2.69-1.1-4.07-1.54a23,23,0,0,0-5.85-.76,39.57,39.57,0,0,0-4.09.19c-.43,0-.86,0-1.29,0-.2,0-.43,0-.48.22s.23.37.38.42c.67.25,1.2.87,2,.69.68-.15,1.37.3,2.09.36,1,.09,2,.09,3,.12,1.31,0,2.63.08,3.94.15a6.93,6.93,0,0,1,1.33.44,8.41,8.41,0,0,1,2,.55c.14.08.32.1.43.23a6.68,6.68,0,0,0,1.91,1.13,4.59,4.59,0,0,1,1.22,1.18c.29.38.63.7.9,1.11.91,1.35.31,2.28-.31,3.18a1.26,1.26,0,0,1-1.57.51,4.84,4.84,0,0,0-1-.19c-.68-.09-.83-.71-1-1.27-.1-.37.28-.54.46-.75s.27.15.4.26a2.17,2.17,0,0,1,.56.7c.18.37.52.32.79.1a1.91,1.91,0,0,0,.05-2.77,13,13,0,0,0-4.9-3,13.47,13.47,0,0,0-3.28-.45l-5-.29c-.79,0-.86,0-.61.83a6.78,6.78,0,0,1,.41,3c0,.24.12.51-.34.41-.17,0-.55.27-.84.41s-.46.09-.5-.17-.51-.36-.13-.74a2.67,2.67,0,0,0-.22-2.21c-1.06-.94-2-2-3.45-2.4a8.9,8.9,0,0,1-2.44-.87.9.9,0,0,0-.4-.12c-1.65-.09-3.29-.19-4.94-.23a30.88,30.88,0,0,0-4.3.09,48.71,48.71,0,0,0-5.45.83c-1.59.37-3.17.77-4.78,1a6.42,6.42,0,0,0-2,.65c-.45.23-1,.17-1.47.36-1.13.43-2.29.75-3.44,1.11-1.48.46-3,.87-4.47,1.3-1.21.35-2.47.45-3.67.9-.33.12-.49.26-.51.62a2.94,2.94,0,0,1-3.83,2.52,11.82,11.82,0,0,1-3.2-1.94,12.59,12.59,0,0,1-1.72-2c-.09-.13-.16-.39-.36-.26s-.09.33,0,.5c.13.44.06,1,.74,1,.35,0,.35.42.15.69a9.25,9.25,0,0,0-1.47,4.18.82.82,0,0,1,0,.2c-.17.38-.44.8-.81.69s-.31-.58-.26-1c0-.13.13-.27,0-.39-.45-.65-.56-1.48-.95-2.15a1.7,1.7,0,0,1,0-1.89,6.53,6.53,0,0,0,1.17-2.36c0-.11.08-.26,0-.32s-.21,0-.32.06c-.34.09-.53.41-.78.63a17.23,17.23,0,0,1-4.08,2.82,8.27,8.27,0,0,1-1.76.67,1.77,1.77,0,0,1-1.36-.5c-.41-.32-.79-.58-.75-1.25,0-.43-.22-.62-.64-.62a43.38,43.38,0,0,1-6.36-.33c-.91-.13-1.82-.36-2.74-.44-1.81-.16-3.54-.78-5.31-1.12-1.43-.28-2.82-.83-4.24-1.25a19.32,19.32,0,0,0-3.36-1.11c-2-.21-4-1-6.06-1a16.06,16.06,0,0,0-3.39.21,2.87,2.87,0,0,0-2.09,3.46c.05.24.22.42.34.43.55,0,.92.62,1.48.57a.38.38,0,0,1,.44.28c.08.25-.1.37-.26.47a2.21,2.21,0,0,1-3-.34,2.88,2.88,0,0,1-.77-1.72c-.07-.55-.25-.55-.63-.5a17.26,17.26,0,0,1-2.55.1c-1.77,0-3.54.06-5.31.09-1.29,0-2.57.42-3.87.54a17.81,17.81,0,0,0-6.43,1.67,9.66,9.66,0,0,1-2,.56,5.35,5.35,0,0,0-3.19,2.46,2.7,2.7,0,0,0-.55,1.34c-.09,1.33.63,2,1.71,1.41a1.36,1.36,0,0,0,.87-.89c.09-.37,1.17-.41,1.36-.09s0,.29-.07.43a2.21,2.21,0,0,1-1.85,1.49,3.71,3.71,0,0,1-2.87-.47,2.25,2.25,0,0,1-.66-2.44,5.27,5.27,0,0,1,1.72-2.72,3.19,3.19,0,0,1,2.28-1.11,1.8,1.8,0,0,0,1-.43,5.45,5.45,0,0,1,1.88-.72c.75-.15,1.37-.64,2.1-.83a3.51,3.51,0,0,1,.8-.25c1,0,2-.33,3-.44,1.67-.17,3.33-.49,5-.54.94,0,1.91,0,2.86-.09a18.52,18.52,0,0,1,3-.07,7.73,7.73,0,0,0,2.06-.14A2.8,2.8,0,0,0,72.54,62c0-.24-.18-.25-.3-.22-.62.15-1.4-.18-1.75.83-.16.46-.56.37-.68-.13a.65.65,0,0,0-.75-.54,38.4,38.4,0,0,0-4.69.08c-.93.14-1.87,0-2.81.11-1.25.19-2.49.33-3.74.52-2,.3-3.9.8-5.86,1.12a20.1,20.1,0,0,0-2.41.81,35.58,35.58,0,0,0-3.48,1.59A16.67,16.67,0,0,0,42,68.61a.82.82,0,0,0-.36.6A3.64,3.64,0,0,1,40,72.08a1,1,0,0,1-1.21.11A1.68,1.68,0,0,1,38,70.77a3.16,3.16,0,0,1,1-2.17,1.33,1.33,0,0,0,.08-1.72A12.68,12.68,0,0,0,37.27,64a4.72,4.72,0,0,1-.75-1.82,17.87,17.87,0,0,0-2.07-3.74A6.56,6.56,0,0,0,33,56.94c-1.34-1.12-2.43-2.54-3.71-3.74a19.78,19.78,0,0,0-3.43-2.69,6.69,6.69,0,0,1-1.2-.94,16.77,16.77,0,0,0-2.27-1.38c-.47-.34-1-.61-1.45-.9a22.65,22.65,0,0,0-3.91-1.63,18.87,18.87,0,0,0-2.51-1,25.88,25.88,0,0,0-3.92-.87A23.66,23.66,0,0,1,5.93,43a3,3,0,0,0-1.83.35,3.32,3.32,0,0,1-3.72-.86A1.71,1.71,0,0,1,.8,39.92a3.16,3.16,0,0,1,3-.22c.59.22,1.21.39,1.79.62a3,3,0,0,0,2.48-.25,1.64,1.64,0,0,1,.71-.18A13.69,13.69,0,0,0,13,39.14c.52-.16,1.1-.14,1.65-.3a4,4,0,0,0,1.56-.54c.48-.38,1.09-.32,1.6-.61,1.13-.64,2.37-1,3.48-1.65A25.49,25.49,0,0,0,25,33.42c.69-.6,1.57-.9,2.26-1.53,1-.89,2-1.62,3-2.58s2-2.09,3-3.08a21.11,21.11,0,0,0,1.57-2.13A16,16,0,0,1,36.18,22a3.59,3.59,0,0,0,.73-1.76,22.77,22.77,0,0,1,1.23-3,29.35,29.35,0,0,0,1-2.92c.28-.95.72-1.83.93-2.79a17.52,17.52,0,0,0,.34-1.8c.07-.64-.47-1-.6-1.61a10.92,10.92,0,0,1-.46-2.58A2.65,2.65,0,0,1,40,3.89a1,1,0,0,1,1.52.19,3.09,3.09,0,0,1,.61,1.5,20.77,20.77,0,0,0,.17,2.8,2.32,2.32,0,0,1-.08.94,2.87,2.87,0,0,0,.56,2.28c.36.54.51,1.23,1,1.65A14.45,14.45,0,0,0,48,15.64a11.43,11.43,0,0,0,3.17.4,45.5,45.5,0,0,1,5.4.36,15.54,15.54,0,0,0,2.56.12c1.35,0,2.7.15,4,.25a17.27,17.27,0,0,0,3.46,0c.46-.06,1,.13,1.39-.21a.23.23,0,0,1,.23,0c.57.54,1.1.31,1.73.06a3.87,3.87,0,0,1,2.32-.12c.59.15,1-.22,1.52-.29.2,0,.13-.23,0-.36A3,3,0,0,0,72,15c-1.59-.17-3.19-.06-4.78-.1l-2.71-.07a26.12,26.12,0,0,1-2.9-.07c-1.59-.21-3.2-.22-4.81-.3L55,14.4l-3.35-.12a26,26,0,0,1-4.59-.6A5.87,5.87,0,0,1,44.37,12a3.06,3.06,0,0,1-.63-1.86c0-.44.4-.9.62-1.35a.52.52,0,0,1,.17-.19,3.22,3.22,0,0,1,2.58.14c.13.11.27.19.4.3s.54.33.39.66a.6.6,0,0,1-.8.29,3.76,3.76,0,0,1-.65-.37c-.7-.44-1.29,0-1.34.87a2,2,0,0,0,.94,1.7c.34.28.77.42,1.13.68s.72,0,1.07.07a23.16,23.16,0,0,0,4.54.51c1.33.08,2.67.08,4,.24a26.16,26.16,0,0,0,3.24.06c1.23,0,2.45.28,3.68.23,1.63-.06,3.25.15,4.88,0a21.62,21.62,0,0,1,3.3.13c.7.06.93-.15.64-.85s.16-1,.43-1.35a1.2,1.2,0,0,1,1.25-.57c.19,0,.47,0,.52.24a.87.87,0,0,1-.18.63,1.93,1.93,0,0,0,.28,2.55A5.16,5.16,0,0,0,79,16a40,40,0,0,0,5.86-1.2,14.81,14.81,0,0,0,3-.95,15.17,15.17,0,0,1,2.73-.66,31.27,31.27,0,0,0,4-1A20.37,20.37,0,0,1,101,11.07c1.15-.09,2.3-.2,3.45-.23.4,0,.76,0,.85-.77a3.32,3.32,0,0,1,.95-2.19A2,2,0,0,1,108,7.57,17.4,17.4,0,0,1,112.45,9a11.08,11.08,0,0,1,3.41,2.65c.62.65,1.27,1.28,1.9,1.92.1.1.21.19.32.1a.42.42,0,0,0,.08-.3,3,3,0,0,0-.14-.73,6.2,6.2,0,0,1-.63-1.93.64.64,0,0,0-.34-.6c-.52-.25-.52-.75-.47-1.27s.34-.53.68-.7c.54-.29.7-1,.94-1.6a7.73,7.73,0,0,1,.37-.92c.13-.24.3-.59.6-.45a.81.81,0,0,1,.47.81c0,.18,0,.36,0,.54A1.27,1.27,0,0,0,120,7.65a2.16,2.16,0,0,1,.81,1.08,1,1,0,0,1-.23,1.11,3.34,3.34,0,0,0-.94,2c0,.16-.07.34.06.45s.31,0,.43-.14a6.62,6.62,0,0,1,1.59-1.49c.8-.48,1.68-.8,2.45-1.3a14.82,14.82,0,0,1,2.36-.92,1.47,1.47,0,0,1,2.07.42,1.94,1.94,0,0,0,.46.33,1.87,1.87,0,0,1,.8,1.87c-.07.34,0,.33.24.36a14.07,14.07,0,0,0,2.48.11,2.71,2.71,0,0,1,1.66.21c.18.12.51,0,.77-.07a15.24,15.24,0,0,1,4.48.73c1.37.32,2.78.41,4.13.82.39.12.77.26,1.16.4a45.9,45.9,0,0,1,4.36,1.87c.67.33,1.44.43,2.12.79a14.35,14.35,0,0,0,4.91,1.34,18.64,18.64,0,0,0,4.54.09,11.73,11.73,0,0,0,3.73-1c1.42-.66,1.85-2,2.42-3.29.24-.56-.07-.95-.39-1.31s-.53-.2-.83,0-.54.23-.73-.07,0-.61.18-.85a1.42,1.42,0,0,1,2-.26c1.26.75,1.21,1.84.81,3a5.53,5.53,0,0,1-.89,1.83c-.12.14-.29.31-.18.54s.3.06.43.11A3.76,3.76,0,0,0,168.72,16.53Zm31.56,31a.57.57,0,0,0,0-.79s-.14,0-.15,0a.69.69,0,0,0,.09.75l0,.06,0,0a.12.12,0,0,0,0,0ZM25,40.67h0a5.5,5.5,0,0,0-.1,1c.14,1.86-.15,3.73.06,5.59.06.57.32.89.71.93s.44-.48.4-.83c-.22-1.67.06-3.37-.28-5a7,7,0,0,1-.13-1.14,18.07,18.07,0,0,0-.36-3.55c-.06-.26,0-.69-.27-.73-.11,0,.06.47,0,.73l0,.13A8.2,8.2,0,0,0,25,40.67Zm61,19.65a.77.77,0,0,0,.51.19,2.76,2.76,0,0,0,1.19-.07c.21-.11-.09-.65,0-1a15.69,15.69,0,0,0,.29-3.85,7.14,7.14,0,0,1,0-1.44c.08-.43,0-.53-.37-.54s-.4-.09-.6-.1c-.47,0-.86.14-.87.77,0,2-.57,4-.17,6.08,0,0-.11,0-.07.07Zm98.59,1.21h0a1.48,1.48,0,0,0,.86.81c.52.27.63.19.63-.44,0-1.34-.05-2.67-.08-4,0-1.7,0-3.41,0-5.11,0-.23.09-.53-.21-.64-.85-.3-1.4.21-1.32,1.22a2.66,2.66,0,0,1,0,.41,49.9,49.9,0,0,0,.23,5.78C184.62,60.21,184.92,60.89,184.51,61.54ZM36.71,40.73c-.11.62.39,1.2.63,1.89a19.08,19.08,0,0,0,1.21,2.59,24.58,24.58,0,0,0,1.51,2.15,10.83,10.83,0,0,0,2,2A8.66,8.66,0,0,0,45.65,51a26.28,26.28,0,0,0,6.11.81,8.56,8.56,0,0,1,1.82,0A14,14,0,0,0,58,52c1.83-.14,3.65.06,5.48-.11a26.46,26.46,0,0,1,2.93,0c1.35,0,2.69,0,4,0,1.63.06,3.23.36,4.86.38a34.62,34.62,0,0,1,4.29.15,20.89,20.89,0,0,0,2.59,0,9.79,9.79,0,0,1,1.8.06,6.34,6.34,0,0,0,2.5,0,27.86,27.86,0,0,1,3-.22c1.1-.12,2.21.11,3.33,0,1.46-.11,2.92,0,4.38-.1,1,0,2-.09,2.93-.1s2.14,0,3.2.06,2.29.14,3.44.17c1.46,0,2.92.18,4.37.18,1.08,0,2.2-.09,3.27,0,1.61.07,3.22.08,4.82,0,2.53,0,5.06-.25,7.59-.3,2.18,0,4.36-.26,6.53-.31,1,0,2.07.12,3.11.05,1.62-.1,3.25-.07,4.87-.09,1.4,0,2.81,0,4.21.07s2.6,0,3.89.07a40.26,40.26,0,0,0,5.62.08,47.13,47.13,0,0,1,5.16-.25,19.94,19.94,0,0,0,3.47,0c.73-.09,1.46-.19,2.19-.21,2.28-.07,4.57.15,6.85,0,2.55-.17,5.1-.37,7.66-.52A25.53,25.53,0,0,0,192.67,48a31.83,31.83,0,0,0,2.85-1.83,8.89,8.89,0,0,0,2.3-2.48c.3-.55.61-1.1.91-1.66a9.46,9.46,0,0,0,1-3.72c.07-.79.06-1.58.06-2.38a8.43,8.43,0,0,0-1-3.49,6.07,6.07,0,0,0-2.16-2.8c-1.05-.67-2.22-1-3.3-1.62-.53-.29-1.08.07-1.63.08l-5.43.07a35.18,35.18,0,0,1-4.62-.46c-1-.11-2-.08-2.92-.22-1.14-.16-2.29-.23-3.44-.32-.95-.07-1.92.06-2.84-.06-2.05-.28-4.12-.33-6.17-.57s-4-.34-6-.61c-1.45-.2-2.92-.26-4.37-.47a50.75,50.75,0,0,0-7.36-.45c-1.17,0-2.35,0-3.52,0-1.51,0-3-.11-4.54-.17-1.77-.08-3.55-.07-5.31-.26s-3.52-.23-5.28-.29-3.79-.06-5.67-.15-3.88,0-5.82-.1a42.36,42.36,0,0,0-4.72,0c-.45,0-1-.23-1.35.45-.11.22-.45.26-.58-.12a.46.46,0,0,0-.45-.37c-1.36-.09-2.73,0-4.1,0-2-.09-3.95,0-5.93-.09-.56,0-1.17-.27-1.68-.05s-.83.49-1.37,0c-.29-.28-.9-.21-1.36-.17-1.68.15-3.33-.24-5-.24s-3.27.15-4.91,0c-1.25-.09-2.49.15-3.73.13a16.62,16.62,0,0,0-2.93.07,37.6,37.6,0,0,1-4.19.31c-1.41.08-2.82,0-4.23,0-1.12,0-2.24-.1-3.37-.09a14.67,14.67,0,0,0-3.19.17c-1.62.37-3.27.43-4.9.73-.92.17-1.86.39-2.8.5a5.13,5.13,0,0,0-1.49.17c-1.18.53-2.43.76-3.61,1.23-.44.17-.89,0-1.32.19-1.49.59-3,1.1-4.47,1.72a20.24,20.24,0,0,0-4.41,2.18,17.2,17.2,0,0,0-3.42,3.76A10.49,10.49,0,0,0,37.35,37,12.09,12.09,0,0,0,36.71,40.73Zm70.1-28.79a7.52,7.52,0,0,0-3.59,1.41,1.52,1.52,0,0,0-.11,2.43,7.08,7.08,0,0,1,.73.62,1.24,1.24,0,0,0,1.21.26,3.54,3.54,0,0,1,2-.13,35.77,35.77,0,0,0,4.34.11c.73-.05,1.46.07,2.18,0,1.09-.11,2.18,0,3.27-.1.13,0,.29.19.37,0s-.1-.26-.19-.38a9.49,9.49,0,0,0-3.88-2.87c-.49-.2-1-.11-1.45-.39-1-.65-2.15-.57-3.21-.91A5.73,5.73,0,0,0,106.81,11.94Zm-14,4.38c.5-.24,1,.16,1.46.22,1.29.15,2.6.17,3.86.41,1.43.27,2.74-.35,4.12-.21.27,0,.27-.22.11-.42s-.24-.24-.36-.37a2.39,2.39,0,0,1-.36-2.44,2.33,2.33,0,0,1,.77-.94c.22-.15.63-.34.51-.66s-.52-.11-.78-.09l-2,.21a21.78,21.78,0,0,0-4.78.81,19.83,19.83,0,0,0-3.33,1,2.15,2.15,0,0,1-.56.24A27.56,27.56,0,0,0,87,15.31c-.2.08-.51,0-.45.35s.31.33.55.32a5.9,5.9,0,0,1,1.51-.06c1.14.25,2.29,0,3.41.28C92.23,16.26,92.5,16.28,92.79,16.32Zm40.74-3.55h-1c-.27,0-.29.14-.19.4a3.88,3.88,0,0,1,0,3.46c-.25.45-.15.67.32.67a5.2,5.2,0,0,1,.72-.1,38.05,38.05,0,0,0,4.11,0c.87,0,1.71-.18,2.58-.09a18.27,18.27,0,0,0,3.21.11,35,35,0,0,1,4.08,0c.33,0,.65.08,1,.12a.43.43,0,0,0,.46-.26c.07-.22-.18-.26-.3-.35a14.11,14.11,0,0,0-1.91-.8A12,12,0,0,0,143,14.38a49.43,49.43,0,0,1-5.21-1.09A19.61,19.61,0,0,0,133.54,12.77Zm-45,49.18-.68,0c-.08,0-.18,0-.19.13s.06.26.15.27c.57,0,1,.46,1.53.59a26,26,0,0,1,3.3.85,6.57,6.57,0,0,0,1.21.44,52.6,52.6,0,0,0,5.79,1.07,14.25,14.25,0,0,0,1.68.32c1-.07,2,.19,3,.21a24.34,24.34,0,0,1,3.25,0c.16,0,.43.07.46-.2s-.2-.4-.41-.42a.74.74,0,0,1-.59-.51.82.82,0,0,0-.56-.49c-.23,0-.31-.31-.45-.48a5.93,5.93,0,0,1-.68-1.51A.41.41,0,0,0,105,62a11.32,11.32,0,0,0-2,.19c-1.75.21-3.5,0-5.25.24a6.47,6.47,0,0,1-1.95-.08,12.54,12.54,0,0,0-2.17-.2c-.68,0-1.4.11-2.09.08C90.54,62.18,89.57,62,88.55,61.94ZM131.6,14.58a1.6,1.6,0,0,0-.94-1.63,3.17,3.17,0,0,0-1.58-.45,14.38,14.38,0,0,0-5.56.86c-1.3.46-2.63,1-3.15,2.69-.16.54,0,.62.38.59s.9.09,1.33.08.71.42,1,.3a7.22,7.22,0,0,1,3.25-.11,15.22,15.22,0,0,0,3.6,0A2.47,2.47,0,0,0,131.6,14.58Zm-8.36,46.5a21.57,21.57,0,0,0-3.46.12c-.32,0-.73.07-.48.55a3.68,3.68,0,0,0,1.14,1.58,28.54,28.54,0,0,0,2.72,1.5c.3.14.51.48,1,.4a35.08,35.08,0,0,1,3.45-.73c1-.07,1.52-1,2.22-1.58a2.58,2.58,0,0,0,.52-1.21.63.63,0,0,0-.55-.86,5.51,5.51,0,0,0-1.58,0A29.7,29.7,0,0,1,123.25,61.08ZM35.67,51.76c0-1.46-.12-2.63-.19-3.8-.08-1.33-.13-2.65-.28-4-.25-2.25-.29-4.52-.39-6.79s-.24-4.52-.45-6.77a7.24,7.24,0,0,1,0-2.35c0-.13.09-.26,0-.36a.26.26,0,0,0-.34,0c-.4.31-.86.59-.74,1.27a14.05,14.05,0,0,1,.11,3,1.39,1.39,0,0,0,0,.47A5.94,5.94,0,0,1,33.53,35a6.2,6.2,0,0,0,.1,1.56,7,7,0,0,1,.25,2.23c-.22,1.31.2,2.55.24,3.84,0,.87.22,1.74.22,2.63,0,1.09.19,2.17.26,3.26s.3,2.42.31,3.62.13,2.57.12,3.86a.85.85,0,0,0,.46.81c.21.11.43.13.45-.28A16.8,16.8,0,0,0,35.83,54,21.47,21.47,0,0,0,35.67,51.76ZM108,61.84c-.53-.13-.92.1-1.33.08-.1,0-.23.09-.21.2.1.44-.11,1,.33,1.32a5.18,5.18,0,0,0,2.07,1.21c1.36.26,2.7.63,4.12-.08A6.79,6.79,0,0,0,115.62,63a.5.5,0,0,1,.37-.21c.58,0,.63-.61.88-1s.13-.53-.31-.55c-1.61-.08-3.21.19-4.82.21a.77.77,0,0,0-.65.29c-.14.19-.3.23-.51,0s-.65-.42-.89-.25C109.1,62,108.46,61.48,108,61.84Zm24.59-1v0h-1c-.25,0-.44.2-.31.43.26.47,0,.88,0,1.31A3.14,3.14,0,0,1,130,64.7c-.08.08-.24.15-.16.32s.17.08.27.06a4.81,4.81,0,0,0,1.84-.44,3.56,3.56,0,0,1,1.56-.42,2.81,2.81,0,0,0,1.33-.32,3.71,3.71,0,0,1,1.55-.51,34.49,34.49,0,0,0,3.46-1.12c.74-.21,1.43-.78,2.2-.63.51.1.76-.42,1.18-.37,0,0,.07-.06.06-.09s-.11-.1-.19-.1c-.45,0-.9,0-1.34,0-2.06.13-4.1-.24-6.16-.07A22.32,22.32,0,0,1,132.62,60.83Zm-100.87-29c0-.48,0-.78,0-1.07s0-.31-.25-.28a1.54,1.54,0,0,0-.91,1.25,30.24,30.24,0,0,1,.16,3c0,1.24.22,2.47.23,3.72a6.32,6.32,0,0,0,0,2,5.17,5.17,0,0,1,.23,1.79c0,1.39.16,2.77.16,4.15,0,2.05.36,4.06.42,6.1a2,2,0,0,0,.31.88.33.33,0,0,0,.42.17c.17-.06.18-.22.19-.39a6.39,6.39,0,0,0,0-1,64.65,64.65,0,0,1-.25-7.88c0-2.2-.14-4.39-.32-6.58C32,35.76,32,33.71,31.75,31.86Zm171.51,15.2a6.94,6.94,0,0,0,.07,1.71c0,.29.06.63.37.57s.71-.22.65-.67a4.69,4.69,0,0,1,.11-1.92,15.78,15.78,0,0,0,.18-2.5c.23-2,.16-4.1.23-6.14.05-1.6.11-3.22.07-4.83a34.74,34.74,0,0,0-.19-5.59c0-.22,0-.46-.25-.47s-.23.32-.23.47c0,1.32-.33,2.6-.42,3.92-.18,2.63-.23,5.27-.32,7.9A72.15,72.15,0,0,0,203.26,47.06Zm-170.17-15c-.1-.86-.19-1.71-.29-2.57,0-.12,0-.28-.19-.32s-.21.08-.28.21a1.19,1.19,0,0,0-.16.62c0,1,.07,2,.13,3a41.37,41.37,0,0,0,.58,7.31,2.61,2.61,0,0,1,0,.54,19.61,19.61,0,0,0,0,2.75A8.42,8.42,0,0,1,33,46.25a10.19,10.19,0,0,0-.1,2.5,25.34,25.34,0,0,1,.18,2.85,16.36,16.36,0,0,0,.3,2.88,2.11,2.11,0,0,0,.28.75.63.63,0,0,0,.7.3c.34-.06.11-.38.12-.56,0-.82,0-1.64,0-2.46-.08-2.46-.31-4.9-.54-7.34-.28-3.08-.27-6.18-.79-9.24A31.72,31.72,0,0,1,33.09,32.05ZM27.82,43.62a1.91,1.91,0,0,0,0-.44c-.31-1.66,0-3.36-.27-5a9.27,9.27,0,0,1,0-3c.06-.4,0-.85-.42-.84a2.22,2.22,0,0,0-1.3.66c-.29.25,0,.54,0,.82a.47.47,0,0,1-.07.32,1.12,1.12,0,0,0-.16,1.09,29.17,29.17,0,0,1,.31,4.29c.13,1.71.18,3.43.42,5.13a2.93,2.93,0,0,1,0,.87A2.1,2.1,0,0,0,26.78,49a.85.85,0,0,0,.87.36c.27-.05.2-.45.22-.71a5.42,5.42,0,0,0,0-.62A36.22,36.22,0,0,0,27.82,43.62Zm2,6.65c0,1,0,1.16,1,2,.17.13.31.35.53.21s.09-.37.08-.57c-.07-1.43-.39-2.83-.42-4.28a8.47,8.47,0,0,0,0-2.19,5.16,5.16,0,0,1-.18-1.68c.13-1.94-.24-3.85-.21-5.78,0-1.41-.27-2.8-.22-4.22a3.37,3.37,0,0,0-.2-1.53c-.07-.15-.11-.32-.28-.31a.34.34,0,0,0-.29.31c-.11.92-.72,1.69-.33,2.77s.05,2.12.14,3.2a52.6,52.6,0,0,1,.21,6.14,7.73,7.73,0,0,0-.08,1.08C29.78,47.08,29.57,48.77,29.8,50.27Zm171.48-1.43c0,.48,0,1,0,1.44,0,.21,0,.42.29.39a1.17,1.17,0,0,0,.94-1.1,54.87,54.87,0,0,1,.12-5.7c.12-2.4.21-4.81.27-7.21.05-1.94.15-3.89.2-5.83a25.83,25.83,0,0,1,.49-4.56c.08-.36,0-.69-.3-.77s-.43.37-.43.64a22.81,22.81,0,0,1-.17,2.77c-.19,1.44-.28,2.9-.49,4.33-.28,1.86-.35,3.75-.46,5.63-.08,1.3-.08,2.62-.21,3.92A36.63,36.63,0,0,0,201.28,48.84Zm-164-1.64a3.36,3.36,0,0,0-.53-2.36,2.16,2.16,0,0,1-.34-.71c-.1-.29-.21-.6-.53-.55s-.31.45-.28.71c.1,1.19.22,2.39.36,3.57a42,42,0,0,1,.2,4.95,6.94,6.94,0,0,0,0,1.27,18.68,18.68,0,0,1,.25,2.61,5.07,5.07,0,0,0,.74,2.82c.14.19.27.36.5.31s.16-.32.17-.51a15.31,15.31,0,0,1-.07-1.55,13.77,13.77,0,0,0,0-2.49c0-1,.08-2,0-3.08a25.1,25.1,0,0,0-.31-3.92A7.25,7.25,0,0,1,37.33,47.2Zm46.18,12c0-1.63,0-3.27.21-4.89,0-.42,0-.66-.48-.72a12.33,12.33,0,0,0-2.51.11c-.19,0-.25.16-.33.33-.23.48,0,1-.12,1.46a34.89,34.89,0,0,0-.55,4c0,.75.12.94.77.85.17,0,.35-.16.53,0s.42,0,.5-.29a16.11,16.11,0,0,0,.33-3.45A11.64,11.64,0,0,1,82,54.11c0-.13,0-.3.19-.3s.21.15.24.28a1.49,1.49,0,0,1,0,.47c-.21,1.78.06,3.6-.41,5.35a.43.43,0,0,0,.29.57c.71.33,1.14,0,1.15-.83C83.51,59.5,83.51,59.34,83.51,59.18ZM40.95,52.06c-.1-.67.08-1.47-.4-2s-.7-.74-1-1.15c-.13-.16-.25-.41-.49-.28s-.14.37-.12.56c.12,1.13.23,2.26.4,3.38.06.4-.22.79,0,1.14a3,3,0,0,1,.21,1.73c-.11,1.43.13,2.85,0,4.3a26.44,26.44,0,0,0,.26,3.38,1.54,1.54,0,0,0,.18.57c.1.19.21.43.47.35s.25-.33.24-.57a3,3,0,0,1,0-.68,18,18,0,0,0,.22-3.93C40.84,56.6,41,54.33,40.95,52.06ZM28.25,45.32h.13c0,1.37,0,2.74,0,4.1,0,.52.19.92.64.89s.33-.57.33-.89c0-1,0-2,0-3.06.14-2,0-4,0-6a16.13,16.13,0,0,0-.23-2.77,2.75,2.75,0,0,1-.09-.95,14.29,14.29,0,0,0-.13-3c0-.51-.28-.51-.63-.28-.64.4-.41,1-.48,1.65a27.8,27.8,0,0,0,.24,4.68c0,.59-.11,1.16,0,1.76C28.14,42.72,28.18,44,28.25,45.32Zm16,19.19c.15.29-.14.92.45.76A1.68,1.68,0,0,0,46,64a6.35,6.35,0,0,0,.16-1.62c-.07-1.55.19-3.08.17-4.62s.43-2.92.26-4.41c-.06-.55-.82-1.12-1.29-.9a.51.51,0,0,0-.27.42c-.23,1.41,0,2.84-.18,4.26s-.13,2.9-.29,4.33A12.5,12.5,0,0,1,44.29,64.51ZM43.07,27.34a2.48,2.48,0,0,0,0,1c.17.57.36.64.79.31s.4-.9.4-1.42c0-1.68,0-3.37.05-5A32.54,32.54,0,0,0,44.42,18c-.06-.94.3-2.15-.87-2.7-.18-.09-.3-.44-.55-.29s-.22.42-.24.67,0,.36,0,.55c0,1.7.39,3.39,0,5.09a1.49,1.49,0,0,0,0,.34A35.77,35.77,0,0,0,43.07,27.34Zm62.18-5.55s0,.09,0,.14c0,.41.05.85-.44.84s-.29-.51-.31-.8a13.44,13.44,0,0,1,.3-2.91c.14-.82-.05-1-.73-1.08s-.63.48-.65.94a13.16,13.16,0,0,1-.09,2.52c-.14.58.11,1,.13,1.47a.42.42,0,0,0,.47.35,25.78,25.78,0,0,1,3.34,0c.56,0,.84-.18.86-.81,0-.16,0-.32.06-.47q.13-1.73.25-3.46c0-.4-.21-.55-.5-.53s-.84-.19-.8.42c.07,1.12-.44,2.21-.1,3.35a1.11,1.11,0,0,1-.24.95c-.08.09-.22.11-.27,0a1.06,1.06,0,0,1-.21-.88c.3-1.18,0-2.4.15-3.59,0-.3-.15-.4-.39-.37a.63.63,0,0,0-.55.62C105.43,19.59,104.91,20.65,105.25,21.79Zm92.38-6.68c0-.08.08-.33-.21-.31s-1.37,1-1.33,1.38c.15,1.58-.52,3-.65,4.53-.15,1.74-.3,3.48-.42,5.22a2.52,2.52,0,0,0,.06,1.28,1.09,1.09,0,0,0,1,.67c.46,0,.43-.5.44-.9s0-.78.06-1.16c.11-1,.31-2,.35-3,.07-1.54.23-3.07.35-4.61C197.32,17.22,197.64,16.22,197.63,15.11ZM44.8,25.41c0,.27,0,.55,0,.82s0,.55,0,.82-.12.83.46.81,1.23-.42,1.19-.87.13-1.14.05-1.7c-.18-1.36,0-2.72-.09-4.07,0-1.09.21-2.17.12-3.27-.06-.68-.11-1.28-.82-1.54-.49-.18-.7-.1-.8.48A23,23,0,0,0,45,19.38C44.87,21.39,44.85,23.4,44.8,25.41ZM39.54,21a13,13,0,0,0-.12-2.18c0-.12,0-.24-.15-.26s-.21.09-.27.22a11.49,11.49,0,0,0-.72,1.94,10.84,10.84,0,0,0-.12,3c0,1.47,0,3,.09,4.41.11,1.3,0,2.62.2,3.91,0,.17,0,.38.15.46s.28-.11.41-.23a3.15,3.15,0,0,0,.71-2.43c0-1.25-.05-2.5-.07-3.76a17,17,0,0,0,0-2.51A14,14,0,0,1,39.54,21Zm148.91,41a16.59,16.59,0,0,0,.26,2.64c0,.2.11.42.34.42s.35-.18.41-.42a8.59,8.59,0,0,0,.27-3,43.3,43.3,0,0,1-.11-5c0-1.72.19-3.43.13-5.15,0-.23.08-.53-.26-.59a1,1,0,0,0-1.05.92c.08,1.67,0,3.33,0,5A34.11,34.11,0,0,0,188.45,61.92Zm11.9-30.42a7,7,0,0,0,.38,2.31c.07.17.1.47.31.47s.21-.31.25-.48A54.71,54.71,0,0,0,202,28c.12-1,.06-1.94.24-2.9a4.77,4.77,0,0,0-.53-3.49c-.1-.17-.22-.39-.42-.35a.47.47,0,0,0-.32.52,4.22,4.22,0,0,1-.18,1.4C200.52,25.93,200.52,28.71,200.35,31.49ZM94.94,60.78v0h.92c.17,0,.35,0,.32-.29a25.05,25.05,0,0,1,.35-3.36c0-1,.13-2,.22-3.06,0-.48-.16-.65-.55-.71s-.6.17-.65.6c-.06.59-.14,1.17-.18,1.76a15.88,15.88,0,0,0-.12,4.08c0,.26,0,.63-.28.65s-.45-.32-.44-.68,0-.5,0-.75c.09-1.67.18-3.34.3-5,0-.37.07-.56-.37-.61s-.49.12-.59.52c-.47,2-.2,4.08-.47,6.11-.07.56,0,1,.68.74A2.43,2.43,0,0,1,94.94,60.78Zm-52.2,4.51c0,.19,0,.3,0,.41s-.06.4.13.49.29-.12.41-.23a1.87,1.87,0,0,0,.57-1.32c0-2.61.4-5.19.45-7.8,0-.11,0-.22.05-.34,0-1.36.06-2.71.12-4.07,0-.58-.4-.45-.64-.51s-.36.22-.41.52c-.33,2.3-.27,4.63-.46,6.94A25.9,25.9,0,0,0,42.74,65.29Zm5.88-3.87c.05.63.1,1.15.14,1.67a.3.3,0,0,0,.33.31,1.15,1.15,0,0,0,1.13-1.17c0-1.14,0-2.26.12-3.39a32.22,32.22,0,0,0,.07-5.36c0-.44-.11-.64-.52-.59s-1-.21-1,.57c0,1.68-.07,3.36-.16,5a6.46,6.46,0,0,1,.07.88A16.84,16.84,0,0,1,48.62,61.42ZM41.24,21h.08c0,.14,0,.27,0,.41,0,2.49.36,5,.22,7.47,0,.3-.2.69.3.66a.6.6,0,0,0,.62-.68c0-.39,0-.77.06-1.15.06-1.19-.15-2.35-.17-3.52,0-1.43,0-2.87,0-4.3,0-1,0-1.9,0-2.85a14.91,14.91,0,0,0,0-3.16c0-.18,0-.36-.22-.45a.63.63,0,0,0-.59-.09c-.25.13-.21.41-.21.66Q41.26,17.45,41.24,21Zm1.49,32.21h0c0-.41,0-.82,0-1.23a.78.78,0,0,0-.68-.83c-.41-.07-.34.4-.37.64A35.76,35.76,0,0,0,41.41,57c0,1.63,0,3.25-.06,4.88,0,1.35-.33,2.7-.26,4.07,0,.29,0,.51.33.53s.54-.05.56-.46c.05-1.2.12-2.41.15-3.61,0-1.74.19-3.47.31-5.2Q42.58,55.2,42.73,53.16ZM206.58,31c0-.41.07-.82.06-1.23a.6.6,0,0,0-.57-.67c-.39,0-.5.33-.42.66.18.79,0,1.61.2,2.38a.44.44,0,0,1-.07.44,1.06,1.06,0,0,0-.1.78,19.34,19.34,0,0,1,.05,2.77c-.1,1.12-.1,2.24-.14,3.35-.05,1.31-.16,2.61-.19,3.92a4.67,4.67,0,0,0-.11.8,18.55,18.55,0,0,1-.07,3.44c0,.25-.15.52.14.63s.4-.23.48-.47a5.64,5.64,0,0,0,.29-2.14,31.66,31.66,0,0,1,0-4.07c.09-2,0-3.93.24-5.89C206.62,34.13,206.37,32.55,206.58,31ZM210,37.28a12.75,12.75,0,0,1-.25,2.58c-.1.81,0,1.6-.1,2.41a10.69,10.69,0,0,0-.11,3.38c0,.24.13.41.36.33.4-.13.79-.3.76-.89a3.17,3.17,0,0,1,0-.75,23,23,0,0,0,.28-4.15c0-1.37,0-2.75.08-4.11a21.27,21.27,0,0,0,0-2.31.51.51,0,0,0-.38-.55c-.28-.07-.33.2-.37.42a3.73,3.73,0,0,0-.2,1C210,35.52,210,36.4,210,37.28ZM107.59,10.72a4.48,4.48,0,0,1,.8,0c2.22.45,4.48.67,6.56,1.77.11.06.3.29.42,0s-.08-.35-.22-.49-.78-.3-.93-.57a3.47,3.47,0,0,0-1.69-1.33,9.27,9.27,0,0,0-3.7-1.21c-.61,0-1.36-.47-1.78.48-.16.36-.72.52-.5,1S107.28,10.62,107.59,10.72Zm83.94,41.42h0c0-.46,0-.91,0-1.37,0-.27,0-.67-.35-.54s-.78,0-.74.67a23.82,23.82,0,0,1,.06,3.06c-.06.89-.15,1.77-.15,2.66a18.81,18.81,0,0,1-.07,2.56,7.76,7.76,0,0,0,.19,2.23c.06.37.26.51.49.19a2.56,2.56,0,0,0,.64-1.29c.06-1.22.08-2.44.06-3.66C191.67,55.14,191.59,53.64,191.53,52.13ZM48.2,54.33c0-.26,0-.33,0-.4,0-.43.1-1-.41-1s-.53.64-.48,1c.17,1-.34,2-.28,3a4.61,4.61,0,0,1,0,1.24c-.35,1.64-.16,3.34-.46,5-.15.84.32,1.13,1,.73A.94.94,0,0,0,48,62.81c-.14-1.17.26-2.35.19-3.51C48.13,57.58,48.29,55.86,48.2,54.33Zm-8-25.28c0,.34,0,.69,0,1s0,.57.33.51a.48.48,0,0,0,.37-.6,1.68,1.68,0,0,1,0-.8A9.78,9.78,0,0,0,41.05,27c-.17-2.73-.21-5.45-.26-8.18,0-1.27.09-2.55.12-3.83,0-.24.16-.62-.2-.68s-.3.3-.36.53A7.74,7.74,0,0,0,40,18.25a1.66,1.66,0,0,1,0,.55,14.1,14.1,0,0,0,0,2.66C40.11,24,40.11,26.53,40.2,29.06ZM23.31,42.43c0,1.59.31,2.83.23,4.11,0,.68.37.81.76.81s.28-.51.28-.79c0-1.91,0-3.82-.08-5.73,0-1.43-.07-2.86-.1-4.28,0-.12,0-.25-.1-.28-.46-.14-.66.37-1,.54s-.19.32-.06.51a.84.84,0,0,1,0,.77,3.27,3.27,0,0,0-.18,1.2A15,15,0,0,1,23.31,42.43ZM68.17,54.17c0-.33,0-.53,0-.74s-.08-.43-.37-.48c-.94-.17-1.25.12-1.26,1.23,0,1.54,0,3.08,0,4.62,0,.35.31.62.12,1s-.22.63.17.67,1.05.24,1.12-.31a19.71,19.71,0,0,0,.36-2.33A27,27,0,0,0,68.17,54.17Zm31.54,6.77c.53,0,.75-.38.83-1.27.15-1.78.32-3.55.48-5.33,0-.33.16-.81,0-1s-.7-.11-1.06-.1-.36.24-.4.52c-.17,1.26-.29,2.53-.55,3.76-.2,1,.19,2-.28,2.88-.09.19,0,.3.18.34ZM49.94,21.86A30.2,30.2,0,0,0,49.82,18c0-.5-.3-.57-.65-.62s-.49.12-.53.53a5.07,5.07,0,0,0,0,1.07,10.82,10.82,0,0,1,.09,2.53c-.13.9-.1,1.81-.19,2.72-.06.59-.05,1.18-.06,1.78,0,.35.2.63.49.52s.88.18.87-.47A28.14,28.14,0,0,0,49.94,21.86Zm74,46.91c.7.06,1.18-.43,1.67-.87a.67.67,0,0,0,.2-.62c-.06-.29-.35-.25-.5-.26a8.06,8.06,0,0,1-3.66-1,14.1,14.1,0,0,1-2.83-1.9c-.12-.12-.24-.36-.38-.25s0,.33.06.5a1.74,1.74,0,0,0,.17.36,8,8,0,0,0,3,3.22A5,5,0,0,0,123.89,68.77ZM199.25,21c0,1.73-.33,3.43-.47,5.15a7.35,7.35,0,0,0,.15,2.87c.06.2.09.48.38.45s.31-.35.34-.56c.11-1,.24-2.08.26-3.12a40.19,40.19,0,0,1,.5-4.75,7,7,0,0,0,.07-2.64c-.08-.34-.26-.55-.52-.58s-.28.34-.29.51C199.61,19.23,199.3,20.09,199.25,21ZM187.76,52.85c0-.22-.1-.44-.14-.67-.09-.5-.37-.61-.77-.48s-.35.4-.16.72a.37.37,0,0,1,0,.2c-.08,1.08-.12,2.16-.11,3.25,0,1.93.28,3.85.24,5.78,0,.38.12.77-.27,1s-.21.36.05.5.32.21.48.29.29.38.53.19.18-.44.2-.69a13.32,13.32,0,0,0-.21-1.34C187.54,58.71,187.69,55.78,187.76,52.85ZM70.63,55.35c0,1.48.11,3,0,4.45,0,.28,0,.74.35.66s1,.25,1.18-.51a11.88,11.88,0,0,0,.13-1.69c.06-1.45-.13-2.89-.15-4.34,0-.87-.57-.68-1-.7s-.59.43-.61.84A12.05,12.05,0,0,0,70.63,55.35Zm126.85-32.2a1.75,1.75,0,0,1,0,1,15,15,0,0,0-.15,4.05c0,.24.12.48.35.49s.26-.3.29-.51,0-.62,0-1c.17-1.49.31-3,.46-4.48a13.8,13.8,0,0,1,.23-2.72,4.68,4.68,0,0,0,.36-1.37,8.22,8.22,0,0,1,.32-2.76.82.82,0,0,0-.57-1c-.41-.18-.24.43-.42.64s0,.26-.06.4c-.16,1.49-.3,3-.5,4.48A25.89,25.89,0,0,1,197.48,23.15ZM129.79,57.58h0c0,.46,0,.91,0,1.37,0,.2,0,.41.19.45a3.21,3.21,0,0,0,1.51,0c.2,0,.09-.23.08-.39a8.9,8.9,0,0,1-.08-1.69,16.65,16.65,0,0,0,.19-3.38c0-.39-.16-.72-.5-.74a2.2,2.2,0,0,0-1.35.25s0,.17,0,.26Q129.79,55.63,129.79,57.58ZM53.92,55.41c0-.37,0-1,0-1.69,0-.45-.11-.71-.54-.7s-.64.29-.65.73c0,.71,0,1.41,0,2.12a21.83,21.83,0,0,1-.19,4.35,5.67,5.67,0,0,0,.07,1.56.31.31,0,0,0,.3.28.92.92,0,0,0,.91-.82A40.69,40.69,0,0,0,53.92,55.41Zm-32-10.95a3.48,3.48,0,0,1,0,.68c-.13.63.24.92.62,1.2s.55.14.61-.3a3.15,3.15,0,0,0,0-.54c-.07-2.47-.39-4.93-.24-7.42,0-.3-.05-.76-.32-.8a.9.9,0,0,0-.93.63,10.06,10.06,0,0,0-.14,2.79C21.58,42,21.8,43.2,21.89,44.46ZM79.74,54.8a4.11,4.11,0,0,0,0-.89c-.21-.93-.88,0-1.26-.35-.13-.14-.35,0-.37.27a6.89,6.89,0,0,0-.08.74,14,14,0,0,1-.4,4c-.43,1.66-.23,1.94,1.12,1.72.28,0,.4-.14.42-.51s0-.9.09-1.35A24.45,24.45,0,0,0,79.74,54.8ZM50.85,60.5c0,.46,0,.91,0,1.37,0,.23,0,.49.22.59s.43-.05.62-.19a.67.67,0,0,0,.24-.59c.09-2.13.29-4.26.3-6.4a12,12,0,0,1,.07-1.77c.07-.44,0-.56-.4-.6-.74-.08-1,.24-.87,1.13a11.84,11.84,0,0,1,0,2.72C51,58,50.85,59.25,50.85,60.5Zm10.92-7.43c-.67-.25-.74.23-.72.77,0,.91-.12,1.8-.13,2.7a11.75,11.75,0,0,0,.1,2.88c.07.32.42.47.34.84s-.08.53.22.47.53.06.64-.43a21.7,21.7,0,0,0,.23-2.75,25.8,25.8,0,0,0,.07-3.62C62.49,53.44,62.48,52.85,61.77,53.06ZM37,32.93c0,.39,0,.78,0,1.16s0,.47.25.55.26-.23.4-.34.1-.24.12-.37a17.63,17.63,0,0,0,.09-3.7c-.05-2.13-.28-4.26-.13-6.4a3.08,3.08,0,0,0-.05-.89c-.06-.26-.26-.41-.43-.09a2.81,2.81,0,0,0-.52,1.22c0,.89-.06,1.78,0,2.67C36.74,28.81,37,30.86,37,32.93Zm59.87,26.5c0,.18,0,.29,0,.41,0,.55,0,1.08.68,1.1s.59-.57.69-1c.17-.8.11-1.61.21-2.41.17-1.28.37-2.55.57-3.82,0-.18,0-.31-.14-.39a1.13,1.13,0,0,0-1.5,1c-.14,1-.11,1.94-.21,2.91C97.07,58,96.66,58.7,96.85,59.43ZM46.94,25c.08.27,0,.79.06,1.28.06.29.05.68.48.65s.49-.32.51-.71c0-1.15.12-2.31.13-3.46,0-1.68-.11-3.35,0-5a.48.48,0,0,0-.52-.53c-.27,0-.57-.12-.65.38A6,6,0,0,0,47,18.75C47.07,20.75,46.82,22.74,46.94,25Zm161.12,7.7a3.81,3.81,0,0,0,0-1.28c0-.2-.14-.39-.36-.41s-.25.21-.32.41a8.66,8.66,0,0,0-.21,2.05c-.16,1.29-.06,2.61-.15,3.92-.1,1.61,0,3.25-.1,4.89-.1,1.38,0,2.77,0,4.16,0,.15-.16.41.1.43s.17-.23.18-.42a30.55,30.55,0,0,0,.18-3.61c-.05-2,.68-3.9.53-5.94C207.8,35.44,208.14,34,208.06,32.66ZM50.45,24.07a3,3,0,0,0,.14,1.48c.08.2.07.45.37.42a.53.53,0,0,0,.48-.31,3.11,3.11,0,0,0,.33-1.57c0-1.3,0-2.59,0-3.89,0-.71-.1-1.4-.12-2.11,0-.32-.13-.49-.45-.52-.57,0-.79.14-.79.8C50.46,20.27,50.59,22.17,50.45,24.07Zm106-1.56c0-.37,0-.55,0-.73.06-.61.09-1.23.21-1.83,0-.2.19-.52.48-.42s.07.34,0,.51c-.19,1.41-.28,2.84-.39,4.26,0,.5.23.56.56.61s.57.17.59-.22c.09-1.49.29-3,.29-4.46,0-.79-.32-1-.94-.89a1.46,1.46,0,0,1-.54-.07c-.67-.16-.79,0-.93.74s.07,1.39-.1,2.1a11.55,11.55,0,0,0-.15,2,.47.47,0,0,0,.38.54c.24,0,.26-.23.27-.37A10.55,10.55,0,0,0,156.41,22.52ZM118.9,21.27a22.93,22.93,0,0,0-.14-2.76c0-.3-.12-.58-.47-.58s-.34.26-.4.55c-.25,1.19,0,2.41-.23,3.6-.05.29,0,.69-.35.69s-.36-.38-.34-.72c0-1.15.07-2.29.1-3.44,0-.38,0-.81-.45-.8s-.45.38-.44.79q0,1.8,0,3.6c0,.79.26,1.19.94,1a3.35,3.35,0,0,1,1.38,0c.3.06.45,0,.42-.44S118.89,21.9,118.9,21.27ZM128.37,11c0-.57-1-1.71-1.38-1.62a8,8,0,0,0-1.49.34,18.55,18.55,0,0,0-3.29,1.86,14.37,14.37,0,0,0-1.63,1.51c-.09.09-.18.25-.11.36s.22,0,.32,0a.79.79,0,0,0,.3-.22,3.4,3.4,0,0,1,2.15-1.14,12.86,12.86,0,0,1,3-.69c.59,0,1.18-.09,1.76-.12C128.21,11.26,128.37,11.27,128.37,11Zm-71.64,42a.64.64,0,0,0-.68.68,6.33,6.33,0,0,0,0,1,31.73,31.73,0,0,1,0,5.91c0,.26-.09.59.19.74a.62.62,0,0,0,.68-.17,1.11,1.11,0,0,0,.48-.9,39.22,39.22,0,0,0-.12-5.5,2.18,2.18,0,0,1,.07-.94C57.51,53.22,57.21,53.08,56.73,53.08Zm51.47,7.24c.94-.05.94-.05,1-1,.15-1.5.31-3,.47-4.49.1-1,.11-1-.77-1.12l-.18,0c-.28-.07-.44.07-.48.37-.08.58-.15,1.16-.21,1.75-.12,1.28-.19,2.58-.36,3.85C107.65,60.16,107.6,60.52,108.2,60.32ZM191.94,25c0,.34,0,.68,0,1a.57.57,0,0,0,.57.59c.32,0,.43-.31.44-.63a26.39,26.39,0,0,1,.25-3.65c.2-1.2.08-2.41.18-3.61,0-.3.1-.63-.25-.72s-1.07.33-1,.65a12,12,0,0,1-.14,1.68C192,21.87,191.76,23.43,191.94,25ZM212.4,35.1c0-.24.3-.61-.19-.69s-.44.17-.46.48c-.07,1.88-.12,3.77-.2,5.65,0,.84-.07,1.68-.17,2.51a2.49,2.49,0,0,0,.19,1.64c.09.16.06.45.33.39a.5.5,0,0,0,.4-.57,8.83,8.83,0,0,1,.09-2,12.79,12.79,0,0,0,.17-3.45A21.7,21.7,0,0,0,212.4,35.1ZM112,60.14c.83,0,1-.22,1.07-1.16,0-.25.06-.49.09-.74a10.38,10.38,0,0,0,.22-2.09,3.68,3.68,0,0,1,.21-2.12c.09-.18.08-.33-.11-.36a2.59,2.59,0,0,0-1.43.16c-.33.14.15.5.05.78a1.76,1.76,0,0,0,0,.2c-.28,1.56-.43,3.15-.57,4.73C111.45,60.06,111.63,60.13,112,60.14ZM74.24,58.5h0c0,.46,0,.92,0,1.37.05.6.55.43.86.51s.38-.22.37-.52a11.71,11.71,0,0,1,.23-2.47,18.51,18.51,0,0,0,.16-3.21c0-.35.13-.67-.35-.73s-.79,0-1,.49a3.24,3.24,0,0,0-.15.73C74.39,55.94,74.32,57.22,74.24,58.5ZM55.66,55.19c0-.59-.08-1.06-.09-1.54s-.33-.44-.61-.49-.41.21-.44.48c0,.54-.08,1.09-.08,1.64a19.59,19.59,0,0,1-.24,5.25,1.81,1.81,0,0,0,.18,1c.09.21.37.26.59.24a.42.42,0,0,0,.38-.38c0-.85.3-1.65.27-2.47A21.31,21.31,0,0,1,55.66,55.19ZM54,21.86a7.19,7.19,0,0,0,.23,2.41.61.61,0,0,0,.73.46c.37,0,.34-.35.39-.65a16.46,16.46,0,0,0,0-2.5c0-1.09-.33-2.2.11-3.28a.36.36,0,0,0-.13-.42,1.13,1.13,0,0,0-1.17-.15c-.33.15-.34.56-.29.89C54,19.75,53.81,20.88,54,21.86Zm-.43,1.27c0-.8-.13-1.65-.12-2.5a18.72,18.72,0,0,1-.08-2.24c0-.35.23-.77-.36-.85s-.81.11-.84.73a7.93,7.93,0,0,0,.08,1.37,45,45,0,0,1,0,5c0,.4,0,.82.41.89a.88.88,0,0,0,1-.79C53.7,24.2,53.45,23.7,53.55,23.14ZM91.82,54c0-.28,0-.57-.28-.67a1,1,0,0,0-1.16.88c0,.61-.1,1.21-.17,1.81-.14,1.33.13,2.68-.1,4,0,.25,0,.55.28.59s.56.06.72-.24a2,2,0,0,0,.18-.65C91.58,57.89,91.49,55.94,91.82,54Zm44.36,3.38h0a6.31,6.31,0,0,1,0,1.43c-.17.68.14.74.58.77s.88-.27.89-.92q.06-2.51.11-5c0-.32.06-.7-.39-.64s-.83-.17-.89.52C136.39,54.85,136.28,56.14,136.18,57.42ZM185.24,25.6c0,.32,0,.64,0,1,0,.58.41.67.72.52a1,1,0,0,0,.66-.86c0-.52-.07-1-.05-1.54,0-1.26-.15-2.53,0-3.79,0-.27.06-.65-.22-.79s-.6,0-.87.18-.26.44-.26.72C185.18,22.52,185.33,24.06,185.24,25.6Zm-9.87,28.28c0-1.17-.2-1.41-.91-1.1-.43.19-.45.68-.51,1.09-.2,1.21,0,2.44-.15,3.65s0,1.15.94,1.3c.39.06.58-.07.59-.59A34.22,34.22,0,0,0,175.37,53.88Zm-42.5,5.59c.54.28.68-.05.64-.59a8.89,8.89,0,0,1,.15-1.62c.15-1.29-.13-2.63.35-3.88a.23.23,0,0,0,0-.18c-.36-.31-.74-.07-1.11,0s-.44.14-.42.45c.12,1.74-.53,3.42-.22,5.2C132.35,59.37,132.37,59.56,132.87,59.47ZM66.06,53.82c-.19-.2.12-.7-.27-.83s-.58.22-.76.54a1.91,1.91,0,0,0-.26,1c0,.68-.14,1.37-.07,2,.1,1.07-.26,2.24.47,3.21a.24.24,0,0,1,0,.19c-.43.74,0,.57.43.57.67,0,.32-.41.33-.77a21,21,0,0,0,0-3.08A9.85,9.85,0,0,1,66.06,53.82Zm75.7,1h0a8.27,8.27,0,0,1,0-.89c.08-.71-.32-.85-.8-.84s-.54.37-.58.84c-.15,1.72.12,3.46-.2,5.18-.11.6.41.45.67.53s.65.14.68-.4C141.6,57.76,141.68,56.29,141.76,54.81ZM69.15,60.48c.51,0,.81-.13.81-.67S70,59,70,58.65c0-1.63-.14-3.27,0-4.89,0-.74-.3-.69-.63-.76s-.48.3-.5.66,0,.54,0,.81c0,1.16.1,2.31,0,3.47a4.45,4.45,0,0,0-.07,2C68.87,60.26,69,60.47,69.15,60.48Zm107-38.77c0-.11,0-.23,0-.34,0-.45-.11-.84-.61-.81s-.93-.16-.93.68c0,1.51,0,3-.06,4.54,0,.72.5.49.84.53s.62-.12.61-.61C176,24.35,176.34,23,176.18,21.7ZM150.69,56.1c0-.58-.1-1.28,0-2,0-.34,0-.69-.42-.74s-.74,0-.83.56a27.55,27.55,0,0,0-.21,4.61,2.54,2.54,0,0,0,.12.67c.18.63.65.27,1,.33s.35-.26.35-.55C150.67,58.07,150.68,57.14,150.69,56.1ZM103.8,53.42c-.52-.23-.66,0-.67.57,0,2-.38,4.05-.56,6.08,0,.27-.2.59.14.67s.67.11.84-.33a2.88,2.88,0,0,0,.17-.51,17.49,17.49,0,0,0,.38-3.31,14.67,14.67,0,0,1,.17-2.45C104.37,53.61,104.41,53.3,103.8,53.42ZM157.45,56c0-.71,0-1.41,0-2.12s-.53-.58-.9-.63-.47.27-.47.67c0,1.66.06,3.32-.08,5,0,.28.06.38.28.4l.79,0c.38,0,.51-.21.45-.61A15.86,15.86,0,0,1,157.45,56Zm-21.71-1.63c0-1.17-.1-1.28-.88-1.23s-.23.49-.3.77c-.26,1,0,2.14-.26,3.19a17.08,17.08,0,0,0-.18,1.9c0,.42.14.68.47.58s1,.17,1-.61C135.63,57.39,135.54,55.81,135.74,54.35Zm41-30.54c0,.62,0,1.23,0,1.85a.87.87,0,0,0,1,.77c.4,0,.42-.31.46-.71.13-1.48,0-3,.18-4.43.05-.37-.1-.62-.47-.63h-.61c-.27,0-.36.09-.41.43A20.94,20.94,0,0,0,176.74,23.81Zm39.84,15.48a7.11,7.11,0,0,1-.05,1.52,6.21,6.21,0,0,0,0,2c.06.25,0,.72.49.59s.7-.15.7-.74a28.2,28.2,0,0,1,.39-4.68c.13-.73-.31-.88-.71-1.09s-.63-.09-.66.43S216.65,38.61,216.58,39.29ZM144.94,54.68c0-.45,0-.7,0-.95s.06-.55-.31-.62-.52.09-.6.47a15.23,15.23,0,0,0-.3,5.55c.05.31.12.77.61.66A.75.75,0,0,0,145,59C145.12,57.48,144.86,56,144.94,54.68ZM84.51,60.61c.18-.07.6.13.57-.32a5.87,5.87,0,0,1,.2-1.41c.29-1.6,0-3.24.3-4.83,0-.14.09-.32-.08-.43a.79.79,0,0,0-1.13.63,25.38,25.38,0,0,0-.18,5.37.76.76,0,0,1,0,.47C83.76,60.66,84.14,60.61,84.51,60.61ZM88.41,59c0,.3,0,.59,0,.89s0,.64.37.59.78,0,.82-.58c.06-1.07,0-2.14.09-3.22.05-.87.06-1.77.16-2.63.08-.69-.17-.67-.59-.63s-.61.39-.66.83C88.41,55.85,88.58,57.44,88.41,59Zm78.53-37.55a.77.77,0,0,0,0-.27c-.1-.35.2-.84-.07-1a1.18,1.18,0,0,0-1.11-.16c-.29.12-.29.45-.3.75a32.85,32.85,0,0,1-.14,4.49c-.07.41.22.58.54.54s.74.33.82-.41C166.85,24.08,166.89,22.77,166.93,21.47Zm-24.67,1.37a3.88,3.88,0,0,1,0,.55c-.15.91.45.75.91.81s.56-.39.55-.71c0-1.44.23-2.86.29-4.29,0-.28.11-.75-.32-.73s-1-.06-1.13.66C142.32,20.41,142.52,21.75,142.26,22.83Zm36.66,33.63c0-1.14,0-2.28-.1-3.42,0-.54-.26-.67-.69-.43a.73.73,0,0,0-.33.68c-.06,1.11-.2,2.21-.19,3.32a16.23,16.23,0,0,0-.1,1.9,1,1,0,0,0,1,.89c.42-.06.33-.52.35-.81C178.94,57.88,178.92,57.17,178.92,56.46ZM110.56,19c-.06-.3.17-.77-.13-.93a1.26,1.26,0,0,0-1.18,0c-.3.16-.25.52-.3.83-.19,1.19.12,2.41-.24,3.58a1.44,1.44,0,0,0,0,.41c0,.32.19.49.43.44s.84.23,1-.29A21.78,21.78,0,0,0,110.56,19Zm29,35.77h.12c0-.39,0-.78,0-1.17s0-.55-.3-.54-.65-.14-.82.36a4.28,4.28,0,0,0-.09,1.33,22.4,22.4,0,0,1-.25,4c-.06.29-.09.7.17.8a2.42,2.42,0,0,0,1,0s.11-.19.11-.29C139.52,57.8,139.52,56.29,139.53,54.78Zm28-.67h0c0-.18,0-.37,0-.55,0-.68-.49-.6-.88-.65s-.45.32-.44.67c0,.73.09,1.44,0,2.18s-.15,1.54-.18,2.31c0,.94,0,1,.86.91s.56-.69.58-1.12C167.53,56.61,167.5,55.36,167.51,54.11Zm41.9-21.28c.08-.32.05-.58-.25-.61s-.28.29-.31.53c-.12.8,0,1.61,0,2.39-.21,1.85-.07,3.71-.43,5.56a21.51,21.51,0,0,0-.18,5.44c0,.14-.09.36.13.37s.25-.17.27-.33a22,22,0,0,0,.26-5.21,2.29,2.29,0,0,1,0-.94,10.53,10.53,0,0,0,.37-2.82C209.27,35.74,209.28,34.27,209.41,32.83ZM78.78,18.59c-.09-.29.21-.79-.17-1.06a.87.87,0,0,0-1.3.79,41.49,41.49,0,0,1-.24,4.3.36.36,0,0,0,.17.4,1,1,0,0,0,1.37-.83C78.67,21,78.72,19.84,78.78,18.59ZM21.45,44.51c0-2.05-.29-4-.24-5.9,0-.27-.12-.41-.33-.36-.37.07-.73.2-.71.76a22.43,22.43,0,0,0,.11,4.1,11.63,11.63,0,0,0,.31,2.22c.11.24.21.35.44.37s.29-.22.38-.42S21.4,44.68,21.45,44.51ZM196,48.92a3.47,3.47,0,0,0,0-.43c0-.27.19-.76-.28-.71s-.73.16-.66.87c.12,1.4,0,2.82.1,4.23,0,.74-.06,1.48,0,2.21,0,.18,0,.4.24.32a1.47,1.47,0,0,0,.93-1.4C196.4,52.23,196.13,50.5,196,48.92ZM58,56.27c-.14.9.08,1.8,0,2.71a10,10,0,0,0,0,1.71c0,.24.15.46.4.42s.44-.11.43-.39c0-1.32.34-2.61.18-3.95a14.34,14.34,0,0,1,0-3.16c0-.48-.22-.6-.54-.66s-.39.21-.46.54A24,24,0,0,0,58,56.27Zm125.57-3.35c0-.2.15-.51-.15-.57s-.43.19-.46.5-.07.73-.13,1.08c-.18,1.09.06,2.19-.05,3.26s.13,2,.05,3.06a.73.73,0,0,0,.64.77c.4,0,.28-.4.35-.66a2,2,0,0,0,0-.8C183.63,57.37,183.73,55.14,183.56,52.92ZM124,54.58c0-.16,0-.32,0-.48.07-.92-.57-.5-.89-.55s-.21.32-.2.56a3.56,3.56,0,0,1,0,.88,6.14,6.14,0,0,0,.07,2.62,2.92,2.92,0,0,1,.08,1.6c-.12.35.07.52.4.43.12,0,.23-.11.35,0,.62.31.54-.18.5-.56A27.77,27.77,0,0,0,124,54.58Zm-61,3.9c-.15.53.25,1.08.26,1.69,0,.16,0,.34.15.41s.3-.08.42-.2a.8.8,0,0,0,.19-.56A21.53,21.53,0,0,0,64.1,56a8,8,0,0,1,.1-2.41c.12-.76-.21-.62-.57-.58s-.58.54-.56.89C63.17,55.41,63,56.88,63,58.47ZM84.18,18.31c0-.27,0-.55,0-.82s0-.31-.15-.41a.85.85,0,0,0-1.24.73c0,.47,0,1-.07,1.42-.12.84.1,1.68-.09,2.51s0,1.09.81.94c.41-.08.46-.44.53-.81C84.2,20.69,84.06,19.49,84.18,18.31Zm20.67,42.38c.57-.12.65-.67.69-1.17.14-1.75.36-3.5.49-5.26,0-.54-.09-.67-.47-.78s-.54.12-.6.52-.11.85-.15,1.29a30.06,30.06,0,0,1-.44,4.75C104.25,60.5,104.43,60.67,104.85,60.69ZM213.27,42.28a4.38,4.38,0,0,0,.38,1.5.34.34,0,0,0,.38.27c.21,0,.18-.26.2-.44a20.59,20.59,0,0,0,0-3.59c0-1.34-.11-2.67-.15-4,0-.41-.15-.71-.51-.68s-.31.47-.34.76c-.05.55.19,1.1.13,1.62C213.2,39.24,213.43,40.77,213.27,42.28ZM147.38,58.74c.14.33-.21.77.28.91s1-.18.93-.9a5.45,5.45,0,0,1,0-1,28.33,28.33,0,0,1,.13-3.85c.08-.42,0-.66-.51-.68s-.78.34-.79.87C147.38,55.66,147.38,57.23,147.38,58.74ZM112.5,21.23h0a7.7,7.7,0,0,1,0,1.5c-.14.66.32.78.59.74s.85.07.84-.67c0-1.47,0-2.94.07-4.41,0-.14,0-.26-.11-.35a.9.9,0,0,0-1.33.87C112.51,19.68,112.51,20.45,112.5,21.23Zm15.08,33.26h-.08c0-.18,0-.37,0-.55,0-.7-.46-.49-.78-.55s-.61.21-.57.6c.19,1.67.22,3.34.25,5,0,.26,0,.47.29.6.6.29.87,0,.86-.91C127.55,57.29,127.57,55.88,127.58,54.48ZM102.8,19c0-.58.12-1-.49-1-.46,0-.9-.08-.9.72s-.19,1.51-.12,2.24-.14,1.12-.1,1.69.49.54.86.56.55,0,.65-.53C102.93,21.35,102.54,20.06,102.8,19ZM67.46,20.88a6.06,6.06,0,0,0,0,1.73c.13.53.53.4.84.47.15,0,.3,0,.38-.29A16.22,16.22,0,0,0,69,18.45c0-.73-.6-.32-.92-.37-.51-.09-.74.22-.7.81S67.44,20.38,67.46,20.88Zm6.48,33.61c-.08-.41.22-1-.4-1.07s-.94.06-.85.94c0,.34,0,.69,0,1,.18,1.47-.14,2.94.08,4.41.06.35.12.63.5.6s.36-.34.36-.65c0-.81.12-1.62.1-2.44S73.87,55.41,73.94,54.49Zm87.7-30.12a3.42,3.42,0,0,0-.05.48c0,.58.42.57.78.64s.48-.07.51-.4a42.16,42.16,0,0,0,.29-4.72.48.48,0,0,0-.44-.53c-.68-.11-.89.07-.91,1A23.93,23.93,0,0,1,161.64,24.37Zm36.2,23.14a3.86,3.86,0,0,0-.06-.74c0-.18.06-.46-.18-.53s-.37.16-.53.28c-.45.36-.15.91-.16,1.32,0,1.76.09,3.52.15,5.28,0,.24,0,.44.26.56s.35-.09.5-.25c.66-.7.24-1.56.24-2.34A32,32,0,0,0,197.83,47.51Zm-4.13-22.33a5.14,5.14,0,0,0,0,.93c0,.21-.07.6.24.6s.26-.34.27-.56c0-.86.24-1.7.3-2.55.1-1.5.26-3,.39-4.48.05-.59.28-1.14.27-1.74,0-.25,0-.56-.28-.6s-.61.19-.61.45c0,.49-.24.89-.24,1.38,0,.92-.06,1.85-.11,2.76A26.72,26.72,0,0,0,193.71,25.18Zm-3.35-1.7c0,.84,0,1.69,0,2.53,0,.25-.14.58.32.51s.68,0,.63-.64c-.08-1.05,0-2.1,0-3.16a24.87,24.87,0,0,1,.12-3.54c0-.2,0-.43-.23-.47a.36.36,0,0,0-.44.27c-.07.38-.27.69-.33,1.09A25.44,25.44,0,0,0,190.36,23.47ZM77.6,54.5a1.16,1.16,0,0,1,0-.2c.1-.55-.12-.85-.59-.82s-.46.41-.49.79c-.14,1.81-.28,3.62-.44,5.42a.61.61,0,0,0,.16.54c.19.2.38,0,.58,0S77,60.12,77,60A34.94,34.94,0,0,0,77.6,54.5Zm76.46-30c.51.06,1,.12,1-.64q.06-2,.13-4.09c0-.32-.06-.47-.38-.55-.6-.15-.75.29-.81.73-.19,1.27-.33,2.55-.47,3.83C153.44,24.22,153.39,24.75,154.05,24.45Zm8.73,32.44h0c0,.52,0,1.05,0,1.57s.11.74.59.76.59-.3.55-.73a5.21,5.21,0,0,1,0-.68c.06-1.47.11-2.94.18-4.41,0-.25-.05-.39-.26-.45a.86.86,0,0,0-1.05,1C162.8,54.9,162.79,55.89,162.78,56.89Zm-11.48-38c-.45-.09-.61.11-.7.64-.23,1.35-.21,2.72-.34,4.07-.07.73.54.54.88.62s.52-.2.52-.62a24.94,24.94,0,0,1,.23-3.93C152,19,151.82,18.86,151.3,18.89ZM55.84,23a1.73,1.73,0,0,0,.23,1.13.39.39,0,0,0,.44.28c.21,0,.26-.2.28-.39.09-.86.21-1.72.23-2.59a24.46,24.46,0,0,1-.07-3.05c.06-.43-.18-.61-.55-.64s-.54.15-.56.54,0,.81-.08,1.22C55.66,20.69,56,21.81,55.84,23Zm105.47-2a6.93,6.93,0,0,1,.06-.87c.13-.65-.33-.49-.59-.53s-.6-.19-.71.41a22.64,22.64,0,0,0,0,3.64,2.68,2.68,0,0,0,.21,1.25c.14.31.28.4.54.38s.27-.25.31-.48A12.69,12.69,0,0,0,161.31,21Zm2.1,3.6c-.1.61.1,1,.62,1.07s.55-.44.59-.87.09-.58.13-.87a26,26,0,0,1,.2-3.23c.08-.31.06-.9-.51-.87-.36,0-.79,0-.78.6C163.67,21.85,163.5,23.24,163.4,24.6ZM81.66,17.3c-.79,0-.86.15-.88,1,0,1.36.31,2.71,0,4.07-.07.28.11.45.38.49.65.1,1-.2,1-1.11,0-1.25-.07-2.51,0-3.75C82.17,17.35,82.18,17.13,81.66,17.3Zm98.95,35.61c.07-.37-.12-.49-.45-.5s-.62,0-.61.53c0,1.07,0,2.13.06,3.2s0,2.09,0,3.14c0,.48.29.67.63.65s.31-.43.31-.73c0-.13-.06-.27-.05-.4C180.61,56.85,180.38,54.9,180.61,52.91ZM63.41,21.62a26.7,26.7,0,0,0-.17-3.06c0-.42-.24-.44-.54-.41s-.6,0-.59.48c0,1.49-.14,3,0,4.46,0,.31.16.44.43.45.64,0,.89-.24.89-1C63.41,22.26,63.41,21.94,63.41,21.62Zm8,0c-.05,1.26,0,1.34.76,1.31s.57-.54.61-1c.09-1.2.16-2.4.24-3.6,0-.41,0-.67-.47-.68s-.89-.06-.88.61C71.67,19.4,71.43,20.49,71.4,21.6Zm46.3,33.67c0-.35,0-.53,0-.71,0-.36.11-.76-.42-.77s-.8.09-.77.73c0,.3,0,.6,0,.89a22.44,22.44,0,0,1,.2,3.66c0,.73.31.77.79.76s.42-.62.38-.79C117.52,57.73,118,56.4,117.71,55.27Zm14.62-34.62a5.49,5.49,0,0,1,0-1.48c0-.26,0-.62-.3-.55s-1-.24-1,.36a32.6,32.6,0,0,0-.25,4.15c.07.77.74.11,1,.54a.25.25,0,0,0,.39,0,.42.42,0,0,0,.1-.31A21.72,21.72,0,0,1,132.32,20.66ZM76.57,19.48c0-.43,0-.66,0-.88s0-.46,0-.69,0-.37-.18-.46a.79.79,0,0,0-1.08.78c-.1,1.45.23,2.91-.19,4.35-.1.36.18.49.45.45s.81.36.82-.3A19.17,19.17,0,0,0,76.57,19.48Zm45.31,40.24c.31,0,.56-.18.57-.58a14.21,14.21,0,0,0,0-1.5,14.85,14.85,0,0,1-.09-3.41.52.52,0,0,0-.5-.68c-.36,0-.66.1-.64.59.07,1.69,0,3.4.19,5.09C121.42,59.56,121.53,59.73,121.89,59.72ZM58.62,19.92h-.05c0-.41-.1-.81-.11-1.22s-.07-.71-.53-.69-.53.41-.5.76c.08,1.35-.08,2.7,0,4.06,0,.29.18.51.15.79s-.18.66.24.53.88.14.85-.65C58.58,22.31,58.62,21.11,58.62,19.92Zm14.74,2c0,.15,0,.35,0,.56s-.12.59.23.55.79.22,1-.32a5,5,0,0,0,.2-1.13c.09-1.14-.16-2.28,0-3.42,0-.31,0-.66-.36-.62s-.77,0-.81.58C73.52,19.41,73.44,20.65,73.36,22Zm51.71.26c.1.38-.42,1,.45,1.07.46,0,.63-.12.67-.58a3.69,3.69,0,0,1,.11-.81,9.72,9.72,0,0,0,.3-3c0-.33-.13-.63-.53-.57s-.7-.11-.83.53A11.15,11.15,0,0,0,125.07,22.22Zm24.81-2.62c.14-.87-.32-.8-.69-.9s-.36.29-.42.53a3.53,3.53,0,0,0-.05.54c-.11,1.26-.39,2.49-.42,3.75,0,.23,0,.45.22.58.66.34,1.2,0,1.2-.76C149.72,22,149.82,20.72,149.88,19.6ZM93.3,53.92a.32.32,0,0,0-.2-.41.44.44,0,0,0-.6.17,1.42,1.42,0,0,0-.16.65c-.12,1.4-.27,2.8-.38,4.2a7.24,7.24,0,0,0-.15,1.87c0,.28.16.41.37.44a.38.38,0,0,0,.48-.31,13.51,13.51,0,0,0,.41-2.72A22.92,22.92,0,0,1,93.3,53.92Zm30.32-30.74c.6.13.74-.15.76-.78a20.2,20.2,0,0,1,.13-3.58.42.42,0,0,0-.36-.58c-.6-.13-1,.21-1.1,1-.16,1.05,0,2.12-.09,3.18C122.9,23,123.09,23.31,123.62,23.18ZM183.48,25c0,.5,0,.86,0,1.23,0,.55.33.64.68.67s.42-.31.42-.65c0-1.3.05-2.61.09-3.91a4.56,4.56,0,0,0,0-1.27c-.08-.34-.17-.58-.56-.53s-.47.32-.46.66C183.66,22.52,183.39,23.82,183.48,25ZM70.2,22.9c.37.09.53-.14.61-.62.21-1.39,0-2.81.24-4.19a.24.24,0,0,0-.14-.27.94.94,0,0,0-1.19.67c-.23,1.16-.05,2.36-.34,3.52A.79.79,0,0,0,70.2,22.9ZM60.46,55.55a11.2,11.2,0,0,0-.08-2c0-.28,0-.55-.4-.53s-.36.27-.37.56a40.77,40.77,0,0,0,0,4.62c0,.46-.08.91-.08,1.36s.27,1.18.57,1.2.36-.66.37-1.08C60.45,58.32,60.45,56.94,60.46,55.55Zm70-35.62h0c0-.27,0-.55,0-.82,0-.9-.66-.54-1.05-.6s-.29.39-.31.65c0,.57,0,1.13,0,1.7A11.27,11.27,0,0,0,129,23c.05.43.29.54.58.54s.56.07.59-.45C130.21,22,130.34,21,130.44,19.93Zm8.58-.67c-.06-.33.17-.81-.4-.81s-.87.11-.84.82a7.87,7.87,0,0,1-.06,2c-.17.77.07,1.61-.35,2.34-.17.28-.05.44.29.42.85-.07,1.16-.34,1.19-1.3C138.87,21.54,138.87,20.38,139,19.26ZM101.4,57.32c-.06.63-.18,1.74-.28,2.85,0,.24-.18.64.21.63s.63,0,.64-.6a16.88,16.88,0,0,1,.25-2.84c.22-1.17.18-2.35.3-3.51,0-.32,0-.52-.37-.56s-.57.09-.56.5C101.62,54.8,101.44,55.81,101.4,57.32Zm23.41,1.37a2.34,2.34,0,0,1,0,.55c-.18.71.35.52.61.59s.38-.27.41-.56c.06-.5-.1-1-.06-1.48a11.16,11.16,0,0,0-.32-3.95c-.18-.63-.61-.36-.91-.28s-.14.4-.05.61a2.14,2.14,0,0,1,.23.84C124.68,56.24,124.73,57.47,124.81,58.69Zm3.44-39.58c-.09-.14.36-.75-.28-.8-.4,0-.77,0-.8.66-.06,1.19-.17,2.38-.23,3.58,0,.73.15.91.94.88.59,0,.61-.55.53-1C128.2,21.37,128.47,20.32,128.26,19.11Zm60.53,5.1c0,.34,0,.69,0,1a1.14,1.14,0,0,0,.22.69c.09.16.22.3.39.29s.18-.24.19-.43c0-.45.12-.89.14-1.34.07-1.57.11-3.15.19-4.72,0-.45-.17-.57-.46-.44s-1-.07-.46.74a.28.28,0,0,1,0,.2C188.58,21.53,188.93,22.89,188.79,24.21ZM159.55,57.76a2.8,2.8,0,0,0,0,1.08c.07.26.2.51.51.49s.43-.27.43-.56c0-1.59.17-3.16.26-4.73,0-.72-.52-1.12-1.11-.83a.2.2,0,0,0-.14.25A34.35,34.35,0,0,1,159.55,57.76ZM35.31,27.33a1.09,1.09,0,0,0,0-.21c0-.2.12-.54-.18-.54s-.14.33-.17.52a34.57,34.57,0,0,0,0,5.5,41,41,0,0,0,.56,4.48c0,.06,0,.16,0,.17s.17-.08.16-.15c-.05-.51.21-1,.19-1.46-.06-1.3-.13-2.6-.22-3.9C35.56,30.26,35.49,28.79,35.31,27.33Zm74.83,33c.6,0,.77-.28.82-1.14.1-1.64.19-3.27.33-4.9,0-.36,0-.63-.31-.63s-.58,0-.59.54a31.28,31.28,0,0,1-.63,5.53C109.66,60.16,109.77,60.37,110.14,60.31Zm36.62-5.44h-.11q0-.27,0-.55c0-.21,0-.41,0-.62s-.06-.41-.32-.49c-.51-.16-.64.1-.67.88a42.87,42.87,0,0,1,0,4.9.44.44,0,0,0,.27.53c.52.24.79,0,.8-.65C146.75,57.54,146.76,56.2,146.76,54.87Zm-26,.73a8.79,8.79,0,0,0-.16-1.62c-.12-.52-.46-.24-.69-.29s-.33.21-.34.45c0,.58,0,1.17,0,1.75.09,1.13.26,2.24.33,3.37,0,.5.31.5.56.53s.29-.28.32-.53C120.87,58,120.53,56.82,120.74,55.6Zm30.61,1.52c0,.6.05,1.15.08,1.69,0,.32,0,.74.38.7s.48-.36.48-.75,0-1,.08-1.49c.11-1.06.11-2.13.16-3.2,0-.52-.22-.66-.63-.68s-.41.27-.47.61C151.24,55.05,151.54,56.12,151.35,57.12Zm35.89-32.65a2.09,2.09,0,0,0,.11,1.13c0,.22.13.4.36.37s.27-.23.3-.45a26.67,26.67,0,0,0,.18-5.26c0-.19.2-.58-.22-.55s-.72,0-.78.57c0,.11,0,.23,0,.34A24.67,24.67,0,0,0,187.25,24.47ZM121.87,18.2c-.28,0-.65-.2-.7.35a4,4,0,0,0,0,1.06,10.1,10.1,0,0,1,0,2.77c0,.46,0,.81.41.87s.75.09.78-.61c0-.42.06-.85.06-1.28a12.18,12.18,0,0,1,0-2.5C122.48,18.34,122.44,18,121.87,18.2ZM19.79,41.6a5.33,5.33,0,0,0-.3-2.21c-.06-.14,0-.33-.21-.37a.41.41,0,0,0-.44.17,1.22,1.22,0,0,0-.28.92,16.83,16.83,0,0,1,.14,2.23,14.22,14.22,0,0,0,.22,1.82c.11.5.4.76.76.68s.4-.58.32-1A11.58,11.58,0,0,1,19.79,41.6ZM181.25,58.81h0c0,.34,0,.68,0,1s.18.38.41.38.37-.07.33-.35a5.78,5.78,0,0,1,0-.74c0-2.06,0-4.11.06-6.17,0-.21,0-.36-.19-.45s-.3,0-.42.17a.89.89,0,0,0-.18.62C181.27,55.14,181.26,57,181.25,58.81Zm-44.81-35c.33.07.61.1.41-.44a.44.44,0,0,1,0-.27c.41-1.29.15-2.65.31-4,0-.23.2-.73-.22-.68s-.9-.15-.89.68c0,1.33-.25,2.64-.19,4C135.87,23.77,136,23.91,136.44,23.84Zm79.48,13.59c0-.25,0-.5,0-.75s-.32-.46-.56-.52-.37.14-.37.37c0,.74-.06,1.48,0,2.22a27.48,27.48,0,0,1,.14,4.42c0,.29-.07.77.27.82s.38-.44.4-.77a5.35,5.35,0,0,0-.07-.67,2.1,2.1,0,0,1-.05-.8C216.06,40.34,215.67,38.85,215.92,37.43ZM140.69,23.11a5.67,5.67,0,0,0,0,.69c.08.44.45.29.69.38s.29-.18.23-.31c-.21-.46.13-.82.15-1.24,0-1.15.09-2.3.17-3.44,0-.54-.23-.7-.59-.7a.62.62,0,0,0-.63.74A16,16,0,0,1,140.69,23.11Zm-20.15-4.16c0-.32.18-.73-.16-.94a.71.71,0,0,0-.82,0c-.29.24-.15.61-.11,1a8.09,8.09,0,0,1,0,1,20.2,20.2,0,0,0,.06,2.6c.05.33,0,.72.52.64s.45-.33.52-.7A17.39,17.39,0,0,0,120.54,18.94ZM65.3,21.27a8,8,0,0,0-.37-2.62c-.08-.41-.35-.45-.65-.45s-.33.2-.32.46c0,1.28.07,2.57.11,3.85,0,.34.12.66.49.65s.57,0,.65-.53A7.26,7.26,0,0,0,65.3,21.27Zm63.82,33.67c0-.39,0-.78,0-1.16,0-.18.14-.65-.08-.51s-.71-.15-.81.49a10.06,10.06,0,0,0,0,2.17,17.5,17.5,0,0,0,.18,3.18c.09.37.21.37.44.36s.29-.17.33-.44A30.72,30.72,0,0,0,129.12,54.94Zm51.17-29.47c0,.59.1,1,.56,1.11.3.05.53-.23.55-.59a27.16,27.16,0,0,0-.12-4.94c0-.2,0-.43-.28-.45s-.37.15-.43.4a2.69,2.69,0,0,0-.11.59A23.37,23.37,0,0,1,180.29,25.47ZM100.73,19c0-.43.12-.86-.5-.94s-.59.38-.66.79c-.21,1.14,0,2.3-.16,3.45,0,.26-.23.68.25.62s1,.46,1-.51A23.61,23.61,0,0,1,100.73,19Zm-8.55.1c0-.34,0-.69,0-1,.07-.68-.38-.58-.72-.62s-.39.32-.44.64.17.75.06,1.15A7.21,7.21,0,0,0,91,21.87c0,.29-.11.59.33.58s.58,0,.71-.52A11.91,11.91,0,0,0,92.17,19.09ZM171,22.57h0c0-.48,0-1,0-1.44s0-.74-.39-.79-.43.36-.47.65a44,44,0,0,0-.3,4.68c0,.33.11.49.43.49s.67-.22.66-.74C171,24.47,171,23.52,171,22.57ZM133.4,23.64c.24,0,.5.05.53-.36a10.1,10.1,0,0,0,.13-2.9,3.34,3.34,0,0,1,0-1.08c0-.35.06-.6-.31-.64s-.65,0-.69.45a9.11,9.11,0,0,0-.12,1.55,8.14,8.14,0,0,1,0,2.21C132.74,23.47,132.92,23.65,133.4,23.64Zm35-.47h0c0,.78,0,1.55,0,2.33a.42.42,0,0,0,.39.49c.27.05.37-.13.42-.37a1.48,1.48,0,0,0,.06-.4c-.12-1.52.27-3,.22-4.54,0-.42-.12-.53-.43-.54s-.62-.06-.6.5C168.47,21.48,168.44,22.33,168.44,23.17ZM60,20.94a15.53,15.53,0,0,0-.17-2.38c0-.26-.07-.57-.43-.54s-.4.31-.39.59a21.76,21.76,0,0,0,.25,4.81c.09.33.19.49.5.41s.51-.14.41-.58A12.47,12.47,0,0,1,60,20.94ZM38.37,57.36a15.86,15.86,0,0,0,.21,3.71c0,.21.12.39.28.38S39,61.17,39,61c0-.85.07-1.7.05-2.55a30.14,30.14,0,0,0-.41-6.13c-.06-.26.08-.73-.25-.73s0,.43,0,.67a2.4,2.4,0,0,0,0,.54C38.24,54.33,38.54,55.84,38.37,57.36Zm137.72-1.47h0c0,.8,0,1.6,0,2.4,0,.35,0,.65.42.67s.36-.36.37-.63q.12-2.54.2-5.09c0-.27-.06-.57-.4-.56a.54.54,0,0,0-.54.6C176.09,54.15,176.1,55,176.09,55.89Zm17-3.42a13.58,13.58,0,0,0-.15-2.4c0-.12,0-.31-.18-.32s-.2.2-.22.34a42.17,42.17,0,0,0-.09,5.15c0,1,.2,2.06.12,3.11,0,.16,0,.35.17.38s.25-.14.28-.3a2,2,0,0,0,.06-.54C193,56.07,193.36,54.26,193.09,52.47ZM85.9,18.1c0-.84-.15-1.05-.66-.9s-.45.52-.45.87a33.43,33.43,0,0,1-.23,3.81c0,.36,0,.68.47.68s.63-.16.61-.68a5.07,5.07,0,0,1-.05-1C85.74,19.92,85.81,19,85.9,18.1Zm28.55,3.52c0,.39.1.78.12,1.16s.25.46.54.48.42-.19.42-.51c0-1.42,0-2.85,0-4.27,0-.35,0-.62-.43-.61s-.54.2-.54.62A15,15,0,0,1,114.45,21.62Zm54.65,33.47a8.09,8.09,0,0,0,0-1c-.05-.37.27-1-.36-1s-.48.63-.62,1a.44.44,0,0,0,0,.14c0,1.09,0,2.18,0,3.27a2.64,2.64,0,0,0,.11,1c.07.16.11.37.32.35a.44.44,0,0,0,.41-.34,1.59,1.59,0,0,0,.11-.6C168.9,56.89,169.25,55.93,169.11,55.09Zm-3.61.85a16.19,16.19,0,0,0,0-2.46c0-.16,0-.52-.26-.53a.48.48,0,0,0-.47.26,1.63,1.63,0,0,0,0,.47c-.15,1.6.05,3.21-.15,4.81,0,.31,0,.57.38.58s.56,0,.56-.49C165.48,57.62,165.49,56.67,165.49,55.93ZM116,55.87h0c0-.54-.09-1.09-.13-1.63a.45.45,0,0,0-.55-.47c-.3,0-.31.27-.31.55,0,1.67.17,3.33.31,5,0,.31-.06.59.43.55s.37-.41.36-.66C116.12,58.09,116.05,57,116,55.87Zm-1.26,1.35h-.13c0-1,0-1.94,0-2.9,0-.26-.09-.73-.49-.63s-.37.44-.29.78c0,0,0,0,0,.06a15.5,15.5,0,0,1-.18,4.78c0,.19-.28.44,0,.6a1.12,1.12,0,0,0,.82,0c.33-.06.23-.33.24-.53C114.75,58.67,114.74,57.94,114.74,57.22ZM159.5,21.92c0-.59,0-1.18,0-1.77,0-.26.1-.65-.31-.68s-.47.25-.47.62-.09.73-.09,1.09c0,.84-.29,1.65-.2,2.5,0,.37.22.75-.17,1-.09.06-.08.28,0,.27.34,0,.68.27,1,.06s.26-.55.22-.87A12.65,12.65,0,0,1,159.5,21.92Zm13.22-.35a2.17,2.17,0,0,0,0-.57c-.14-.33-.31-.68-.71-.59a.62.62,0,0,0-.45.69,18.69,18.69,0,0,1,0,3.79,2.38,2.38,0,0,0,.2,1,.36.36,0,0,0,.45.26c.19,0,.15-.22.16-.38,0-.5.09-1,.12-1.51A10.62,10.62,0,0,1,172.73,21.57ZM119.2,57.37a17.53,17.53,0,0,1-.1-2.38,2.69,2.69,0,0,0-.13-.94.36.36,0,0,0-.43-.29.34.34,0,0,0-.28.39c.13,1.09-.18,2.17-.07,3.25.06.63.12,1.27.16,1.9,0,.29,0,.64.37.64s.46-.31.46-.66Q119.2,58.32,119.2,57.37Zm80.4-7.93c-.16-1.53-.31-3.05-.48-4.58,0-.11,0-.32-.21-.25s-.06.19,0,.3a.8.8,0,0,1,0,.47,15.07,15.07,0,0,0-.23,3.52,15.55,15.55,0,0,1,.12,3c0,.22.06.47.34.44s.4-.14.41-.48C199.55,51,199.62,50.25,199.6,49.44ZM96.71,18.16c-.28-.09-.47,0-.52.37A13.46,13.46,0,0,0,96,20.19c0,.69.3,1.45-.19,2.12a.24.24,0,0,0,.25.39,1.38,1.38,0,0,1,.78,0c.13,0,.26,0,.22-.21a11.68,11.68,0,0,1,.27-3.58C97.43,18.24,97.2,18.15,96.71,18.16ZM182.11,25a5.18,5.18,0,0,1,0,1.16c0,.16,0,.34.13.41a.37.37,0,0,0,.45-.12.91.91,0,0,0,.21-.63c-.12-1.5.17-3,.15-4.49,0-.38,0-.76-.46-.78s-.64.23-.63.76A35.68,35.68,0,0,1,182.11,25Zm-3.26-.6c0,.57,0,1.05,0,1.53,0,.25.13.51.4.51s.29-.23.33-.48c.29-1.63,0-3.31.35-4.94.09-.41-.29-.42-.55-.44s-.56.09-.5.43C179.11,22.17,178.66,23.32,178.84,24.39ZM80.2,18.07c-.14-.1.11-.63-.36-.61s-.39.33-.39.69a18.77,18.77,0,0,1-.1,2.71c-.09.6.26,1.46-.59,1.78-.11,0-.11.23.07.28,1,.26,1.6-.3,1.56-1.45A26.48,26.48,0,0,1,80.2,18.07Zm18.72.59c.14-.43-.15-.46-.45-.51s-.5,0-.54.34a25.43,25.43,0,0,0-.26,4.18.23.23,0,0,0,.12.21.65.65,0,0,0,.94-.59C98.79,21.09,98.85,19.91,98.91,18.66Zm63.3,37.65c.06-.82-.17-1.68-.08-2.55,0-.22.2-.53-.18-.57s-.42.21-.46.51a43.15,43.15,0,0,0-.31,4.52c0,.4.23.81.6.79s.46-.4.43-.82C162.18,57.58,162.21,57,162.21,56.31Zm-6.68.79c-.07-1.14-.13-2.17-.22-3.19,0-.2,0-.49-.33-.49s-.34.27-.35.48a19.74,19.74,0,0,0-.11,2.45c0,.77,0,1.54,0,2.31,0,.25-.2.58.21.63s.53-.09.62-.49C155.52,58.2,155.35,57.56,155.54,57.1ZM173,24.5c.06.49-.11.82,0,1.16s0,.63.39.6.52-.16.62-.58a8,8,0,0,0-.11-1.82,20,20,0,0,1,.25-2.54c.05-.38.09-.78-.41-.79s-.58.43-.53.8a4,4,0,0,1,0,1.42A17,17,0,0,1,173,24.5Zm-66.65,35c0,.41,0,.88.26.94s.34-.42.35-.71c.08-1.79.45-3.55.46-5.34,0-.28.26-.71-.17-.81s-.48.38-.58.72a1.29,1.29,0,0,0-.06.39C106.68,56.34,106.21,57.94,106.34,59.52ZM147,23.24c0,.08.05.26.08.44s.26.5.51.47.29-.33.29-.55c-.06-1.48.29-2.92.28-4.4,0-.35.08-.64-.32-.7s-.54.26-.57.62C147.13,20.47,147.05,21.81,147,23.24Zm74.34,17L221.18,39c0-.4-.32-.48-.6-.57s-.32,0-.36.24a9.7,9.7,0,0,0-.09,3.63c0,.32.2.55.59.51s.5-.31.49-.63A11.16,11.16,0,0,1,221.3,40.29Zm-203,2.46c.06-.76-.12-1.6-.12-2.44,0-.27.05-.67-.36-.65s-.6.19-.6.68c0,1.23,0,2.46,0,3.69a.28.28,0,0,0,.2.29c.61.24,1-.09.93-.81C18.36,43.29,18.35,43.06,18.34,42.75Zm135.54,13.5h0c0-.75,0-1.51,0-2.26,0-.25,0-.55-.31-.56s-.26.26-.33.48a13.82,13.82,0,0,0-.16,2.1,23.16,23.16,0,0,0-.13,2.78c0,.33.16.66.51.63s.48-.34.47-.73C153.93,57.87,153.9,57.06,153.87,56.24Zm-41.62,9.92c-.33-.14-.63.32-1,.36-.64.07-1.28.25-1.91.38-.42.08-.42.36-.25.7.35.69.74.84,1.38.5a6.75,6.75,0,0,0,2.2-1.26c.13-.14.29-.31.22-.53S112.54,66.23,112.26,66.16ZM60.87,21.9c0,.29,0,.59,0,.88s-.12.67.3.69.46-.35.47-.62c.06-1.43.08-2.87.09-4.3,0-.37-.27-.48-.55-.51s-.3.19-.34.47A23.28,23.28,0,0,0,60.87,21.9ZM89.31,20c0,.58,0,1.22,0,1.86,0,.32.1.54.41.55s.39-.21.42-.48a21.39,21.39,0,0,0,.18-4.07c0-.23,0-.5-.3-.49s-.5,0-.58.36a2.1,2.1,0,0,0-.1.66A6.7,6.7,0,0,1,89.31,20Zm52.92,38.22c0,.23,0,.46,0,.68s-.14.67.27.7.46-.29.47-.68c0-1.32.08-2.63.15-4,0-.48.09-.95.15-1.42,0-.28-.07-.45-.31-.49s-.32.14-.36.37a3.2,3.2,0,0,0-.09.4C142.42,55.31,142.38,56.78,142.23,58.24Zm16.61-4.51c0-.22.21-.49-.14-.5-.19,0-.43,0-.48.29a19.55,19.55,0,0,0,0,5.08c0,.2.14.45.41.42s.19-.31.23-.48a3.44,3.44,0,0,0,.07-.67A30.41,30.41,0,0,0,158.83,53.73ZM145.24,20.9h0c0-.64,0-1.27,0-1.91,0-.22-.08-.47-.34-.48s-.37.23-.36.46c0,1.54-.29,3.05-.29,4.59,0,.46,0,.46.32.25,0,0,.12,0,.18,0,.39,0,.48-.2.48-.59C145.23,22.44,145.24,21.67,145.24,20.9Zm-34.48,1.83c-.07.55.17.67.61.65s.47-.32.5-.68c.12-1.45-.23-2.91,0-4.36,0-.22-.07-.35-.27-.35s-.33.11-.35.36C111.1,19.81,111,21.29,110.77,22.73ZM153.48,20a2.48,2.48,0,0,1,0-.34c0-.35,0-.65-.41-.64s-.42.34-.44.66-.06.45-.09.67a8.26,8.26,0,0,0-.07,3.43c0,.17-.06.48.23.47s.36-.25.36-.48C153.06,22.45,153.41,21.2,153.48,20Zm19.75,33.29c0-.19,0-.4-.22-.39a.46.46,0,0,0-.5.46,23.34,23.34,0,0,0-.1,4.88c0,.2.09.35.3.34a.33.33,0,0,0,.32-.34c0-.42.18-.81.18-1.19A35.1,35.1,0,0,1,173.23,53.27ZM66.72,20.54c0-.62,0-1.23,0-1.85a.54.54,0,0,0-.64-.55c-.36,0-.35.36-.3.62s-.05.77,0,1.14a10.28,10.28,0,0,1,.05,2.52c0,.23-.21.55.17.56s.61.17.69-.38A10.65,10.65,0,0,0,66.72,20.54Zm26.16-.6h0c0,.66,0,1.32,0,2,0,.26,0,.63.44.58s.3-.33.36-.6c.24-1.18-.14-2.39.23-3.56.12-.39-.26-.51-.54-.57s-.52.06-.52.47C92.9,18.81,92.89,19.38,92.89,19.95Zm-6.48-.39c-.07.81-.12,1.62-.21,2.42,0,.21-.14.42.08.53a.74.74,0,0,0,.71,0c.2-.11.2-.27.13-.51a1.78,1.78,0,0,1-.05-.81,14.66,14.66,0,0,0,.08-3.39c0-.2,0-.43-.25-.45s-.34.1-.39.39A13.59,13.59,0,0,0,86.41,19.55Zm8,1.54h0c0,.34,0,.68,0,1s.27.49.54.5.38-.11.39-.46a11.57,11.57,0,0,1,.2-3.39A.62.62,0,0,0,95,18c-.44-.07-.42.32-.44.63C94.53,19.42,94.48,20.26,94.44,21.1ZM17,41.67h0c0-.3,0-.59,0-.89,0-.68-.26-.87-.8-.56a.9.9,0,0,0-.4.72,16.05,16.05,0,0,0,.11,2.44c0,.41.37.38.62.38s.43-.22.43-.54Q17,42.46,17,41.67ZM88.63,19.83c0-.64,0-1.29,0-1.93,0-.26,0-.58-.24-.62s-.41.2-.47.52,0,.45-.07.67c-.14,1.22.26,2.47-.16,3.67,0,.13,0,.16.1.19a.65.65,0,0,0,.82-.48A8.29,8.29,0,0,0,88.63,19.83Zm129.77,21a15,15,0,0,0,.22,1.82c.07.24.19.34.4.31s.36-.12.36-.38c0-.66,0-1.31-.05-2a7.72,7.72,0,0,1,.14-2.28c.06-.28.07-.44-.17-.52s-.4,0-.45.31A11.52,11.52,0,0,1,218.4,40.84ZM145.73,23.09c0,.28,0,.4,0,.51,0,.3,0,.59.35.59s.25-.34.26-.57c.06-.82.12-1.65.17-2.47s.07-1.39.07-2.09c0-.26-.1-.53-.38-.53s-.34.23-.35.52C145.83,20.45,145.84,21.86,145.73,23.09Zm-5.54-2.91c0-.29-.05-.59-.09-.88s.11-.55-.14-.58-.22.34-.3.54a.87.87,0,0,0,0,.27c-.09,1.16-.19,2.32-.27,3.49,0,.41,0,1,.4,1s.43-.56.44-1A25.63,25.63,0,0,0,140.19,20.19Zm83.54,22a.63.63,0,0,0,.79-.52,6.86,6.86,0,0,0,0-2.12c-.1-.32-.35-.26-.56-.27s-.42,0-.41.29c0,.79-.38,1.52-.18,2.35C223.41,42.26,223.47,42.32,223.72,42.23ZM135.31,21c0-.73,0-1.37,0-2,0-.21-.07-.36-.27-.38s-.23.16-.28.31a1.72,1.72,0,0,0-.08.46,33.11,33.11,0,0,1-.12,3.83c0,.32.09.56.4.53a.47.47,0,0,0,.39-.58A21.17,21.17,0,0,1,135.31,21Zm36.4,33c0-.24,0-.33,0-.42,0-.31.06-.69-.41-.63s-.32.44-.27.73a3.13,3.13,0,0,1,.17,1.07c-.2,1.13,0,2.28-.18,3.4,0,.24-.08.55.25.58s.3-.28.32-.52C171.67,56.73,171.37,55.27,171.71,54Zm-1.38,1.29c.09-.35-.1-.75-.05-1.16,0-.18,0-.48-.25-.46s-.19.29-.16.46a10.21,10.21,0,0,1-.22,2.9,3.5,3.5,0,0,0,0,1.08c.05.24,0,.57.28.59s.36-.34.42-.63A17.06,17.06,0,0,0,170.33,55.25ZM200,43.2c0,.54,0,1.08.07,1.63,0,.3,0,.59.06.89,0,.11.06.25.18.24s.16-.15.17-.3c0-.45.1-.91.12-1.36a7.8,7.8,0,0,0,.1-2.75c0-.08,0-.22-.05-.24s-.15.1-.19.2A3.62,3.62,0,0,0,200,43.2ZM15.29,41.11c0-.19.2-.63-.32-.66-.35,0-.64.13-.65.55a12.44,12.44,0,0,0,.1,1.63.53.53,0,0,0,.6.54c.33,0,.37-.33.36-.6C15.37,42.12,15.32,41.67,15.29,41.11ZM40.2,6.25a11.88,11.88,0,0,0,.45,1.43c.17.38.43.27.6-.06a3.39,3.39,0,0,0-.08-2.25c0-.12-.15-.11-.26-.12C40.41,5.21,40.2,5.45,40.2,6.25ZM2.75,40.84a1.32,1.32,0,0,0-1.14.42.42.42,0,0,0-.14.47c0,.2.12.31.32.33s.6.1.89.16c.48.1.79-.07.84-.65S3.3,40.74,2.75,40.84ZM194,54.26a8,8,0,0,1-.12,1.93c-.05.24,0,.57.27.6s.2-.34.28-.53,0-.18,0-.27q0-2-.09-4c0-.19.19-.51-.15-.51s-.16.29-.16.48A17.52,17.52,0,0,1,194,54.26Zm32.36-13.5c.09-.72-.16-1.09-.64-1.07s-.48.55-.44.95-.11,1.14.53,1.16S226.18,41,226.31,40.76Zm10.13,1.3a.85.85,0,0,0,.75-.79c0-.45-.38-.66-.75-.73s-1.1.66-1,.94A1,1,0,0,0,236.44,42.06ZM222,40.78c0,.34,0,.73,0,1.11,0,.22,0,.44.29.41s.2-.25.18-.43a7.68,7.68,0,0,1,.05-1.28,4.42,4.42,0,0,0,.07-1.22c0-.16-.05-.34-.24-.34s-.17.17-.21.29C222,39.78,222.12,40.27,222,40.78ZM10.94,41.3c-.33.2-.85.15-1,.68-.08.22.78.64,1.24.58s.43-.32.44-.64S11.36,41.32,10.94,41.3Zm3.11.83c-.17-.39-.11-1.16-.6-1.21S13,41.59,13,42s.34.71.68.78S14,42.5,14,42.13ZM40.16,70c0-.28-.07-.56-.31-.63s-.31.21-.41.4a.79.79,0,0,0,0,.94c.1.13.21.25.36.17C40.14,70.73,40,70.31,40.16,70Zm127.61-45.2c-.06-.23.18-.68-.15-.71s-.27.48-.24.75-.19,1,.09,1S167.73,25.22,167.77,24.84Zm21.45,45.35c-.11-.31.1-.82-.36-.95-.25-.07-.25.27-.21.45.07.34,0,.79.39.92S189.2,70.38,189.22,70.19ZM36.43,29.86c0-.21,0-.49-.18-.66,0,0-.14,0-.16,0a.75.75,0,0,0-.05.7s0,0,0,.07c.06.26,0,.76.18.72S36.36,30.17,36.43,29.86Zm-24,12c-.06-.13,0-.43-.16-.43s-.2.34-.25.54,0,.39.24.37S12.43,42,12.46,41.81ZM167.79,21.6c-.06-.11.06-.37-.11-.38s-.18.25-.19.41,0,.41.1.41S167.73,21.78,167.79,21.6ZM36.13,27.38,36,27.12c-.14.06-.12.22-.15.34s0,.25.13.23S36.13,27.54,36.13,27.38ZM194,49.84a.17.17,0,0,0-.12.21c0,.11,0,.29.08.31s.12-.12.13-.22S194.15,49.91,194,49.84Zm5.5-40.62a.28.28,0,0,0,.16-.26c0-.1-.06-.17-.15-.13s-.12.16-.12.28S199.46,9.23,199.54,9.23ZM227.84,41a1.26,1.26,0,0,0-.25-.14c-.07,0-.12,0-.11.12a.14.14,0,0,0,.18.13S227.76,41,227.84,41ZM86,15.4c0,.15-.09.23-.1.31s0,.14.09.12a.48.48,0,0,0,.18-.14A2.4,2.4,0,0,0,86,15.4Zm81.67,7.52c0-.11,0-.22-.13-.21s-.07.11-.07.16,0,.19.13.18S167.66,23,167.68,22.92Zm-18.4-5.67.1-.07s-.06-.1-.11-.12-.07.05-.11.08Z"/><path class="236e8e8f-a410-4074-9d2a-10587cdbc11f" d="M225.27,44.63a4.87,4.87,0,0,1,2.25.31,2.49,2.49,0,0,1,1.4,1.76.95.95,0,0,1-1.23,1.14c-.24-.05-.16-.32-.16-.52,0-1.06-.35-1.36-1.3-1.53a8.06,8.06,0,0,0-2.89.34c-1.58.28-3.15.65-4.71,1.05a16.18,16.18,0,0,0-4.43,2c-.78.48-1.65.77-2.43,1.24-1.21.72-2.38,1.52-3.55,2.32-.7.48-1.41,1-2.14,1.4a22,22,0,0,0-2.85,2.08,41.35,41.35,0,0,0-4,3.78A20.15,20.15,0,0,0,195.69,65a5.5,5.5,0,0,0-.61,3.45c.24,1.23.86,1.66,1.79,1.36a1.13,1.13,0,0,0,.75-1,1.81,1.81,0,0,1,.49-.83c.14-.16.3-.27.49-.13s.39.25.38.56a2.45,2.45,0,0,1-.72,1.82,3,3,0,0,1-4,.38c-.59-.41-.7-1.23-.9-1.93a1.91,1.91,0,0,1-.06-1,13,13,0,0,1,2-4.91c.53-.75,1-1.55,1.53-2.34a.87.87,0,0,1,.19-.26c1.28-.85,2.14-2.22,3.27-3.27s2.58-2,3.79-3.08c.32-.29.76-.21,1-.5a23.68,23.68,0,0,1,3.39-2.42,16.48,16.48,0,0,1,3.31-2,24.51,24.51,0,0,1,2.38-1.18,2.18,2.18,0,0,0,1.22-.8.91.91,0,0,1,.79-.28,2.55,2.55,0,0,0,1.48-.51,2.78,2.78,0,0,1,1.34-.39c2-.26,3.89-.89,5.86-1.15Z"/><path class="236e8e8f-a410-4074-9d2a-10587cdbc11f" d="M35.64,13.7c.16-1.07-.56-1.6-1.1-2.23-.17-.2-.33,0-.5,0a5.26,5.26,0,0,0-1.62,1.37c-.25.25-.07.71.34.88.22.09.56.08.51.45s-.39.43-.65.51c-.61.17-1-.23-1.37-.68a1.23,1.23,0,0,1,0-1.29,3.91,3.91,0,0,1,2.33-2.22,2.76,2.76,0,0,1,2.86,1.4,4.36,4.36,0,0,1,.45,2.58,8.65,8.65,0,0,1-.7,3.27,17.48,17.48,0,0,1-2.34,4.37c-.51.57-.71,1.31-1.15,1.9a21.59,21.59,0,0,1-2.21,2.58c-.45.44-.88.92-1.32,1.38a35.21,35.21,0,0,1-3.17,2.82c-1.49,1.22-3.23,1.75-4.78,2.73a8,8,0,0,1-1.23.81c-.38.15-.77.05-1.13.24-1.13.58-2.28,1.12-3.41,1.71a10,10,0,0,1-2.94.81,9.68,9.68,0,0,0-.95.2,3,3,0,0,1-3-.32.82.82,0,0,1-.3-.41c-.37-1.52.32-3.45,2-3.47.18,0,.46-.05.52.24s-.19.32-.34.43A2.36,2.36,0,0,0,9.57,36c0,.46.25.59.65.58a14.52,14.52,0,0,0,3.66-.84,28.83,28.83,0,0,0,2.68-1.28,26.16,26.16,0,0,0,3-1.24,36.55,36.55,0,0,0,4-2.16,35.19,35.19,0,0,0,3-2.33c1.21-1.11,2.37-2.28,3.47-3.51a14.91,14.91,0,0,0,2.37-3.42c.17-.35.64-.54.74-.89.26-.9.91-1.52,1.21-2.41.24-.74.71-1.38.9-2.2A19.5,19.5,0,0,0,35.64,13.7Z"/><path class="236e8e8f-a410-4074-9d2a-10587cdbc11f" d="M33.57,69.6c-.81.35-1.34-.2-1.8-.92-.16-.26-.27-.53,0-.78s.47-.16.71.05c.64.57,1.16.48,1.62-.25a2.69,2.69,0,0,1,.18-.28,2.33,2.33,0,0,0,.33-2.84c-.37-.94-.59-2-1-2.88A8.7,8.7,0,0,0,32,59.23a16.88,16.88,0,0,0-2.12-2.1c-1.16-.81-2.18-1.84-3.3-2.73a57,57,0,0,0-4.92-3.22,10.69,10.69,0,0,0-3-1.25A9.36,9.36,0,0,1,17,49.16a8,8,0,0,0-2.37-.55c-.69-.11-1.37-.32-2.08-.39a3.69,3.69,0,0,0-2.64.8,1.4,1.4,0,0,0-.66,1.23,1.19,1.19,0,0,0,.84,1.05c.34.14.52.48.77.73.09.09.28.33.1.54a.85.85,0,0,1-.84.24c-1.28-.16-2.24-2.09-1.84-3.7a3.07,3.07,0,0,1,2.29-2.37,4.29,4.29,0,0,1,3.15.15c.31.15.63-.09,1-.07a8.59,8.59,0,0,1,2.54.78c.68.26,1.41.48,2.09.81.37.18.37.61.58.86s.42-.44.83-.23.79.45,1.18.68a24.94,24.94,0,0,1,3.41,2c1.45,1.18,3.19,1.91,4.34,3.55a1.63,1.63,0,0,0,.5.37,13.23,13.23,0,0,1,3.15,3.16,12.93,12.93,0,0,1,2,4.15,12.88,12.88,0,0,1,.85,3.18,3.23,3.23,0,0,1-1,2.65C34.14,69.67,34.12,69.63,33.57,69.6Z"/><path class="236e8e8f-a410-4074-9d2a-10587cdbc11f" d="M223.9,35.27a8.89,8.89,0,0,1-4.46-1.67c-.86-.52-1.74-1-2.56-1.61a27.67,27.67,0,0,1-3.83-2.63c-.4-.39-.92-.63-1.36-1-1.11-.91-2.08-2-3.12-3a5.82,5.82,0,0,0-1.29-1.2c-.41-.2-.53-.67-.8-1A13.43,13.43,0,0,1,204,18.5a25.2,25.2,0,0,1-.82-3.75,2.29,2.29,0,0,1,1-2.5c.17-.1.27-.35.44-.46A1.81,1.81,0,0,1,207.09,13a3.46,3.46,0,0,0,.1.46c.1.25.17.51-.1.64a.44.44,0,0,1-.58-.26c-.19-.38-.38-.63-.83-.65a1.7,1.7,0,0,0-1.36.61,1.11,1.11,0,0,0-.16,1,11.84,11.84,0,0,0,1.13,4c.32.59.44,1.26.81,1.86A23.74,23.74,0,0,0,209.9,25a34.34,34.34,0,0,0,3.7,3.14c.91.67,1.87,1.26,2.81,1.87,1.53,1,3,2.12,4.62,2.95s3.52,1.19,5.28-.11c.34-.25.7-.37.8-.9s.07-1-.48-1.21c-.4-.16-.54-.61-.68-1a.56.56,0,0,1,.62-.72,2.1,2.1,0,0,1,1.5,2c0,.46.25.84.15,1.33a3,3,0,0,1-1.67,2.21A4.18,4.18,0,0,1,223.9,35.27Z"/><path class="236e8e8f-a410-4074-9d2a-10587cdbc11f" d="M190,75.13c-.06.14.05.31.06.49a.93.93,0,0,1-.85,1c-.49,0-.78-.2-.78-.85s-.22-1.11.33-1.47c.27-.18.58-.42.89-.2A.84.84,0,0,1,190,75.13Z"/><path class="236e8e8f-a410-4074-9d2a-10587cdbc11f" d="M39.25,76.06c-.36.16-.52,0-.53-.48,0-.7.56-1.44,1.17-1.41a.67.67,0,0,1,.68.71C40.61,75.49,40.06,76,39.25,76.06Z"/><path class="236e8e8f-a410-4074-9d2a-10587cdbc11f" d="M199.28,4.49a7.59,7.59,0,0,1,.22-1c.17-.51.59-.49.93-.32a.65.65,0,0,1,.3.9c-.2.39-.16,1-.69,1.13S199.29,5.18,199.28,4.49Z"/><path class="236e8e8f-a410-4074-9d2a-10587cdbc11f" d="M40,1.14C40,.59,40.73-.1,41.15,0a.93.93,0,0,1,.57.58c.09.23-.14.36-.28.47a1,1,0,0,0-.38.57.56.56,0,0,1-.73.32C40,1.85,40.09,1.39,40,1.14Z"/><path class="236e8e8f-a410-4074-9d2a-10587cdbc11f" d="M119.23,48.71c.1,0,.19.08.15.16a.64.64,0,0,1-.28.22c-.06,0-.11,0-.1-.12A.27.27,0,0,1,119.23,48.71Z"/><path class="236e8e8f-a410-4074-9d2a-10587cdbc11f" d="M184.63,41.19c-.07,0-.15-.08-.07-.17s.14,0,.19,0h0l-.14.15Z"/><path class="236e8e8f-a410-4074-9d2a-10587cdbc11f" d="M178.5,39.39h0Z"/><path class="236e8e8f-a410-4074-9d2a-10587cdbc11f" d="M184.26,42.83h0Z"/><path class="236e8e8f-a410-4074-9d2a-10587cdbc11f" d="M184.12,42.83h0Z"/><path class="236e8e8f-a410-4074-9d2a-10587cdbc11f" d="M25,40.67h0Z"/><path class="cf46e1d4-445b-4c48-8aaa-b57ad83f1c6c" d="M112.73,33.51c.27,0,.54,0,.8,0a.76.76,0,0,1,.71.35c.28.36.6.69.9,1,.43.5.9,1,1.33,1.47s.83,1,1.25,1.41.94,1.06,1.41,1.58.7.83,1.1,1.2.56.63.84.94.63.63.91,1a.53.53,0,0,0,.15.13c.11.06.19,0,.21-.09s0-.19.12-.24,0-.06,0-.1-.08-.25-.09-.38,0-.46,0-.69a.35.35,0,0,1,0-.17c.05-.08.12-.15,0-.23s0-.1,0-.16a1.47,1.47,0,0,0,0-.69,1,1,0,0,1,0-.34c0-.66,0-1.32,0-2,0-.85-.06-1.7,0-2.55a.92.92,0,0,0-.61-.94,2.23,2.23,0,0,0-.49-.15.4.4,0,0,1-.28-.29.08.08,0,0,1,.08-.1.61.61,0,0,1,.2,0,6.15,6.15,0,0,0,1,0c.5,0,1,0,1.49,0a.81.81,0,0,1,.29,0,.12.12,0,0,1,.09.1.13.13,0,0,1-.06.15.6.6,0,0,1-.19.07,1.4,1.4,0,0,0-.56.27,1.44,1.44,0,0,0-.47.71,1.57,1.57,0,0,0-.14.64,5.56,5.56,0,0,0,0,1.06.81.81,0,0,1,0,.2c-.08,1,0,2,0,2.93,0,.66,0,1.32,0,2s0,1.2,0,1.8a11.44,11.44,0,0,1,0,1.17.32.32,0,0,0,0,.14,1.37,1.37,0,0,1-.06.79s-.05.05-.05,0c0-.2-.2-.27-.31-.4s-.11-.22,0-.32.09-.06.06-.11-.09,0-.13,0l-.12.08c-.08.08-.12,0-.18,0-.21-.27-.44-.52-.66-.8s-.48-.46-.7-.71-.45-.51-.68-.76a.15.15,0,0,1,0-.23c.08-.09,0-.08-.05-.06s-.17,0-.24-.1c-.32-.33-.6-.69-.92-1-.17-.18-.36-.35-.51-.54s-.11-.16-.16-.24a.86.86,0,0,0-.37-.39s-.1-.05-.11-.09a1.27,1.27,0,0,0-.43-.53c-.32-.3-.55-.68-.89-1a1.18,1.18,0,0,1-.17-.2s-.05-.11-.1-.14a11.34,11.34,0,0,1-.92-1,1.73,1.73,0,0,1-.43-.6c0-.07,0-.08-.12,0s-.07,0-.09-.07a2.92,2.92,0,0,0-.52-.6c-.07-.06-.13-.15-.24-.12s-.13.15-.13.26c0,.5,0,1,0,1.49s0,1,0,1.49c0,.78,0,1.56,0,2.34,0,0,0,.07,0,.08-.16.24,0,.49,0,.73s0,.54,0,.8a5.76,5.76,0,0,0,0,.77c.05.33.1.66.16,1a.69.69,0,0,0,.52.52,4.41,4.41,0,0,1,.68.36.1.1,0,0,1,.06.12.12.12,0,0,1-.11.08.44.44,0,0,1-.14,0c-.62-.08-1.25,0-1.86-.07-.28,0-.55,0-.82,0-.11,0-.26,0-.28-.13s.13-.16.25-.17c.46,0,.65-.41.85-.74s.13-.44.25-.64a.18.18,0,0,0,0-.11,6.56,6.56,0,0,1,0-1.66.19.19,0,0,0,0-.09,3.14,3.14,0,0,1-.05-1.25q0-1,0-1.93c0-.68,0-1.36,0-2s0-1.23-.05-1.84a.66.66,0,0,0-.16-.36,1.82,1.82,0,0,0-.77-.67,1.23,1.23,0,0,0-.3-.1.44.44,0,0,1-.14,0c-.09,0-.22-.09-.2-.21s.15-.09.24-.09Zm.8,1.86c.09,0,.07-.11.08-.18s0-.07,0-.06-.11.08-.11.16A.07.07,0,0,0,113.53,35.37Zm-.12.49s0-.06,0-.06a0,0,0,0,0-.05,0,.05.05,0,0,0,.1,0Zm.23,9.32s-.08,0-.08.06,0,.05.05.05.08,0,.08-.06S113.67,45.19,113.64,45.18Zm3.56-6.58,0,0s-.07,0-.1,0l0,0A.11.11,0,0,0,117.19,38.6Zm-2.63,6.83s0,0,0,0,0,0,0,0a0,0,0,0,0,0,0Zm-1.23-.64s0,0,0,0l0,0s0,0,0,0S113.32,44.81,113.33,44.8Zm1.07-10.28s0,0,0,0v0l0,0ZM123,34.1s0,0,0,0,0,0,0,0l0,0Zm-3.74,5.58s0,0,0,0v0Zm.31,1.62h0Zm2.55,1.43h0v0h0Zm-10.26-9s0,0,0,0v0Z"/><path class="cf46e1d4-445b-4c48-8aaa-b57ad83f1c6c" d="M160.3,33.51c.27,0,.54,0,.8,0a.76.76,0,0,1,.71.35c.28.36.6.69.9,1,.43.5.9,1,1.33,1.47s.83,1,1.25,1.41.94,1.06,1.41,1.58.7.83,1.1,1.2.56.63.84.94.63.63.91,1a.53.53,0,0,0,.15.13c.11.06.19,0,.21-.09s0-.19.12-.24,0-.06,0-.1-.08-.25-.09-.38,0-.46,0-.69a.35.35,0,0,1,0-.17c.05-.08.12-.15,0-.23s0-.1,0-.16a1.47,1.47,0,0,0,0-.69,1,1,0,0,1,0-.34c0-.66,0-1.32,0-2,0-.85-.06-1.7,0-2.55a.92.92,0,0,0-.61-.94,2.23,2.23,0,0,0-.49-.15.4.4,0,0,1-.28-.29.08.08,0,0,1,.08-.1.61.61,0,0,1,.2,0,6.15,6.15,0,0,0,1,0c.5,0,1,0,1.49,0a.81.81,0,0,1,.29,0,.12.12,0,0,1,.09.1.13.13,0,0,1-.06.15.6.6,0,0,1-.19.07,1.4,1.4,0,0,0-.56.27,1.44,1.44,0,0,0-.47.71,1.57,1.57,0,0,0-.14.64,5.56,5.56,0,0,0,0,1.06.81.81,0,0,1,0,.2c-.08,1,0,2,0,2.93,0,.66,0,1.32,0,2s0,1.2,0,1.8a11.44,11.44,0,0,1,0,1.17.32.32,0,0,0,0,.14,1.37,1.37,0,0,1-.06.79s-.05.05-.05,0c0-.2-.2-.27-.31-.4s-.11-.22,0-.32.09-.06.06-.11-.09,0-.13,0l-.12.08c-.08.08-.12,0-.18,0-.21-.27-.44-.52-.66-.8s-.48-.46-.7-.71-.45-.51-.68-.76a.15.15,0,0,1,0-.23c.08-.09,0-.08-.05-.06s-.17,0-.24-.1c-.32-.33-.6-.69-.92-1-.17-.18-.36-.35-.51-.54s-.11-.16-.16-.24a.86.86,0,0,0-.37-.39s-.1-.05-.11-.09a1.27,1.27,0,0,0-.43-.53c-.32-.3-.55-.68-.89-1a1.18,1.18,0,0,1-.17-.2s-.05-.11-.1-.14a11.34,11.34,0,0,1-.92-1,1.73,1.73,0,0,1-.43-.6c0-.07,0-.08-.12,0s-.07,0-.09-.07a2.92,2.92,0,0,0-.52-.6c-.07-.06-.13-.15-.24-.12s-.13.15-.13.26c0,.5,0,1,0,1.49s0,1,0,1.49c0,.78,0,1.56,0,2.34,0,0,0,.07,0,.08-.16.24,0,.49,0,.73s0,.54,0,.8a5.76,5.76,0,0,0,0,.77c.05.33.1.66.16,1a.69.69,0,0,0,.52.52,4.41,4.41,0,0,1,.68.36.1.1,0,0,1,.06.12.12.12,0,0,1-.11.08.44.44,0,0,1-.14,0c-.62-.08-1.25,0-1.86-.07-.28,0-.55,0-.82,0-.11,0-.26,0-.28-.13s.13-.16.25-.17c.46,0,.65-.41.85-.74s.13-.44.25-.64a.18.18,0,0,0,0-.11,6.56,6.56,0,0,1,0-1.66.19.19,0,0,0,0-.09,3.14,3.14,0,0,1-.05-1.25q0-1,0-1.93c0-.68,0-1.36,0-2s0-1.23-.05-1.84a.66.66,0,0,0-.16-.36,1.82,1.82,0,0,0-.77-.67,1.23,1.23,0,0,0-.3-.1.44.44,0,0,1-.14,0c-.09,0-.22-.09-.2-.21s.15-.09.24-.09Zm.8,1.86c.09,0,.07-.11.08-.18s0-.07,0-.06-.11.08-.11.16A.07.07,0,0,0,161.1,35.37Zm-.12.49s0-.06,0-.06a0,0,0,0,0-.05,0,.05.05,0,0,0,.1,0Zm.23,9.32s-.08,0-.08.06,0,.05.05.05.08,0,.08-.06S161.24,45.19,161.21,45.18Zm3.56-6.58,0,0s-.07,0-.1,0l0,0A.11.11,0,0,0,164.76,38.6Zm-2.63,6.83s0,0,0,0,0,0,0,0a0,0,0,0,0,0,0Zm-1.23-.64s0,0,0,0l0,0s0,0,0,0S160.89,44.81,160.9,44.8ZM162,34.52s0,0,0,0v0l0,0Zm8.62-.42s0,0,0,0,0,0,0,0l0,0Zm-3.74,5.58s0,0,0,0v0Zm.31,1.62h0Zm2.55,1.43h0v0h0Zm-10.26-9s0,0,0,0v0Z"/><path class="cf46e1d4-445b-4c48-8aaa-b57ad83f1c6c" d="M142.39,33.18a4.09,4.09,0,0,1,1,.12,9.63,9.63,0,0,1,2.33.83,1.94,1.94,0,0,1,.74.58,1.25,1.25,0,0,0,.22.23,3.68,3.68,0,0,1,.79.94.73.73,0,0,1,.06.32c0,.07.19,0,.25.15.15.27.36.52.29.87a.07.07,0,0,0,0,.05,2.13,2.13,0,0,1,.33,1.13,6.18,6.18,0,0,1,0,2,7.47,7.47,0,0,1-.3,1.19,4.37,4.37,0,0,1-.54,1.15A3.92,3.92,0,0,1,146.49,44a.58.58,0,0,0-.17.19,2.78,2.78,0,0,1-.45.44.29.29,0,0,1-.32.05c-.06,0-.1,0-.15,0a2,2,0,0,1-1.3.68H144a4.47,4.47,0,0,1-1.53.19l-.4,0a.42.42,0,0,1-.23,0,1.52,1.52,0,0,0-.62-.09,2.55,2.55,0,0,1-.83-.14,2.76,2.76,0,0,0-.55-.15,1,1,0,0,1-.55-.27c-.1-.11-.27-.12-.4-.21a3.44,3.44,0,0,1-.7-.6l-.4-.43a4.6,4.6,0,0,1-.95-1.52.36.36,0,0,0,0-.11,2.39,2.39,0,0,1-.44-1.34,7.27,7.27,0,0,1,0-2,10.37,10.37,0,0,1,.39-1.62,4,4,0,0,1,.85-1.51c.14-.15.25-.31.38-.47a5.47,5.47,0,0,1,1.59-1.28,6.85,6.85,0,0,1,1-.44c.16-.06.37,0,.53-.08C141.57,33.16,142.06,33.29,142.39,33.18Zm2.16,11.62h0a5.74,5.74,0,0,1,.64-.56,7.38,7.38,0,0,0,1-1.15,3.23,3.23,0,0,0,.6-1.41,8.31,8.31,0,0,0,.25-1.87c0-.66,0-1.32-.09-2,0,0,0-.11,0-.14s-.12-.33-.16-.5a1.38,1.38,0,0,0-.06-.25c-.1-.23-.18-.46-.3-.68a3.63,3.63,0,0,0-.39-.7c-.29-.33-.58-.66-.88-1a2.55,2.55,0,0,0-.41-.43c-.11-.07-.23,0-.33-.12-.27-.23-.66-.19-.95-.38a6.7,6.7,0,0,1-1-.08,4.46,4.46,0,0,0-1.58.21l0,0s0,0-.07,0a0,0,0,0,0,0,0l.07,0h.05l-.13.05a3.23,3.23,0,0,0-.91.42c-.29.26-.7.45-.82.88,0,0-.06.07-.09.11a8.07,8.07,0,0,0-.72,1.26,3.76,3.76,0,0,0-.21.8,3.74,3.74,0,0,0-.2,1,9.77,9.77,0,0,1-.08,1.2,4.58,4.58,0,0,0,0,.69,1.59,1.59,0,0,0,0,.5A10.33,10.33,0,0,1,138,42a3.3,3.3,0,0,0,.42.94,3.34,3.34,0,0,0,.45.6c.09.08.15.17,0,.22l-.05,0s-.05,0,0,.07.05,0,.09.06a.07.07,0,0,0,.09,0c.06-.13.14-.08.19,0a2.09,2.09,0,0,0,.65.6,3,3,0,0,0,1.3.6l.11,0a6.72,6.72,0,0,0,1.62.16h.06c.38-.09.77-.17,1.15-.27A3.33,3.33,0,0,1,144.55,44.8Zm2.15-8.88s.09,0,.08-.06,0,0-.07,0-.08,0-.07.06S146.69,35.92,146.7,35.93Zm-2.45-2.28s-.07,0-.08.07a0,0,0,0,0,0,.06.08.08,0,0,0,.09-.08S144.29,33.65,144.26,33.65Zm3.38,4s-.06,0-.06,0,0,0,.07,0,.06,0,.06,0S147.66,37.68,147.63,37.68Zm-.75,5.71a0,0,0,0,0,0,0h-.05s0,.05,0,.06Zm1-6.31,0,0v0l0,0Zm-1.33-.9h0v0h0Zm.22.18v0h0ZM148,41.13s0,0,0,0v0ZM144.71,45v0h0Zm-4.42.16s0,0,0,0l0,0Z"/><path class="cf46e1d4-445b-4c48-8aaa-b57ad83f1c6c" d="M88.81,45.44a1,1,0,0,1-.74-.15c-.16-.08-.16-.08-.22.08s0,.11-.1.12a5,5,0,0,1-1.56.05c-.06,0-.16,0-.16-.07a.26.26,0,0,1,.1-.23.42.42,0,0,1,.14,0,3.77,3.77,0,0,0,1.37-.62,2.36,2.36,0,0,0,.7-.79c.16-.27.3-.56.44-.84,0-.06,0-.11.14-.07s.18-.08.28-.11.07-.12,0-.14c-.21-.1-.14-.27-.08-.4.27-.55.52-1.11.84-1.63.09-.15.13-.32.22-.46.29-.49.49-1,.78-1.5.11-.19.18-.4.27-.6s.05-.16.16-.1.18.21.11.27-.11.1,0,.18,0,.11,0,.16c-.13.23-.25.48-.4.7a1.73,1.73,0,0,0-.27.57c-.08.34-.06.38.3.39h4.28c.2,0,.25-.09.18-.29A6.18,6.18,0,0,0,95,38.72s-.08-.09-.07-.12c.05-.26-.19-.38-.27-.57s-.34-.61-.45-.94a.92.92,0,0,0-.14-.28.57.57,0,0,1-.16-.33.23.23,0,0,0-.09-.14c-.13-.14-.27-.28-.16-.5,0,0,0-.08,0-.07-.25.08-.24-.17-.35-.27l0,0a.16.16,0,0,0-.27,0,.89.89,0,0,0-.19.32,9.36,9.36,0,0,1-.59,1.15c-.22,0-.18.2-.19.37a1,1,0,0,1-.2.44.18.18,0,0,1-.25.08.19.19,0,0,1-.11-.26,2,2,0,0,1,.28-.53c.15-.24.21-.51.35-.75s.35-.64.5-1,.34-.67.47-1,.34-.56.43-.87c0-.09.1-.11.18-.05a.57.57,0,0,1,.2.2c.3.65.59,1.3.94,1.93.2.37.34.77.54,1.14s.47.94.7,1.41c.4.81.84,1.59,1.26,2.38.53,1,1,2,1.53,3,.18.33.33.67.51,1a1.36,1.36,0,0,0,.77.61l.38.13c.07,0,.14.08.12.17s-.09.13-.19.13h-.8a13.93,13.93,0,0,0-1.43,0l-.11,0c-.16,0-.29-.21-.48,0s-.31,0-.47,0-.15,0-.22,0-.14-.06-.1-.15a.33.33,0,0,1,.13-.15,2.13,2.13,0,0,0,.44-.4.74.74,0,0,0,.13-.78,1.54,1.54,0,0,1-.12-.44.4.4,0,0,0-.07-.19,3,3,0,0,1-.25-.51,8.16,8.16,0,0,1-.59-1.33.43.43,0,0,0-.17-.23.43.43,0,0,1-.17-.32c0-.18-.17-.29-.31-.39s-.28-.18-.44,0a.16.16,0,0,1-.14,0,4.78,4.78,0,0,0-1.05,0c-.34,0-.69,0-1,0h-1.9a5.27,5.27,0,0,0-.74.07.29.29,0,0,0-.28.21.34.34,0,0,1-.16.2c-.17.1-.14.35-.33.44,0,0,0,.09,0,.14s0,.11,0,.12-.13.17-.16.29a1.72,1.72,0,0,1-.22.55c-.18.27-.24.61-.5.83,0,.35-.28.65-.28,1a.83.83,0,0,0,.75.76l.34,0a.22.22,0,0,1,.18.08s0,.07,0,.1a.08.08,0,0,1-.08,0,.33.33,0,0,0-.33,0,.59.59,0,0,1-.34,0,.88.88,0,0,0-.34,0s0,0,0-.05Zm6.4-7.11s0-.16,0-.16,0,.1,0,.14a.22.22,0,0,0,0,.05c0,.05-.06.1,0,.15h.05c.06,0,.05-.09.06-.15S95.21,38.35,95.21,38.32Zm3.53,6.89c0-.09-.08-.09-.13-.11s-.1,0-.1,0a.12.12,0,0,0,.1.14A.12.12,0,0,0,98.74,45.22Zm-3.83-8.66a.08.08,0,0,0,.06.08.1.1,0,0,0,.12-.09s0-.06-.08-.06A.09.09,0,0,0,94.91,36.55ZM88.08,45S88,45,88,45a.08.08,0,0,0,0,.06.06.06,0,0,0,.08,0S88.12,45,88.08,45Zm9.54-1.56s-.05,0,0,.05a.07.07,0,0,0,.08.06,0,0,0,0,0,0-.05A.07.07,0,0,0,97.62,43.43ZM87.5,45.08a.11.11,0,0,0-.09.09s0,.08.05.08.07-.06.08-.11A0,0,0,0,0,87.5,45.08Zm1-.33s0-.07-.07-.07-.07,0-.07.09a.05.05,0,0,0,0,.06C88.42,44.84,88.45,44.81,88.46,44.76Zm6.44-7.06a.05.05,0,0,0-.05,0,.06.06,0,0,0,.06.08,0,0,0,0,0,.06,0A.07.07,0,0,0,94.9,37.69Zm2.41,4.24s.05,0,0,0a.06.06,0,0,0,0,0,0,0,0,0,0-.06,0A0,0,0,0,0,97.31,41.93Zm-8.82,3.32s0,0,0,0,0,0,0,0,0,0,0,0S88.47,45.24,88.49,45.25ZM96.94,42l0,0v0s0,0,0,0S96.93,42,96.94,42ZM90.59,40l0,0s0,0,0,0l0,0S90.59,40,90.59,40ZM93.79,36s0,0,0,0v0ZM96,38.83h0v0ZM91.08,39v0h0s0,0,0,0Zm7.32,4.72h0Zm-.4-.5v0h0Zm-1.59-3.61s0,0,0,0v0Zm-2.93-5.45h0Z"/><path class="cf46e1d4-445b-4c48-8aaa-b57ad83f1c6c" d="M71.11,33.33a10.92,10.92,0,0,1,1.14.25.67.67,0,0,0,.68-.17c.1-.12.27-.06.34.1s.24.6.35.91a5.49,5.49,0,0,0,.45,1l.14.25a.07.07,0,0,1,0,.1.11.11,0,0,1-.11,0,.17.17,0,0,1-.09-.11c0-.19-.24-.3-.27-.5,0,0-.06-.09-.11,0a.15.15,0,0,1-.23,0c-.09-.08-.2-.18-.17-.28s-.06-.17-.16-.19l-.14,0c-.06,0-.12-.05-.1-.12s-.08-.2-.21-.18-.19,0-.16-.14-.07-.1-.13-.11a3.17,3.17,0,0,1-1-.29s-.1,0-.1,0c-.07-.37-.36-.21-.51-.15a.74.74,0,0,1-.63,0,1,1,0,0,0-.54,0,8.61,8.61,0,0,1-1,0,.72.72,0,0,0-.41.11.43.43,0,0,1-.46.07c-.09,0-.14,0-.16.1a.25.25,0,0,1-.18.2,1.18,1.18,0,0,0-.52.34h0a.16.16,0,0,0-.19-.1.63.63,0,0,1-.23,0c-.06,0-.12,0-.14.06s0,.1.09.13.11.09.06.16-.11,0-.16,0a.08.08,0,0,0-.11,0s0,.09,0,.13,0,.19,0,.28a6.5,6.5,0,0,0-.88,1.57c-.05.13-.07.28-.12.41a7.15,7.15,0,0,0-.37,2.46A6.29,6.29,0,0,0,65,41.2a8,8,0,0,0,.55,1.25v0c.28.23.43.59.73.79.14.09.27.18.29.37h-.06s-.05,0-.06,0v0a.06.06,0,0,0,.07,0l0,0a1.86,1.86,0,0,1,.61.42,5,5,0,0,0,1.18.65.71.71,0,0,0,.2,0,1,1,0,0,1,.2,0,4.18,4.18,0,0,0,1.76.12,4,4,0,0,0,.46,0,7.58,7.58,0,0,0,1.56-.45,5.08,5.08,0,0,0,.88-.47.31.31,0,0,1,.37,0c.09.05.12,0,.09-.08s0-.31.18-.43a13.6,13.6,0,0,0,1.05-1c.06-.05.08-.15.12-.23s.09-.11.16-.06.13.1.08.19-.22.33-.32.51-.12,0-.18,0-.1,0-.12,0,0,.07,0,.09.07.13,0,.21l-.25.28a6.31,6.31,0,0,1-1.66,1.46.89.89,0,0,1-.49.13h0a.39.39,0,0,1-.35.16h-.05c-.23.28-.59.13-.88.26a1.5,1.5,0,0,1-.74,0h0s0,0,0,0h0a1.24,1.24,0,0,1-.9,0,.32.32,0,0,0-.27,0,.3.3,0,0,1-.17,0,2.47,2.47,0,0,1-1.07-.2c-.11-.07-.27,0-.4-.08s-.12,0-.15-.12,0-.1-.09-.1,0,.07,0,.1-.07,0-.1,0l-.5-.21a2.19,2.19,0,0,0-.52-.22.25.25,0,0,1-.24-.25c0-.1-.06-.12-.16-.08s-.26-.09-.4-.13-.26-.1-.23-.28,0-.07-.09-.09a4.65,4.65,0,0,1-1.46-1.66,3.8,3.8,0,0,1-.31-.92.09.09,0,0,1,0-.1c.07-.07,0-.11,0-.16a.65.65,0,0,1-.24-.52,8.84,8.84,0,0,0-.1-1,.63.63,0,0,1,0-.17c.1-.55.16-1.11.31-1.65a4,4,0,0,1,.64-1.43.71.71,0,0,0,.07-.15,3.37,3.37,0,0,1,.7-1,1.72,1.72,0,0,0,.18-.18,3.57,3.57,0,0,1,1.19-1l.58-.31a5.27,5.27,0,0,1,.69-.25,7.14,7.14,0,0,1,1.7-.23,5.72,5.72,0,0,1,1.45.09.86.86,0,0,0,.29,0,.18.18,0,0,1,.19.1Zm-6.45,9.49H64.6s-.07,0-.07.07a.05.05,0,0,0,0,0s.07,0,.08-.06a.45.45,0,0,0,0-.05Zm-.31-3.18a.29.29,0,0,0,0-.05.67.67,0,0,0-.43-.17.06.06,0,0,0,0,.11,2.11,2.11,0,0,0,.29.21A.12.12,0,0,0,64.35,39.65Zm.3-2.78a0,0,0,0,0,0,.06.11.11,0,0,0,.09.1s.07,0,.06-.07A.1.1,0,0,0,64.66,36.86Zm-.58.87s-.06,0-.05.06a.07.07,0,0,0,.08.06,0,0,0,0,0,.05-.05A.07.07,0,0,0,64.07,37.73Zm7.45-4.07s.05,0,.05-.06a.06.06,0,0,0-.08-.06.06.06,0,0,0-.05.06S71.48,33.66,71.52,33.66Zm-7.75,6.28s-.05,0-.05,0a.06.06,0,0,0,0,0,0,0,0,0,0,.06,0S63.8,39.95,63.77,39.94Zm0,1.52s0-.05,0,0,0,0,0,0,0,.05,0,0S63.77,41.47,63.78,41.46Zm.62-1,0,0h0l0,0Zm.14-1.59s0,0,0,0l0,0s0,0,0,0Zm1.15,4h0v0h0Zm3.2,2.43h0s0,0,0,0h0S68.89,45.32,68.89,45.31Zm-2.27-1.08h0v0l0,0ZM63.81,38l0,0h0l0,0Zm8.91-4.11h0l0,0s0,0,0,0ZM64,40s0,0,0,0v0Zm1.71-4.88h0s0,0,0,0h0S65.69,35.07,65.69,35.07Zm-1.1,7.54h0v0h0Zm-.68-2.43h0Zm8.79,4.69s0,0,0,0h0Zm-7.3-9.45v0h0Z"/><path class="236e8e8f-a410-4074-9d2a-10587cdbc11f" d="M51.75,40.31c-.36.16-.52,0-.53-.48,0-.7.56-1.44,1.17-1.41a.67.67,0,0,1,.68.71C53.11,39.75,52.56,40.27,51.75,40.31Z"/><path class="236e8e8f-a410-4074-9d2a-10587cdbc11f" d="M182,40.31c-.36.16-.52,0-.53-.48,0-.7.56-1.44,1.17-1.41a.67.67,0,0,1,.68.71C183.39,39.75,182.84,40.27,182,40.31Z"/></svg>