<svg id="79a5d14d-f66e-4de2-91ee-544950a197a5" data-name="Layer 1" xmlns="http://www.w3.org/2000/svg" viewBox="0 0 102.27 25.28"><defs><style>.e3881e6b-8175-405b-8bdb-bfb01b3ea27a{fill:#d2ab82;}</style></defs><title>social--twitter</title><path class="e3881e6b-8175-405b-8bdb-bfb01b3ea27a" d="M22.92,15c.38-1.3.76-2.6,1.12-3.91.16-.57,0-.69-.58-.56-1.55.33-3.09.7-4.65,1a35.26,35.26,0,0,1-4.24.64c-1.06.08-2.1.43-3.19.5-3,.19-6,.29-8.81-.93A15.5,15.5,0,0,1,.29,10.36C.06,10.2-.12,10,.11,9.68A.51.51,0,0,1,.91,9.6C4,12,7.63,12.12,11.3,11.9A73.7,73.7,0,0,0,23.64,9.79c.87-.2.88-.23,1-1.17a3.43,3.43,0,0,1,0-.46.44.44,0,0,1,.51-.37.43.43,0,0,1,.42.33,1.14,1.14,0,0,1,0,.46c-.13.62.2.65.66.53,1.72-.46,3.49-.7,5.23-1A71.56,71.56,0,0,1,40.7,7q3.48-.24,7-.42c2.13-.11,4.25-.18,6.38-.27.15,0,.36,0,.39.15s-.21.28-.38.29c-1.58.13-3.16.26-4.74.36-4,.26-8,.44-12.05.78A70.75,70.75,0,0,0,26.73,9.61a2.29,2.29,0,0,0-1.94,1.83c-.67,2.57-1.69,5-2.25,7.64a20,20,0,0,0-.62,6.33,6.23,6.23,0,0,0,.24,1.25,1.39,1.39,0,0,0,2.08,1,4.5,4.5,0,0,0,1.63-1.08c.62-.64,1.2-1.31,1.82-2a17.58,17.58,0,0,0,3.15-4l.06-.1c.16-.33.36-.66.78-.55s.42.49.38.86a13.32,13.32,0,0,0,.23,3.24c0,.15,0,.31.06.46.13.59.28.67.77.38a7.17,7.17,0,0,0,1.44-1.16c.59-.61,1.23-1.17,1.85-1.76.24-.22.52-.39.83-.2s.21.47.18.74a4.84,4.84,0,0,0,0,1.51A1.16,1.16,0,0,0,39,25a4.84,4.84,0,0,0,3.56-5.76c0-.11-.08-.22-.1-.33-.09-.38,0-.73.38-.84s.73.13.85.57c0,0,0,.08,0,.11.27,1.45.48,1.56,1.73.74a15,15,0,0,1,3.09-1.59,5.64,5.64,0,0,1,1-.3c.58-.09.8.14.64.71a10.71,10.71,0,0,0-.38,2.29A3.56,3.56,0,0,0,49.91,22c.2.59.39.64,1,.37A9,9,0,0,0,54.82,19a23.14,23.14,0,0,0,3.54-7.78c.25-1.11.2-1.18-.86-.95-2.35.52-4.68,1.09-7,1.77-.22.07-.44.15-.67.2s-.51.07-.59-.2.1-.43.36-.5c.82-.23,1.63-.5,2.45-.7,1.88-.46,3.77-.9,5.66-1.3A1.44,1.44,0,0,0,59,8.23c.19-.91.49-1.79.77-2.68a5.47,5.47,0,0,1,1-1.82.62.62,0,0,1,.6-.29c.32.05.43.31.51.57a1.76,1.76,0,0,1-.08.91,14.06,14.06,0,0,1-1.08,2.94c-.42.92-.33,1,.62.89,2.38-.35,4.75-.74,7.12-1.08a1.34,1.34,0,0,0,1.21-.9,6.1,6.1,0,0,1,.56-1,.42.42,0,0,1,.5-.21c.19.07.24.27.21.49,0,.37-.48.79-.16,1.06s.82,0,1.23,0c1.68-.26,3.36-.54,5-.82.1,0,.25-.11.28,0s-.12.16-.23.19c-2,.56-4,1-6,1.34a1.61,1.61,0,0,0-1.33,1.06A24,24,0,0,0,68,17.24a4.69,4.69,0,0,0,.2,1.49c.23.91.67,1.14,1.55.8a7.83,7.83,0,0,0,3-2.08A8.78,8.78,0,0,0,74.56,15c.09-.21.23-.45.51-.36s.35.4.28.67c-.12.45-.3.88-.42,1.33a9.36,9.36,0,0,0-.33,1.47.59.59,0,0,0,.69.71,3.59,3.59,0,0,0,1.66-.42,11.61,11.61,0,0,0,3.31-3.68,5.19,5.19,0,0,0,.25-.52.62.62,0,0,1,.76-.38.56.56,0,0,1,.39.64c-.11,1.67,1.26,2.39,2.21,3.33.5.5,1.34.26,2,.14a19.62,19.62,0,0,0,2.59-.66c3.93-1.3,7.89-2.55,11.71-4.17.57-.24,1.13-.51,1.69-.77.13-.06.26-.09.4-.14,0,.21-.15.25-.27.31-.86.44-1.71.91-2.6,1.29-4.13,1.77-8.37,3.25-12.59,4.8a7.86,7.86,0,0,1-2.75.39,1.75,1.75,0,0,1-1.57-.83C82,17.5,81.39,17,81,16.3c-.28-.43-.5-.39-.78,0-.44.59-.87,1.19-1.34,1.75A5.18,5.18,0,0,1,76,19.79c-1.49.34-2.13-.1-2.36-1.62-.06-.37-.28-.36-.45-.17a12.41,12.41,0,0,1-1.55,1.4,6,6,0,0,1-1.74.92,1.73,1.73,0,0,1-2.5-1.41,11.63,11.63,0,0,1-.15-3.35,2.73,2.73,0,0,0,0-1.26c-.41.25-.52.71-.77,1.08a21.33,21.33,0,0,1-4.36,5.09,6.82,6.82,0,0,1-1.27.81A1.89,1.89,0,0,1,58,20.22a4.42,4.42,0,0,1-.36-1.7c0-.81,0-1.63,0-2.44,0-.22.15-.54-.12-.62s-.28.28-.37.45c-.5,1-.95,2-1.49,2.89A10.5,10.5,0,0,1,51.46,23c-1.23.63-2.16.25-2.44-1.09a6.12,6.12,0,0,1-.09-2.54c.16-.8,0-.89-.78-.57a10.49,10.49,0,0,0-2.08,1.27A4,4,0,0,1,44,21c-.46,0-.53.35-.65.68a6.41,6.41,0,0,1-1.64,2.77,6.65,6.65,0,0,1-1.83,1.22,2.23,2.23,0,0,1-3.29-1.3c-.44-1.08-.44-1.08-1.22-.26a14.3,14.3,0,0,1-2,1.79c-.91.65-1.49.46-1.8-.63-.2-.7-.29-1.44-.45-2.16s-.28-.67-.72-.21q-1.7,1.76-3.35,3.55A12.63,12.63,0,0,1,25.42,28c-1.94,1.48-3.83.7-4.26-1.72a10.41,10.41,0,0,1,0-3.36c.25-1.68.55-3.36.9-5,.21-1,.54-1.94.82-2.91ZM68.4,10.05l.34-1c.27-.78.22-.88-.64-.74-2.49.39-5,.82-7.45,1.23a1.5,1.5,0,0,0-1.27,1.15,25.77,25.77,0,0,0-1,6.53,7.55,7.55,0,0,0,.2,2.19c.27,1.23,1,1.56,2.18,1,.17-.08.33-.2.5-.29a11.67,11.67,0,0,0,3.3-3.23A21.7,21.7,0,0,0,68.4,10.05ZM60.1,6.92c-.05.18-.14.48-.22.77,0,.11,0,.24.13.27a.21.21,0,0,0,.18-.09,14,14,0,0,0,1.07-2.79.25.25,0,0,0-.09-.3c-.21-.11-.28.08-.33.2A8.67,8.67,0,0,0,60.1,6.92Z" transform="translate(0 -3.44)"/><path class="e3881e6b-8175-405b-8bdb-bfb01b3ea27a" d="M51.17,15a.86.86,0,0,1-.91.55.59.59,0,0,1-.61-.68.67.67,0,0,1,.85-.56C50.84,14.36,51.14,14.53,51.17,15Z" transform="translate(0 -3.44)"/></svg>