<svg id="e3b0fada-c5f1-421b-8bc8-70e281d1aa67" data-name="Layer 1" xmlns="http://www.w3.org/2000/svg" viewBox="0 0 78.93 32.16"><defs><style>.b6ee9d7b-d209-4de7-a76a-ec2a1c6c6e42{fill:#d2ab82;}</style></defs><title>social--facebook</title><path class="b6ee9d7b-d209-4de7-a76a-ec2a1c6c6e42" d="M58.61,10.19a32.31,32.31,0,0,1-2.27,6.28,4.29,4.29,0,0,1-.19.4c-.19.27-.51.54-.46.86s.54.32.83.46a1.25,1.25,0,0,1,.55.68,5.16,5.16,0,0,1,.55,2.7,16.56,16.56,0,0,1-2.54,7.19,10.11,10.11,0,0,1-1.38,1.45.63.63,0,0,1-.8.19c-.28-.15-.29-.41-.28-.68a33.11,33.11,0,0,1,.4-5c.18-1.1.22-2.22.5-3.3.06-.23.17-.58-.08-.71s-.45.19-.64.35A27.91,27.91,0,0,1,50,23.25c-.75.48-1.48.89-2.33.15-.37-.32-.69,0-1,.23L43,26.2a4.36,4.36,0,0,1-1.61.74,1.47,1.47,0,0,1-1.83-1,4.13,4.13,0,0,1-.27-2.18,8.23,8.23,0,0,0,.06-1.22c0-.14.05-.34-.08-.4s-.26.07-.35.2c-.26.36-.55.7-.8,1.07a8.86,8.86,0,0,1-4.07,3.18c-1.47.63-2.45.11-2.87-1.43a2,2,0,0,1,0-.22c0-.19-.06-.41-.25-.45s-.33.15-.41.32a12.81,12.81,0,0,1-1.64,2.38,6.47,6.47,0,0,1-.76.82,1.06,1.06,0,0,1-1.88-.56,3.45,3.45,0,0,1,.09-2.19,10.2,10.2,0,0,1,2.25-3.55,2.09,2.09,0,0,1,.93-.59c.36-.1.57.14.67.44s-.09.39-.35.43c-.66.11-1,.67-1.33,1.11a6.37,6.37,0,0,0-1.56,3c-.07.42-.21,1,.28,1.2s.72-.27,1-.56a17.69,17.69,0,0,0,2.71-4.06c.05-.1.07-.21.12-.31a.46.46,0,0,1,.52-.32c.26.05.34.28.34.51A9.67,9.67,0,0,0,32,24.64c.28,1.19.65,1.44,1.82,1a8.5,8.5,0,0,0,4.05-3c1-1.3,1.92-2.64,2.9-3.94A4.21,4.21,0,0,1,42,17.58a2.32,2.32,0,0,1,1.93,0c.28.07.35.37.25.65s-.26.5-.57.42c-1.5-.36-2.21.6-2.73,1.71a8.42,8.42,0,0,0-.71,4.57c.12,1,.66,1.37,1.62,1a11.32,11.32,0,0,0,2.1-1.26c.88-.62,1.74-1.28,2.65-1.86a1.73,1.73,0,0,0,.93-1.4A3.46,3.46,0,0,1,49.09,19c.24-.18.56-.49.89-.15s.07.61-.16.87a12.84,12.84,0,0,0-1.33,2.57c-.18.31,0,.51.37.44a2.78,2.78,0,0,0,.71-.31,18.84,18.84,0,0,0,3.55-2.68,3.83,3.83,0,0,0,1.16-2.34c.36-2.24.65-4.49,1.1-6.71.38-1.89.94-3.75,1.46-5.61A4.57,4.57,0,0,1,58,3c.31-.31.6-.73,1.13-.49a1.27,1.27,0,0,1,.82,1.22,11.79,11.79,0,0,1-.31,3C59.28,7.91,58.94,9,58.61,10.19Zm-.4-.1a25.26,25.26,0,0,0,1.13-5.24c.07-.55.34-1.38-.36-1.55s-.89.65-1.13,1.19A18.38,18.38,0,0,0,57.09,7a64.43,64.43,0,0,0-1.8,8.83c0,.27-.27.67,0,.78s.4-.35.56-.58a3.44,3.44,0,0,0,.28-.6C57,13.6,57.66,11.66,58.21,10.09Zm-1.62,13.4c.08-.28.18-.57.24-.86a5.47,5.47,0,0,0-.17-3c-.1-.28-.3-.69-.59-.48-.75.54-1.94.76-1.73,2.1a1.59,1.59,0,0,1-.08.43A50.33,50.33,0,0,0,53.41,28c0,.25-.15.57.13.72s.5-.2.72-.36a1.38,1.38,0,0,0,.28-.34A16.62,16.62,0,0,0,56.59,23.48Z" transform="translate(-11.67)"/><path class="b6ee9d7b-d209-4de7-a76a-ec2a1c6c6e42" d="M23.69,7.15a18.85,18.85,0,0,1,2.85-5.91A4.23,4.23,0,0,1,28.27.06,1,1,0,0,1,29,.1a2.1,2.1,0,0,1,1.25,2.78,16.6,16.6,0,0,1-2,3.35,5.58,5.58,0,0,1-2.68,1.93,2.44,2.44,0,0,0-1.76,2.28c-.23,2.18-.54,4.35-.81,6.53-.11.91-.05.94.89.82A62.71,62.71,0,0,0,34,15.45c.35-.1.71-.19,1.08-.27a.22.22,0,0,1,.25.18.24.24,0,0,1-.13.27,1.47,1.47,0,0,1-.31.12c-3.43,1-6.83,2-10.34,2.71-.58.11-1.38-.11-1.68.36a5.78,5.78,0,0,0-.56,2.12c-.28,1.65-.5,3.31-.75,5a22.85,22.85,0,0,1-1.45,5.25c-.06.14-.11.28-.18.41-.18.34-.43.76-.83.53s0-.61.14-.9A11.27,11.27,0,0,0,20.32,28c.61-2.38.85-4.83,1.25-7.25.07-.44.18-.87.25-1.31s0-.67-.57-.61A16.78,16.78,0,0,0,14.15,21l-1.64.94c-.25.14-.53.4-.76,0s.11-.55.35-.71a25.79,25.79,0,0,1,3.74-2,16.68,16.68,0,0,1,5-1.17c1.32-.17,1.29-.2,1.43-1.52.21-2,.46-3.91.69-5.86,0-.29.07-.59.08-.89s-.16-.39-.42-.3L21,10.13a14.56,14.56,0,0,1-3,.69c-.54.08-.83.24-.81.92a4.63,4.63,0,0,1-1,2.8,1.55,1.55,0,0,1-2.34.36,1.37,1.37,0,0,1-.42-2.11A5,5,0,0,1,15.34,11c.72-.44.8-.68.36-1.4s-.78-1.17-1.18-1.76a2.15,2.15,0,0,1-.26-.36.56.56,0,0,1,.23-.77.48.48,0,0,1,.68.19c.46.72.93,1.44,1.33,2.19.56,1.05.39.94,1.62.78a31.62,31.62,0,0,0,4.31-1.1A1.59,1.59,0,0,0,23.69,7.15Zm1.18-.75c-.08.29-.13.4-.14.51s-.2.44,0,.62.42,0,.61-.08c2.25-.91,3.28-2.91,4.31-4.89a1.28,1.28,0,0,0-.47-1.39c-.44-.34-.83-.17-1.22.11a4.66,4.66,0,0,0-.94.94A16.58,16.58,0,0,0,24.87,6.4Zm-8.66,6.27c0-.13.05-.31.06-.5s0-.39-.15-.5-.34.05-.5.14a4.07,4.07,0,0,0-1.4,1.4c-.27.43-.11.69.28.89a.81.81,0,0,0,1.16-.29A4.74,4.74,0,0,0,16.21,12.67Z" transform="translate(-11.67)"/><path class="b6ee9d7b-d209-4de7-a76a-ec2a1c6c6e42" d="M88.89,13.6a32.12,32.12,0,0,0-3.4,1.63,24.09,24.09,0,0,1-5.32,1.61,4.35,4.35,0,0,1-1.77,0,.68.68,0,0,0-.92.54c-.17.53-.33,1.06-.51,1.59a4.19,4.19,0,0,1-.27.73.43.43,0,0,1-.57.19c-.21-.09-.2-.28-.16-.48.09-.44.17-.87.25-1.31.52-2.59.57-5.24.85-7.86.05-.48.13-1,.18-1.44,0-.21.17-.53,0-.6s-.37.28-.49.49q-.49.81-1,1.63a19.56,19.56,0,0,1-2.16,3A2.56,2.56,0,0,0,73,14.66a7.64,7.64,0,0,1-2.76,4.57,1,1,0,0,1-1.23.18,1,1,0,0,1-.49-1.14,11.26,11.26,0,0,1,.64-2.59c0-.13.11-.29,0-.42s-.34-.05-.49,0c-1.05.63-2.1,1.27-3.16,1.88-.38.22-.3.56-.29.88a5.59,5.59,0,0,1-1.06,3.45,2.57,2.57,0,0,1-1.33,1,1.79,1.79,0,0,1-2.38-1.35,3.1,3.1,0,0,1,.64-2.51,6.62,6.62,0,0,0,1-1.59,1.69,1.69,0,0,1,2.72-.75c.45.33.78.13,1.12-.05,1.18-.64,2.33-1.3,3.5-2a7.39,7.39,0,0,1,2.51-.84,2.36,2.36,0,0,0,1.56-.94A39.52,39.52,0,0,0,77.22,6.7a21.8,21.8,0,0,0,1.1-3.61,8.33,8.33,0,0,1,1-2c.1-.14.21-.33.44-.25a.42.42,0,0,1,.26.54,2.64,2.64,0,0,1-.23.63c-1.3,2.45-1.61,5.16-1.95,7.85-.18,1.44-.29,2.88-.41,4.32,0,.23-.24.57.12.67s.44-.27.56-.46c.51-.86,1-1.75,1.46-2.63.05-.1.09-.2.14-.3.12-.28.28-.61.64-.4s.19.52,0,.79c-.56,1.09-1.1,2.19-1.75,3.23-.33.52-.25.7.34.86a5.15,5.15,0,0,0,2.32,0,25.81,25.81,0,0,0,5.37-1.77c.54-.24,1.1-.45,1.65-.67.22-.09.44-.12.6.12Zm-24.48,6a1.74,1.74,0,0,0,.09-.32c0-.51.34-1.1-.07-1.49s-.77.1-1.16.17a2.59,2.59,0,0,0-2.09,2.47,1.17,1.17,0,0,0,.58,1.23,1.31,1.31,0,0,0,1.46-.22A3.69,3.69,0,0,0,64.41,19.64Zm5.13-2.42a7.08,7.08,0,0,0-.2.72c0,.24-.18.54.12.7s.51-.05.69-.23a10,10,0,0,0,1.61-2,2.77,2.77,0,0,0,.46-1c0-.13.11-.3-.07-.39s-.28,0-.4.11a3.85,3.85,0,0,1-1,.65A1.45,1.45,0,0,0,69.55,17.21Zm-5.46-.37a.2.2,0,0,0-.21-.18.22.22,0,0,0-.25.25.19.19,0,0,0,.14.12A.34.34,0,0,0,64.09,16.84Z" transform="translate(-11.67)"/><path class="b6ee9d7b-d209-4de7-a76a-ec2a1c6c6e42" d="M89,13.18l-.1.42h0c0-.14.08-.29.13-.43Z" transform="translate(-11.67)"/><path class="b6ee9d7b-d209-4de7-a76a-ec2a1c6c6e42" d="M89.38,13.16H89l.37,0Z" transform="translate(-11.67)"/><path class="b6ee9d7b-d209-4de7-a76a-ec2a1c6c6e42" d="M89.6,12.93l-.22.23v0l.23-.24Z" transform="translate(-11.67)"/><path class="b6ee9d7b-d209-4de7-a76a-ec2a1c6c6e42" d="M89.62,13l.32-.06v0l-.33.08Z" transform="translate(-11.67)"/><path class="b6ee9d7b-d209-4de7-a76a-ec2a1c6c6e42" d="M89.95,12.9l.25-.22,0,0-.24.21Z" transform="translate(-11.67)"/><path class="b6ee9d7b-d209-4de7-a76a-ec2a1c6c6e42" d="M90.19,12.67l.38-.15,0,0-.42.15Z" transform="translate(-11.67)"/><path class="b6ee9d7b-d209-4de7-a76a-ec2a1c6c6e42" d="M90.57,12.52v-.07c-.06,0-.06.06,0,0Z" transform="translate(-11.67)"/></svg>