<svg id="e5cee812-30d0-4739-bbb2-356010e5204a" data-name="46d88610-2c05-459f-98b3-2d57a661e790" xmlns="http://www.w3.org/2000/svg" viewBox="0 0 300 1"><defs><style>.\34 157f5a8-e4f7-473e-9764-a488455d2321{fill:#666;}</style></defs><title>wide-line</title><path class="4157f5a8-e4f7-473e-9764-a488455d2321" d="M0,.07H3.15C8.57.07,14,0,19.4.07l4.92.05c1.69,0,3.39,0,5.08,0,.39,0,.79,0,1.18,0,3.12,0,6.24,0,9.35,0,.86,0,1.72,0,2.57,0a5.82,5.82,0,0,0,.64,0C49.45,0,55.8.07,62.14.06c3.16,0,6.33,0,9.45.1q5.31.11,10.63,0c3.33,0,6.66,0,10,0s6.47-.1,9.68-.09c1.18,0,2.36,0,3.54,0,2.75,0,5.46-.08,8.2-.09s5.57,0,8.36,0c1.41,0,2.82,0,4.22.07Q130.43,0,134.69,0c2.56-.06,5.13-.06,7.69,0,2.36.07,4.83,0,7.25,0s4.92,0,7.39,0c6.07,0,12.13-.12,18.2,0,2.44,0,4.91.1,7.33.05s4.92,0,7.36,0c.85,0,1.48.12,2.14.11s1.32-.09,2-.11c4.25.05,8.54,0,12.77.06,3.54.09,7.23,0,10.79.19.87,0,1.74,0,2.61,0,3.28,0,6.55-.07,9.84-.08,4.85,0,9.71-.07,14.57-.1h.81c5.14.13,10.24,0,15.35-.06,3.22,0,6.45,0,9.67,0,6,0,11.93,0,17.89,0,1.69,0,3.39,0,5.08,0A35.13,35.13,0,0,1,297,.1,10.58,10.58,0,0,0,298.86,0c.61,0,.92,0,1,.17s.35.32-1,.31c-2.47,0-4.92,0-7.37,0-2.11,0-4.25,0-6.37,0-4.59.06-9.18.11-13.77.07-3.89,0-7.75,0-11.62.06a37,37,0,0,1-4.05-.09,6.14,6.14,0,0,0-.8,0c-2.17.09-4.35.09-6.52,0a9.42,9.42,0,0,0-1,0c-2.7.13-5.43.17-8.15.11a42.81,42.81,0,0,1-5-.09,4.83,4.83,0,0,0-.64,0c-3.2.1-6.41.13-9.62.09a7.13,7.13,0,0,1-1.75-.16,1.27,1.27,0,0,0-.94,0,2,2,0,0,1-1.05.13c-2.57,0-5.13.07-7.69.11-3.79.06-7.53,0-11.29-.05-2.66,0-5.33,0-8,0-1.41,0-2.85,0-4.26,0-4.16,0-8.27,0-12.46,0-4.72,0-9.45-.07-14.24-.11-1.78,0-3.54-.05-5.36,0-2.5,0-5,0-7.51-.08q-1.47,0-2.94,0a22.12,22.12,0,0,1-2.91-.06,3.11,3.11,0,0,0-1.18.05,1.75,1.75,0,0,1-.68.07c-1.76-.15-3.54,0-5.3,0s-3.6,0-5.4,0c-2.73,0-5.47,0-8.2,0-2.17,0-4.35,0-6.54,0-1.18,0-2.36.07-3.54.07-4.81,0-9.61.09-14.42,0-1.72,0-3.47,0-5.21,0-2.56,0-5.11,0-7.68,0-2.89,0-5.81-.07-8.69,0-4.17.07-8.27,0-12.45,0-3.06,0-6.11,0-9.15,0-3.71-.09-7.44,0-11.12,0-4.58,0-9.18,0-13.75.1-3.48,0-7,0-10.45,0H18.23c-1.58,0-3.15,0-4.72,0-1.09,0-2.18,0-3.27,0s-2,0-2.94,0c-.6,0-1.2,0-1.8,0-1.13,0-2.27,0-3.38-.1-.48,0-.47.22-.74.17A2.94,2.94,0,0,0,.56.52C.26.55.34.2,0,.07Zm279.72.3c-.19,0-.31,0-.26.11s.31.16.59.14.32,0,.27-.1A.89.89,0,0,0,279.72.38ZM180,.52c0-.09-.08-.12-.25-.12a.53.53,0,0,0-.24,0c-.06,0,0,.09.11.12h.06a.47.47,0,0,0,.3,0h0Zm14.61.41s-.11-.07-.18-.07a.51.51,0,0,0-.32,0l0,0s.09.06.17.07a.54.54,0,0,0,.33,0l0,0ZM245.81.65c.14,0,.24,0,.19-.05a.72.72,0,0,0-.27,0c-.09,0-.24,0-.19,0a1.06,1.06,0,0,0,.27,0ZM85.31.71h-.13s0,0,.13,0,.07,0,.11,0ZM289.22.61v0H289v0Zm-20.35,0H269s0-.06-.13,0-.08,0-.13,0Zm16,0h-.12l.08,0ZM177.15.93V1h.12Z"/></svg>