<svg id="d93d51de-c600-4f2e-9e99-ba29aa282fc9" data-name="Layer 1" xmlns="http://www.w3.org/2000/svg" viewBox="0 0 5.7 8.35"><defs><style>.\30 ee16c79-04b6-45d7-8716-05848b0e7cd5{fill:#fff;stroke:#fff;stroke-miterlimit:10;stroke-width:.25px}</style></defs><title>arrow-right</title><path class="0ee16c79-04b6-45d7-8716-05848b0e7cd5" d="M4.49 4.32a.23.23 0 0 0 0-.16c-.13-.33-.62-.63-.89-.84A19.84 19.84 0 0 1 2 2 8.75 8.75 0 0 0 .42.66.43.43 0 0 1 .2.45C.15.3.3.14.46.13A.69.69 0 0 1 .9.29a6.37 6.37 0 0 1 .53.43A4.55 4.55 0 0 1 2 1.2l.62.54 1.12 1 1.06.93c.18.16 1 .66.77.91a3.79 3.79 0 0 1-1 .72q-.63.38-1.23.79Q2.12 6.9 1 7.83a1.63 1.63 0 0 1-.63.38.23.23 0 0 1-.15 0A.18.18 0 0 1 .13 8a.5.5 0 0 1 .12-.2 10.53 10.53 0 0 1 2-1.8 18.81 18.81 0 0 0 1.6-1.14c.15-.18.57-.3.64-.54z"/></svg>