<svg id="776eae2d-e435-4fcd-9d14-25f6602a7ff3" data-name="Layer 1" xmlns="http://www.w3.org/2000/svg" viewBox="0 0 17.35 17.35"><defs><style>.af2549c4-602c-4f1d-95ec-ca42f72f4219{fill:#d2ac83}</style></defs><title>bullet-02</title><path class="af2549c4-602c-4f1d-95ec-ca42f72f4219" d="M5.37 11.73a2.39 2.39 0 0 0 1.39-.61 1.43 1.43 0 0 1 1.14-.41c.23 0 .53.46.53.84a.35.35 0 0 1-.12.28C8 12.13 6.1 13.07 6 13.5A2 2 0 0 1 4.1 15c-.55 0-.75-.29-.75-.52a1.26 1.26 0 0 1 .77-1.19.48.48 0 0 0 .34-.43c0-.27-.18-.27-.53-.27a2 2 0 0 1-2.28-2.28C1.65 8 3.36 8 4.14 8c.21 0 .32-.12.32-.27a.51.51 0 0 0-.34-.45 1.21 1.21 0 0 1-.77-1.18c0-.23.2-.52.75-.52A2 2 0 0 1 6 7.07c.05.3.23.37.46.55a19.8 19.8 0 0 1 1.82 1.1.36.36 0 0 1 .12.3c0 .37-.32.84-.55.84a1.49 1.49 0 0 1-1.12-.41 2.39 2.39 0 0 0-1.39-.61c-.62 0-1.76.46-1.76 1.44s1.17 1.45 1.79 1.45zm6.38 3.53a2.39 2.39 0 0 0-.6-1.39 1.43 1.43 0 0 1-.41-1.14c0-.23.46-.53.84-.53a.35.35 0 0 1 .28.12c.29.28 1.23 2.21 1.68 2.28A2 2 0 0 1 15 16.53c0 .55-.29.75-.52.75a1.26 1.26 0 0 1-1.19-.77.48.48 0 0 0-.43-.34c-.27 0-.27.18-.27.53A2 2 0 0 1 10.3 19C8 19 8 17.27 8 16.49c0-.21-.12-.32-.27-.32a.51.51 0 0 0-.45.34 1.21 1.21 0 0 1-1.18.77c-.23 0-.52-.2-.52-.75a2 2 0 0 1 1.5-1.93c.3-.05.37-.23.55-.46a19.62 19.62 0 0 1 1.1-1.82.36.36 0 0 1 .27-.12c.37 0 .84.32.84.55a1.49 1.49 0 0 1-.41 1.12 2.4 2.4 0 0 0-.6 1.39c0 .62.46 1.76 1.44 1.76s1.48-1.14 1.48-1.76zM8.9 5.35a2.39 2.39 0 0 0 .6 1.39 1.43 1.43 0 0 1 .41 1.14c0 .23-.46.53-.84.53a.35.35 0 0 1-.28-.12C8.5 8 7.56 6.08 7.13 6a2 2 0 0 1-1.48-1.91c0-.55.29-.75.52-.75a1.26 1.26 0 0 1 1.19.77.48.48 0 0 0 .43.34c.27 0 .27-.18.27-.53a2 2 0 0 1 2.28-2.28c2.28 0 2.28 1.71 2.28 2.49 0 .21.12.32.27.32a.52.52 0 0 0 .45-.34 1.21 1.21 0 0 1 1.18-.77c.23 0 .52.2.52.75A2 2 0 0 1 13.56 6c-.3.05-.37.23-.55.46a19.6 19.6 0 0 1-1.1 1.82.36.36 0 0 1-.3.12c-.37 0-.84-.32-.84-.55a1.49 1.49 0 0 1 .41-1.12 2.39 2.39 0 0 0 .61-1.39c0-.62-.46-1.76-1.44-1.76S8.9 4.73 8.9 5.35zm.16 5a1.27 1.27 0 1 1 1.27 1.27 1.27 1.27 0 0 1-1.27-1.31zm6.22-1.42a2.38 2.38 0 0 0-1.39.6 1.43 1.43 0 0 1-1.14.41c-.23 0-.53-.46-.53-.84a.35.35 0 0 1 .12-.28c.28-.29 2.21-1.23 2.28-1.68a2 2 0 0 1 1.92-1.46c.55 0 .75.29.75.52a1.26 1.26 0 0 1-.77 1.19.48.48 0 0 0-.34.43c0 .27.18.27.54.27A2 2 0 0 1 19 10.33c0 2.28-1.71 2.28-2.49 2.28-.21 0-.32.12-.32.27a.52.52 0 0 0 .34.45 1.21 1.21 0 0 1 .77 1.18c0 .23-.2.52-.75.52a2 2 0 0 1-1.92-1.46c-.05-.3-.23-.37-.46-.55a20 20 0 0 1-1.82-1.11.36.36 0 0 1-.12-.3c0-.37.32-.84.55-.84a1.49 1.49 0 0 1 1.12.41 2.39 2.39 0 0 0 1.39.6c.62 0 1.76-.46 1.76-1.44s-1.15-1.46-1.77-1.46z" transform="translate(-1.65 -1.63)"/></svg>