<svg id="01128658-03df-487b-bfc3-b02ca769b5f2" data-name="Layer 1" xmlns="http://www.w3.org/2000/svg" viewBox="0 0 105.86 35.29"><defs><style>.\31 e12e533-bdaf-47f3-9967-8a3b71cce6ec{fill:#231f20}</style></defs><title>canon-feast</title><path class="1e12e533-bdaf-47f3-9967-8a3b71cce6ec" d="M56.89 26.54h.47a.45.45 0 0 1 .42.2c.17.21.35.41.53.61s.53.57.78.87.49.56.74.83l.83.93c.22.24.41.49.65.71s.33.37.5.55.37.37.54.58a.31.31 0 0 0 .09.07c.06 0 .11 0 .13-.05s0-.11.07-.14 0 0 0-.06 0-.15-.05-.22 0-.27 0-.41a.21.21 0 0 1 0-.1c0-.05.07-.09 0-.13s0-.06 0-.09a.86.86 0 0 0 0-.41.56.56 0 0 1 0-.2v-1.17-1.51a.54.54 0 0 0-.36-.56 1.31 1.31 0 0 0-.29-.09.24.24 0 0 1-.17-.17v-.06h.12a3.63 3.63 0 0 0 .61 0h.88a.47.47 0 0 1 .17 0 .07.07 0 0 1 .05.06.07.07 0 0 1 0 .09h-.11a.82.82 0 0 0-.33.16.85.85 0 0 0-.27.42.92.92 0 0 0-.09.38 3.28 3.28 0 0 0 0 .63.48.48 0 0 1 0 .12v3.96a6.74 6.74 0 0 1 0 .69.19.19 0 0 0 0 .08.81.81 0 0 1 0 .46s-.12-.16-.18-.23-.07-.13 0-.19.05 0 0-.07-.05 0-.08 0h-.18c-.04 0-.26-.31-.39-.47s-.28-.27-.41-.42l-.4-.45a.09.09 0 0 1 0-.13c0-.06 0 0 0 0s-.1 0-.14-.06-.36-.41-.54-.6-.21-.2-.3-.32l-.09-.14a.51.51 0 0 0-.22-.23s-.06 0-.06-.05a.75.75 0 0 0-.25-.31c-.19-.18-.32-.4-.52-.56a.7.7 0 0 1-.1-.12s0-.06-.06-.08a6.69 6.69 0 0 1-.54-.58 1 1 0 0 1-.25-.35s0-.05-.07 0 0 0-.06 0a1.72 1.72 0 0 0-.31-.35s-.08-.09-.14-.07-.08.09-.08.15v4.04a3.4 3.4 0 0 0 0 .46c0 .19.06.39.09.58a.4.4 0 0 0 .31.31 2.6 2.6 0 0 1 .4.21.06.06 0 0 1 0 .07.07.07 0 0 1-.06 0H56.52c-.16 0-.15 0-.16-.08s.08-.09.15-.1c.27 0 .38-.24.5-.44s.08-.26.15-.38a.11.11 0 0 0 0-.07 3.87 3.87 0 0 1 0-1 .11.11 0 0 0 0-.05 1.85 1.85 0 0 1 0-.74v-1.14-1.2-1.08a.39.39 0 0 0-.09-.21 1.08 1.08 0 0 0-.45-.39.73.73 0 0 0-.18-.06h-.08c-.05 0-.13-.05-.12-.13s.09-.05.14-.05zm.47 1.09c.06 0 0-.07 0-.11s-.07 0-.07.1l.07.02zm-.07.29h.06zm.13 5.5s.02.01 0 0zm2.1-3.88h-.06a.06.06 0 0 0 .06.01zm-1.55 4zm-.72-.38zm.63-6.06zm5.12-.21zm-2.21 3.29zm.18 1zm1.51.84zm-6-5.3zM75.36 26.54h.47a.45.45 0 0 1 .42.2c.17.21.35.41.53.61s.53.57.78.87.49.56.74.83l.83.93c.22.24.41.49.65.71s.33.37.5.55.37.37.54.58a.31.31 0 0 0 .09.07c.06 0 .11 0 .13-.05s0-.11.07-.14 0 0 0-.06 0-.15-.05-.22 0-.27 0-.41a.21.21 0 0 1 0-.1c0-.05.07-.09 0-.13s0-.06 0-.09a.86.86 0 0 0 0-.41.56.56 0 0 1 0-.2v-1.17-1.51a.54.54 0 0 0-.36-.56 1.31 1.31 0 0 0-.29-.09.24.24 0 0 1-.17-.17v-.06h.12a3.63 3.63 0 0 0 .61 0h.88a.47.47 0 0 1 .17 0 .07.07 0 0 1 .05.06.07.07 0 0 1 0 .09h-.11a.82.82 0 0 0-.33.16.85.85 0 0 0-.27.42.92.92 0 0 0-.09.38 3.28 3.28 0 0 0 0 .63.48.48 0 0 1 0 .12v3.96a6.74 6.74 0 0 1 0 .69.19.19 0 0 0 0 .08.81.81 0 0 1 0 .46s-.12-.16-.18-.23-.07-.13 0-.19.05 0 0-.07-.05 0-.08 0h-.18c-.04 0-.26-.31-.39-.47s-.28-.27-.41-.42l-.4-.45a.09.09 0 0 1 0-.13c0-.06 0 0 0 0s-.1 0-.14-.06-.36-.41-.54-.6-.21-.2-.3-.32l-.09-.14a.51.51 0 0 0-.22-.23s-.06 0-.06-.05a.75.75 0 0 0-.25-.31c-.19-.18-.32-.4-.52-.56a.7.7 0 0 1-.1-.12s0-.06-.06-.08a6.69 6.69 0 0 1-.54-.58 1 1 0 0 1-.25-.35s0-.05-.07 0 0 0-.06 0a1.72 1.72 0 0 0-.31-.35s-.08-.09-.14-.07-.08.09-.08.15v4.04a3.4 3.4 0 0 0 0 .46c0 .19.06.39.09.58a.4.4 0 0 0 .31.31 2.6 2.6 0 0 1 .4.21.06.06 0 0 1 0 .07.07.07 0 0 1-.06 0H74.98c-.16 0-.15 0-.16-.08s.08-.09.15-.1c.27 0 .38-.24.5-.44s.08-.26.15-.38a.11.11 0 0 0 0-.07 3.87 3.87 0 0 1 0-1 .11.11 0 0 0 0-.05 1.85 1.85 0 0 1 0-.74v-1.14-1.2-1.08a.39.39 0 0 0-.09-.21 1.08 1.08 0 0 0-.45-.39.73.73 0 0 0-.18-.06h-.08c-.05 0-.13-.05-.12-.13s.09-.05.14-.05zm.47 1.09c.06 0 0-.07 0-.11s-.07 0-.07.1l.07.02zm-.07.29h.06zm.13 5.5s.02.01 0 0zM78 29.55h-.06a.06.06 0 0 0 .06 0zm-1.55 4zm-.72-.38zm.63-6.06zm5.08-.25zm-2.21 3.29zm.18 1zm1.49.85zm-6-5.3zM69.12 26.35a2.41 2.41 0 0 1 .6.07 5.68 5.68 0 0 1 1.38.49 1.14 1.14 0 0 1 .44.34.74.74 0 0 0 .13.13 2.17 2.17 0 0 1 .47.55.43.43 0 0 1 0 .19s.11 0 .15.09.21.31.17.51a1.25 1.25 0 0 1 .19.67 3.64 3.64 0 0 1 0 1.16 4.4 4.4 0 0 1-.18.7 2.58 2.58 0 0 1-.32.68 2.31 2.31 0 0 1-.66.74.34.34 0 0 0-.1.11 1.64 1.64 0 0 1-.27.26.17.17 0 0 1-.19 0h-.09a1.17 1.17 0 0 1-.77.4H70a2.63 2.63 0 0 1-.9.11h-.24a.25.25 0 0 1-.13 0 .89.89 0 0 0-.37-.05 1.5 1.5 0 0 1-.49-.08 1.63 1.63 0 0 0-.32-.09.56.56 0 0 1-.32-.16c-.06-.06-.16-.07-.24-.12a2 2 0 0 1-.41-.35l-.24-.26a2.71 2.71 0 0 1-.56-.9.21.21 0 0 0 0-.06 1.41 1.41 0 0 1-.26-.79 4.29 4.29 0 0 1 0-1.18 6.12 6.12 0 0 1 .23-1 2.37 2.37 0 0 1 .5-.89c.08-.09.15-.18.23-.27a3.22 3.22 0 0 1 .94-.76 4 4 0 0 1 .61-.26h.31c.3.01.58.09.78.02zm1.27 6.85a3.38 3.38 0 0 1 .38-.33 4.35 4.35 0 0 0 .58-.68 1.91 1.91 0 0 0 .36-.83 4.9 4.9 0 0 0 .15-1.1c0-.39 0-.78-.06-1.17v-.08c0-.01-.07-.2-.1-.3a.81.81 0 0 0 0-.15c-.06-.13-.11-.27-.18-.4a2.14 2.14 0 0 0-.23-.41c-.17-.19-.34-.39-.52-.58a1.51 1.51 0 0 0-.24-.25c-.07 0-.14 0-.2-.07s-.39-.11-.56-.23a4 4 0 0 1-.6 0 2.63 2.63 0 0 0-.93.12h.07-.08a1.91 1.91 0 0 0-.53.25c-.17.16-.41.26-.48.52l-.05.07a4.76 4.76 0 0 0-.42.74 2.22 2.22 0 0 0-.13.47 2.2 2.2 0 0 0-.12.58 5.76 5.76 0 0 1 0 .71 2.7 2.7 0 0 0 0 .41.94.94 0 0 0 0 .3 6.09 6.09 0 0 1 .19.77 2 2 0 0 0 .25.55 2 2 0 0 0 .26.35c.05 0 .09.1 0 .13s0 0 .05 0h.05c0-.08.08 0 .11 0a1.23 1.23 0 0 0 .38.35 1.75 1.75 0 0 0 .77.35h.07a4 4 0 0 0 1 .09c.23-.05.45-.1.68-.16a2 2 0 0 1 .08-.02zm1.27-5.2s.06 0 0 0zm-1.44-1.35h.05s-.04-.03-.05-.03zm2 2.38s.01-.03-.01-.03zm-.44 3.37zm.58-3.72zm-.78-.53zm.13.1zm.71 2.75zm-1.93 2.29zm-2.6.1zM47.88 33.57a.6.6 0 0 1-.44-.09h-.13c-.03 0 0 .07-.06.07a3 3 0 0 1-.92 0h-.09a.15.15 0 0 1 .06-.13h.08a2.22 2.22 0 0 0 .81-.37 1.39 1.39 0 0 0 .41-.47c.09-.16.17-.33.26-.5s0-.06.08 0 .11 0 .16-.07 0-.07 0-.09-.08-.16 0-.24c.16-.32.31-.65.49-1 .05-.09.08-.19.13-.27.17-.29.29-.6.46-.89.07-.11.1-.24.16-.35s0-.1.09-.06.11.13.07.16-.06.06 0 .11 0 .07 0 .09-.15.28-.23.41a1 1 0 0 0-.16.33c0 .2 0 .22.18.23h2.53c.12 0 .15-.05.1-.17a3.64 3.64 0 0 0-.32-.69v-.07c0-.02-.11-.22-.16-.33s-.2-.36-.26-.55a.54.54 0 0 0-.08-.17.33.33 0 0 1-.09-.19.14.14 0 0 0-.05-.08c-.08-.08-.16-.16-.1-.29s-.14-.1-.21-.16a.1.1 0 0 0-.16 0 .52.52 0 0 0-.11.19 5.52 5.52 0 0 1-.35.68c-.13 0-.11.12-.11.22a.57.57 0 0 1-.12.26.1.1 0 0 1-.14 0 .11.11 0 0 1-.06-.15 1.17 1.17 0 0 1 .17-.31c.09-.14.12-.3.21-.44s.21-.37.3-.57.2-.39.28-.6.2-.33.25-.51.06-.06.11 0a.33.33 0 0 1 .12.12c.18.38.35.77.55 1.14.12.22.2.46.32.67s.28.55.42.83c.23.47.49.94.74 1.4s.59 1.17.9 1.74c.1.19.19.39.3.59a.8.8 0 0 0 .45.36l.22.08s.08 0 .07.1-.05.08-.11.08h-.47a8.21 8.21 0 0 0-.84 0h-.07c-.09 0-.17-.12-.28 0s-.18 0-.28 0h-.13c-.04 0-.08 0-.06-.09a.19.19 0 0 1 .08-.09 1.26 1.26 0 0 0 .26-.24.44.44 0 0 0 .07-.46.91.91 0 0 1-.07-.26.24.24 0 0 0 0-.11 1.76 1.76 0 0 1-.15-.3 4.81 4.81 0 0 1-.35-.79.25.25 0 0 0-.1-.13.25.25 0 0 1-.1-.19c0-.11-.1-.17-.18-.23s-.16-.1-.26 0a.1.1 0 0 1-.08 0 2.82 2.82 0 0 0-.62 0h-1.93a3.11 3.11 0 0 0-.44 0 .17.17 0 0 0-.16.13.2.2 0 0 1-.09.12c-.1.06-.08.21-.19.26s0 .05 0 .08v.07s-.08.1-.09.17a1 1 0 0 1-.13.33c-.1.16-.14.36-.29.49s-.17.38-.16.6a.49.49 0 0 0 .44.45h.2a.13.13 0 0 1 .1 0v.06a.2.2 0 0 0-.19 0 .35.35 0 0 1-.2 0 .52.52 0 0 0-.2 0zm3.77-4.19v-.09.09c0-.03 0 .02 0 0zm2.08 4.06c0-.06 0-.05-.08-.07s-.06 0-.06 0a.07.07 0 0 0 .06.09.07.07 0 0 0 .08-.02zm-2.26-5.11a.06.06 0 0 0 .07-.05.06.06 0 0 0-.07.06zm-4 5s0-.01-.02-.02zm5.62-.92l-.02-.02zm-6 1a.06.06 0 0 0-.05.05v-.06l.06-.03zm.56-.19v.06s.01-.07.02-.11zM51.46 29zm1.42 2.5v.01zm-5.2 2zm5-1.9s-.02-.05-.01-.04zm-3.74-1.21s-.02-.03-.02-.04zM50.81 28zm1.29 1.64zm-2.89.08zm4.32 2.78zm-.23-.29zm-.94-2.13zm-1.73-3.21zM42.89 26.44a6.44 6.44 0 0 1 .68.15.39.39 0 0 0 .4-.1c.06-.07.16 0 .2.06s.14.35.21.53a3.24 3.24 0 0 0 .27.56l.08.15v.06a.06.06 0 0 1-.06 0 .1.1 0 0 1-.05-.06c0-.11-.14-.18-.16-.29s0-.05-.06 0a.09.09 0 0 1-.13 0c-.05 0-.12-.1-.1-.16s0-.1-.09-.11H44s-.07 0-.06-.07 0-.12-.12-.11-.11 0-.09-.08 0-.06-.08-.06a1.87 1.87 0 0 1-.61-.17h-.06c0-.22-.21-.12-.3-.09a.44.44 0 0 1-.37 0 .57.57 0 0 0-.32 0 5.07 5.07 0 0 1-.57 0 .43.43 0 0 0-.24.06.25.25 0 0 1-.27 0c-.06 0-.09 0-.1.06a.15.15 0 0 1-.11.12.69.69 0 0 0-.31.2.09.09 0 0 0-.11-.06h-.13L40 27s0 .06.05.08.06.05 0 .09-.06 0-.09 0h-.06v.24a3.83 3.83 0 0 0-.52.93c0 .08 0 .16-.07.24a4.22 4.22 0 0 0-.22 1.45 3.71 3.71 0 0 0 .18 1 4.69 4.69 0 0 0 .33.74c.17.14.25.35.43.47s.16.11.17.22a1.1 1.1 0 0 1 .36.25 2.94 2.94 0 0 0 .69.38h.24a2.47 2.47 0 0 0 1 .07 2.33 2.33 0 0 0 .27 0 4.47 4.47 0 0 0 .92-.26 3 3 0 0 0 .52-.28.18.18 0 0 1 .22 0h.05c-.02 0 0-.18.11-.25a8 8 0 0 0 .62-.6s0-.09.07-.13.05-.06.1 0 .08.06 0 .11-.13.2-.19.3-.07 0-.11 0H45c-.01 0 0 0 0 .05v.12l-.15.16a3.72 3.72 0 0 1-1 .86.52.52 0 0 1-.29.07.23.23 0 0 1-.2.1c-.14.16-.35.08-.52.15a.88.88 0 0 1-.43 0 .73.73 0 0 1-.53 0 .19.19 0 0 0-.16 0h-.1a1.46 1.46 0 0 1-.63-.12c-.07 0-.16 0-.24-.05s-.07 0-.09-.07 0-.06-.05-.06 0 0 0 .06 0 0-.06 0l-.3-.12a1.29 1.29 0 0 0-.31-.13.15.15 0 0 1-.14-.15c0-.06 0-.07-.09 0s-.16-.05-.23-.08-.15-.06-.14-.17 0 0-.05-.06a2.74 2.74 0 0 1-.86-1 2.24 2.24 0 0 1-.18-.54.06.06 0 0 1 0-.06v-.09a.38.38 0 0 1-.14-.31 5.21 5.21 0 0 0-.06-.57.37.37 0 0 1 0-.1c.06-.33.09-.66.18-1a2.36 2.36 0 0 1 .38-.84.42.42 0 0 0 0-.09 2 2 0 0 1 .41-.57 1 1 0 0 0 .11-.11 2.1 2.1 0 0 1 .7-.59l.34-.19a3.11 3.11 0 0 1 .41-.15 4.21 4.21 0 0 1 1-.13 3.37 3.37 0 0 1 .86.05.51.51 0 0 0 .17 0 .11.11 0 0 1 .11.06zM39.09 32zm-.18-1.87a.39.39 0 0 0-.26-.1v.07l.17.13a.07.07 0 0 0 .09-.07zm.18-1.64a.06.06 0 0 0 .05.06.06.06 0 0 0-.06-.03zm-.34.51h-.01zm4.39-2.4s-.03.03-.01.03zm-4.57 3.7s.01.04 0 .03zm0 .9zm.36-.6zm.09-.94zm.68 2.38zm1.89 1.43zm-1.34-.64zm-1.66-3.68zm5.25-2.42zm-5.15 3.57zm1-2.88zM39 31.91zm-.4-1.44zm5.18 2.77zm-4.3-5.57zM26.23 31.44c.54-.81 1-1.33 1.62-1.33a.62.62 0 0 1 .66.69 2.82 2.82 0 0 1-1 1.8 2.29 2.29 0 0 1-1.46.74c-.41 0-.61-.27-.61-.71a5.16 5.16 0 0 1 .39-1.51l.89-2.36c.16-.43.18-.56.08-.64l-.15-.12a.1.1 0 0 1 0-.11 3 3 0 0 1 .92-.15l-.39 1zm.47-.27a2.7 2.7 0 0 0-.7 1.53c0 .3.14.4.27.4a1.38 1.38 0 0 0 .74-.51 4.39 4.39 0 0 0 1-1.95.25.25 0 0 0-.27-.28c-.19.01-.57.27-1.04.81zM30.7 31.41a9.07 9.07 0 0 1-.11 1.69 6.21 6.21 0 0 0 .64-1.32 6.66 6.66 0 0 0 .28-1.42c0-.22.13-.24.18-.24a.5.5 0 0 1 .21.07.16.16 0 0 1 .07.15 6 6 0 0 1-.89 2.34 10.32 10.32 0 0 1-1.26 1.84c-.57.65-.95.77-1.19.77a.36.36 0 0 1-.4-.35.31.31 0 0 1 .31-.33.26.26 0 0 1 .21.12.26.26 0 0 0 .21.14.74.74 0 0 0 .42-.21 2.74 2.74 0 0 0 .67-1.15 7.41 7.41 0 0 0 .15-1.75c0-.85-.15-1.15-.29-1.15s-.28.26-.44.58a.11.11 0 0 1-.15-.1c.16-.51.5-1 .87-1s.5.78.51 1.32zM.18.16h8.38a.18.18 0 0 1 .18.18v1.94a.18.18 0 0 1-.18.18H2.71a.18.18 0 0 0-.18.18v2.08a.18.18 0 0 0 .18.18h5.11a.18.18 0 0 1 .18.18V7a.18.18 0 0 1-.18.18H2.71a.18.18 0 0 0-.18.18v4.08a.18.18 0 0 1-.18.18H.18a.18.18 0 0 1-.18-.16V.34A.18.18 0 0 1 .18.16zM24 .16h8.29a.18.18 0 0 1 .18.18v1.89a.18.18 0 0 1-.18.18h-5.75a.18.18 0 0 0-.18.18v2a.18.18 0 0 0 .18.18h5a.18.18 0 0 1 .18.18V6.8a.18.18 0 0 1-.18.18h-5a.18.18 0 0 0-.18.18v2a.18.18 0 0 0 .18.18h5.87a.18.18 0 0 1 .18.18v1.88a.18.18 0 0 1-.18.18H24a.18.18 0 0 1-.18-.18V.34A.18.18 0 0 1 24 .16zM52 .08h2.09a.18.18 0 0 1 .17.11L59 11.39a.18.18 0 0 1-.17.25H56.6a.18.18 0 0 1-.17-.11l-1-2.35a.18.18 0 0 0-.17-.11H50.7a.18.18 0 0 0-.17.11l-1 2.35a.18.18 0 0 1-.17.11h-2.13a.18.18 0 0 1-.17-.25L51.83.19A.18.18 0 0 1 52 .08zm2.43 6.5l-1.26-3.06a.18.18 0 0 0-.34 0l-1.25 3.07a.18.18 0 0 0 .17.25h2.51a.18.18 0 0 0 .17-.25zM73.16 9.83l1.26-1.51a.18.18 0 0 1 .25 0A5.16 5.16 0 0 0 78 9.57c1 0 1.66-.41 1.66-1.08 0-.64-.39-1-2.31-1.46C75 6.41 73.5 5.77 73.5 3.49c0-2.08 1.67-3.46 4-3.46a6.65 6.65 0 0 1 4.12 1.35.19.19 0 0 1 0 .25l-1.05 1.58a.18.18 0 0 1-.25 0 5.23 5.23 0 0 0-2.84-1c-1 0-1.48.44-1.48 1 0 .75.49 1 2.48 1.51 2.33.61 3.64 1.44 3.64 3.44 0 2.28-1.74 3.56-4.21 3.56a7.31 7.31 0 0 1-4.73-1.71.19.19 0 0 1-.02-.18zM99.66 2.49h-3.13a.18.18 0 0 1-.18-.18v-2a.18.18 0 0 1 .18-.18h9.14a.18.18 0 0 1 .18.18v2a.18.18 0 0 1-.18.18h-3.13a.18.18 0 0 0-.18.18v8.78a.18.18 0 0 1-.18.18H100a.18.18 0 0 1-.18-.18V2.67a.18.18 0 0 0-.16-.18z"/></svg>