<svg id="95d8f00c-c049-49ea-b8b9-12dfc280d084" data-name="894d7417-108d-4438-bc2e-ae7a6feed2a7" xmlns="http://www.w3.org/2000/svg" viewBox="0 0 99.88 33.05"><defs><style>.ea2d215e-0ae4-4537-adbb-337fc8330b3d{fill:#d6c5b1}</style></defs><title>social--instagram</title><path class="ea2d215e-0ae4-4537-adbb-337fc8330b3d" d="M19.83 22.43a1 1 0 0 1-1.51-1.12 8.9 8.9 0 0 0-.12-2 .92.92 0 0 0-1.65-.49 6.82 6.82 0 0 0-1.7 2 .43.43 0 0 1-.49.21c-.13 0 0-.25 0-.38.07-.33.16-.65.24-1 .16-.65.34-1.3.47-2 .16-.82-.29-1.24-1.09-1.13a6.71 6.71 0 0 0-1.79.51.85.85 0 0 0-.33.26c-.07.1-.23.28-.14.4l.08.07.1.12a1.06 1.06 0 0 0 .5-.12 6.23 6.23 0 0 1 .61-.24c.64-.2.74-.12.64.54-.27 1.66-.55 3.32-.82 5 0 .21-.12.46.13.57a.64.64 0 0 0 .79 0 5 5 0 0 0 .8-1.05 23.74 23.74 0 0 1 2-2.7c.1-.11.2-.3.37-.26s.17.26.18.41a14.74 14.74 0 0 1 .09 1.79 1.46 1.46 0 0 0 1.74 1.68h.24c.32-.19.63-.39.92-.59l.24-.16.1-.08a7.67 7.67 0 0 0 .75-.9 9.4 9.4 0 0 1-1.35.66zM4.5 7.89L4.26 8a7.12 7.12 0 0 0-1.61 1.18 6.33 6.33 0 0 0-1.88 3.17c-.06.24-.13.5-.49.41s-.28-.38-.21-.64a7.54 7.54 0 0 1 1.7-3 12.2 12.2 0 0 1 2-1.68c1.46-.84 3-1.62 4.37-2.55a13 13 0 0 0 3.61-3.42c.3-.45.49-1 1-1.28.2 0 .37-.32.57-.09s.09.46 0 .69a10.35 10.35 0 0 0-1.35 2.74c-.17.75-.4 1.5-.55 2.26-.6 3-1.21 5.95-1.76 8.93-.45 2.28-.77 4.57-1.36 6.83-.35 1.37-.68 2.74-1 4.11a24.33 24.33 0 0 1-1.52 4.56 16.7 16.7 0 0 1-1.37 2.45c-.16.23-.33.43-.64.38a.66.66 0 0 1-.59-.39C3 32.34 3 32 3.46 32a.72.72 0 0 0 .58-.4 14.55 14.55 0 0 0 1.6-3.4c.7-2 1.13-4.08 1.66-6.13.47-1.79.74-3.62 1-5.45S9 13 9.36 11.17a1.45 1.45 0 0 1 .13-.29c.18-1.61.51-3.2.77-4.8a4.9 4.9 0 0 0 .28-1.44c-.07-.56-.15-.6-.59-.28-.66.48-1.29 1-2 1.45-1.12.69-2.29 1.3-3.43 1.95a.58.58 0 0 0 0 .09z"/><path class="ea2d215e-0ae4-4537-adbb-337fc8330b3d" d="M99.29 9.06a2.26 2.26 0 0 1-.28.15 7.64 7.64 0 0 1-1.18.66 27.23 27.23 0 0 1-3.06 1c-1.8.31-3.53 1-5.39 1-1.08 0-1.91.16-2.38-1.21-.28-.82-1-.9-1.66-.42a21.34 21.34 0 0 1-2.59 1.6c-.31.15-.66.34-1 .12s-.11-.52-.1-.79a9.76 9.76 0 0 0 0-2c-.09-.56-.3-.69-.87-.62s-.94.57-1.31 1-.59.74-.89 1.11a.41.41 0 0 1-.4.2c-.21-.06-.13-.27-.13-.41 0-.6 0-1.19.09-1.79.11-1.07.07-2.15.24-3.22.05-.32-.22-.52-.45-.67s-.34.08-.43.22c-.88 1.28-1.77 2.55-2.63 3.84a8.58 8.58 0 0 1-2.88 3c-.35.2-.71.38-1.09.12a1.08 1.08 0 0 1-.38-1 15.93 15.93 0 0 1 .33-2.2.53.53 0 0 0-.33-.59.34.34 0 0 0-.5.14c-.23.62-.8 1-1.12 1.52A3.66 3.66 0 0 1 68 11c-.12.09-.25.24-.42.11s-.09-.27-.06-.4a4.92 4.92 0 0 1 .31-1.18A3.07 3.07 0 0 1 69 7.93c.35-.17.56-.39.42-.77s-.51-.31-.81-.18a13.5 13.5 0 0 0-2.06 1.1v.13a18.41 18.41 0 0 0-1.89 1.94 10 10 0 0 1-2.42 2.08 4.75 4.75 0 0 1-1.45.64c-.85.17-1.14-.06-1.27-.92a18 18 0 0 1 0-2.86.9.9 0 0 0-.7-.93A4.76 4.76 0 0 0 57.46 8a1.18 1.18 0 0 0-1.16.92 18.38 18.38 0 0 1-1.66 3.52c-.06.13-.11.29-.29.27s-.2-.24-.23-.38c-.08-.29-.08-.6-.17-.88-.21-.63-.69-1-1.14-.78a3.87 3.87 0 0 0-1.42.91 6.44 6.44 0 0 1-1.28 1c-.14.1-.34.34-.5.12s.08-.38.23-.53c.85-.85 1.63-1.77 2.41-2.69.29-.34.14-.47-.14-.64a.67.67 0 0 0-.78 0 15.25 15.25 0 0 0-3 2.45v.13A1.46 1.46 0 0 0 47.7 13a.53.53 0 0 1-.22.58A21.33 21.33 0 0 1 44 16.09c-.8.47-1.25.21-1.31-.7a6.87 6.87 0 0 0 0-1.3c-.08-.32-.2-.62-.63-.53-.49 0-.74.33-1 .62a19.46 19.46 0 0 0-1.48 2c-.1.12-.16.33-.35.23A.34.34 0 0 1 39 16a4.49 4.49 0 0 1 .34-1 8.38 8.38 0 0 1 2.34-2.76.7.7 0 0 0 .2-.82c-.09-.32-.37-.3-.62-.26l-1.49.27A5.35 5.35 0 0 0 37.38 13c-.78.9-1.38 1.93-2.11 2.87a9.36 9.36 0 0 1-2.06 2.5c-.46.29-.77.23-1-.26a4.6 4.6 0 0 1-.42-2 37 37 0 0 1 .71-6.2c0-.34.22-.68.56-.7a6.88 6.88 0 0 0 2-.54 10.47 10.47 0 0 0 1.87-.52 15.23 15.23 0 0 1 2.85-.66c.14 0 .26-.08.23-.25a11.32 11.32 0 0 0-2.52.39A14.3 14.3 0 0 1 35.7 8a16.07 16.07 0 0 0-2.31.45c-.58.13-.64.11-.58-.51s.17-1.22.26-1.84c0-.25 0-.5-.29-.54a.45.45 0 0 0-.58.44 14.66 14.66 0 0 1-.65 2.15c-.14.63-.42 1.19-1.23 1.25a3.71 3.71 0 0 0-1 .32A16.06 16.06 0 0 1 23.94 11c-.4 0-.55.33-.38.73a1.73 1.73 0 0 0 .92.14 14.24 14.24 0 0 0 3.55-1 15.28 15.28 0 0 0 1.81-.67c.2-.08.51-.25.72 0s0 .47-.07.7a3.89 3.89 0 0 1-.17.45 23.32 23.32 0 0 1-1.65 3.38v.13c-.14.16-.24.35-.36.52a13 13 0 0 1-1.72 2.14c-.24.21-.4.21-.46-.14a17.09 17.09 0 0 1-.59-3.5.47.47 0 0 0-.48-.56c-.32 0-.63.18-.6.47 0 .45-.23.73-.39 1.07a15.69 15.69 0 0 0-.83 1.74 15.37 15.37 0 0 1-1.95 4.09 5.44 5.44 0 0 1-1.42 1.61 1.38 1.38 0 0 1-1.59.12 2 2 0 0 1-.12.23l-.1.16.17.54a2.51 2.51 0 0 0 1.77-.28A6.88 6.88 0 0 0 21.21 22a15.28 15.28 0 0 0 1.9-3.43c.32-.86.66-1.72 1-2.58.06-.14.14-.32.31-.33s.24.18.3.33c.12.31.19.65.33 1 .53 1.17.53 2.21-.67 3-.22.14 0 .46-.24.54-.84.29-.93 1.1-1.13 1.76a1.13 1.13 0 0 0 .91 1.44 1.94 1.94 0 0 0 1.88-1 6.12 6.12 0 0 0 .61-3.13 1.44 1.44 0 0 1 .39-1.15 13.09 13.09 0 0 0 1.4-1.66v-.13a25 25 0 0 0 1.8-3.2c.35-.68.62-1.39.93-2.09.07-.15.09-.41.31-.36s.08.31.11.47 0 .1 0 .16a33.61 33.61 0 0 0-.3 4.9 4.83 4.83 0 0 0 .54 2.09 1.22 1.22 0 0 0 1.89.47 6.13 6.13 0 0 0 1.44-1.52c.88-1.1 1.46-2.4 2.31-3.53a6.36 6.36 0 0 1 2.22-1.9c.14-.07.28-.17.43 0s.06.28 0 .42-.1.23-.18.32a8.9 8.9 0 0 0-1.32 2.4 2.52 2.52 0 0 0-.14 1.86c.14.39.33.73.85.55.13.14.24.06.36 0a2.91 2.91 0 0 0 .82-.88c.27-.47.56-.93.84-1.41.08-.13.14-.26.32-.2a.33.33 0 0 1 .26.3v.37c.06.72.4 1.51 1.52 1.44a3.91 3.91 0 0 0 1.57-.66 20.45 20.45 0 0 0 3-2.39 1.06 1.06 0 0 1 1-.29 2.36 2.36 0 0 0 1.74-.41A21.48 21.48 0 0 0 52.31 12c.38-.26.52-.26.7.18a6.77 6.77 0 0 1 .39 2 1 1 0 0 1-.23.69c-1 1.41-2.11 2.78-3.07 4.25a10.67 10.67 0 0 0-1.94 4.76 3.76 3.76 0 0 0 1.22 3.59 2.4 2.4 0 0 0 3.22-.21 6 6 0 0 0 1.53-2.92 24.65 24.65 0 0 0 .46-4 35.28 35.28 0 0 0-.14-4.41 3.52 3.52 0 0 1 .55-2.5 29.61 29.61 0 0 0 2.14-4.31l.19-.12c.82-.29 1.23-.27 1.19.73a12.67 12.67 0 0 0 .15 3 1.25 1.25 0 0 0 1 1.07 2.9 2.9 0 0 0 2-.36A9.72 9.72 0 0 0 65 10.71c.48-.55 1-1.08 1.5-1.62.08-.08.18-.15.28-.08a.28.28 0 0 1 .14.32c0 .15-.09.31-.13.46-.15.74-.56 1.47-.17 2.25a.78.78 0 0 0 1.28.32 3.42 3.42 0 0 0 1.1-1.14c0-.11.13-.22.28-.21s.19.14.22.26c.1.34.18.69.32 1a1.25 1.25 0 0 0 1.59.78 6 6 0 0 0 2.8-2 31.15 31.15 0 0 0 2.56-3.82c.07-.13.15-.26.32-.22s.17.21.17.35v1.69a26.08 26.08 0 0 1-.21 4c-.11.59 0 .7.65.59.22-.09.28-.31.36-.5A14.92 14.92 0 0 1 80.12 10c.09-.11.18-.24.35-.19s.2.19.21.34a2.9 2.9 0 0 1 0 .47v1.64a.8.8 0 0 0 .7.85 2.57 2.57 0 0 0 1.52-.35 19.67 19.67 0 0 0 2.45-1.55c.56-.29.59-.28.83.33.14.35.21.77.56 1a2.57 2.57 0 0 0 1.7.45c.59-.09 1.18-.13 1.77-.23a22 22 0 0 0 4.71-1.29 7 7 0 0 0 1.74-.58 23.85 23.85 0 0 0 2.85-1.49c.15-.08.25-.27.37-.42a.6.6 0 0 0-.59.08zM25.68 21.18a2.16 2.16 0 0 0-.32.78 1.36 1.36 0 0 1-.58.74c-.25.15-.53.31-.78.08a.56.56 0 0 1-.12-.7 5.27 5.27 0 0 1 1.45-1.95c.09-.08.2-.06.22 0 .05.37.56.62.13 1.05zm27.44 4a3.47 3.47 0 0 1-1.57 2.06 1.68 1.68 0 0 1-1.89-.33 3.73 3.73 0 0 1-.69-3 10 10 0 0 1 1.86-4.51c.72-1.1 1.52-2.16 2.28-3.23.08-.11.08-.32.27-.28s.22.25.24.42l.27 2.32a2.4 2.4 0 0 0 0 1.16 14.24 14.24 0 0 1-.77 5.35z"/><path class="ea2d215e-0ae4-4537-adbb-337fc8330b3d" d="M40.19 7.14h-.18a9.43 9.43 0 0 1 1.92-.37h.12c0 .17-.12.21-.24.23-.41.09-.83.17-1.23.27a.32.32 0 0 1-.4-.17l.07.05zM41.94 6.77h.12-.12zM39.81 11.47l.02-.02-.03.02h.01z"/></svg>