<svg id="1d2175e2-ba3f-48bd-891a-b65769e53811" data-name="Layer 1" xmlns="http://www.w3.org/2000/svg" viewBox="0 0 20.57 20.57"><defs><style>.\32 db0d68e-156e-428d-97f0-043ad2333852{fill:#d2ab82}</style></defs><title>social--instagram</title><path class="2db0d68e-156e-428d-97f0-043ad2333852" d="M20.57 10.29q0 3.07-.07 4.25a6.28 6.28 0 0 1-1.66 4.31 6.28 6.28 0 0 1-4.31 1.66q-1.18.07-4.25.07T6 20.5a6.28 6.28 0 0 1-4.31-1.66 6.28 6.28 0 0 1-1.62-4.31Q0 13.35 0 10.29T.07 6a6.29 6.29 0 0 1 1.66-4.27A6.28 6.28 0 0 1 6 .07Q7.22 0 10.29 0t4.25.07a6.28 6.28 0 0 1 4.31 1.66A6.28 6.28 0 0 1 20.5 6q.07 1.22.07 4.29zm-9.26-8.45H6.56A10.74 10.74 0 0 0 5.18 2a5.45 5.45 0 0 0-1 .25 3.5 3.5 0 0 0-2 2 5.39 5.39 0 0 0-.25 1 10.57 10.57 0 0 0-.13 1.38v7.4A10.57 10.57 0 0 0 2 15.4a5.35 5.35 0 0 0 .25 1 3.51 3.51 0 0 0 2 2 5.37 5.37 0 0 0 1 .25 10.55 10.55 0 0 0 1.38.13h7.45a10.55 10.55 0 0 0 1.38-.13 5.37 5.37 0 0 0 1-.25 3.51 3.51 0 0 0 2-2 5.35 5.35 0 0 0 .25-1 10.64 10.64 0 0 0-.02-1.4v-1.29-1.41-1-1-1.41V6.6a10.64 10.64 0 0 0-.13-1.38 5.39 5.39 0 0 0-.25-1 3.5 3.5 0 0 0-2-2 5.45 5.45 0 0 0-1-.25A10.74 10.74 0 0 0 14 1.88h-1.29zM14 6.55a5.09 5.09 0 0 1 1.54 3.74 5.26 5.26 0 0 1-5.28 5.28A5.08 5.08 0 0 1 6.55 14 5.09 5.09 0 0 1 5 10.29a5.09 5.09 0 0 1 1.55-3.74A5.09 5.09 0 0 1 10.29 5 5.09 5.09 0 0 1 14 6.55zm-1.31 6.16a3.43 3.43 0 0 0 0-4.85 3.43 3.43 0 0 0-4.85 0 3.3 3.3 0 0 0-1 2.42 3.43 3.43 0 0 0 3.43 3.43 3.3 3.3 0 0 0 2.44-1zm3.94-8.79a1.23 1.23 0 0 1 0 1.74 1.23 1.23 0 0 1-2.1-.87 1.23 1.23 0 0 1 2.1-.87z"/></svg>