<svg id="de38d711-a1d5-4dd8-89f5-1fd2751bafee" data-name="Layer 1" xmlns="http://www.w3.org/2000/svg" viewBox="0 0 36.39 36.39"><defs><style>.\33 7a1abd4-9a91-4698-b074-90f66c17e58e{fill:#d6c6b2}</style></defs><title>social--insta</title><path class="37a1abd4-9a91-4698-b074-90f66c17e58e" d="M28.64 14.76v-1.57a13 13 0 0 0-.16-1.68 6.55 6.55 0 0 0-.3-1.17A4.27 4.27 0 0 0 25.74 8a6.55 6.55 0 0 0-1.17-.3 13 13 0 0 0-1.68-.16h-9.08a13 13 0 0 0-1.68.16A6.53 6.53 0 0 0 11 8a4.27 4.27 0 0 0-2.38 2.38 6.56 6.56 0 0 0-.3 1.17 12.87 12.87 0 0 0-.16 1.68v9.08A12.85 12.85 0 0 0 8.28 24a6.54 6.54 0 0 0 .3 1.17A4.28 4.28 0 0 0 11 27.5a6.54 6.54 0 0 0 1.17.3 12.85 12.85 0 0 0 1.68.16h9.08a12.87 12.87 0 0 0 1.68-.16 6.56 6.56 0 0 0 1.17-.3 4.27 4.27 0 0 0 2.38-2.38 6.53 6.53 0 0 0 .3-1.17 13 13 0 0 0 .16-1.68V20.7v-1.72-1.25-1.25q.03-1.13.02-1.72zm-5.73 7.52a6.2 6.2 0 0 1-4.55 1.88 6.41 6.41 0 0 1-6.43-6.43 6.41 6.41 0 0 1 6.43-6.43 6.41 6.41 0 0 1 6.43 6.43 6.2 6.2 0 0 1-1.88 4.55zM26.1 12.1a1.5 1.5 0 1 1 .44-1.1 1.45 1.45 0 0 1-.44 1.1z"/><path class="37a1abd4-9a91-4698-b074-90f66c17e58e" d="M18.35 13.55a4.18 4.18 0 0 0-4.18 4.18 4.18 4.18 0 0 0 4.18 4.18 4.18 4.18 0 0 0 4.18-4.18 4.18 4.18 0 0 0-4.18-4.18z"/><path class="37a1abd4-9a91-4698-b074-90f66c17e58e" d="M34.39 2a6.57 6.57 0 0 0-4.82-2H6.82A6.57 6.57 0 0 0 2 2a6.57 6.57 0 0 0-2 4.82v22.75a6.57 6.57 0 0 0 2 4.82 6.57 6.57 0 0 0 4.82 2h22.75a6.84 6.84 0 0 0 6.82-6.82V6.82a6.58 6.58 0 0 0-2-4.82zM30.8 22.9a7.65 7.65 0 0 1-2 5.25 7.66 7.66 0 0 1-5.25 2q-1.44.08-5.17.08t-5.17-.08a7.66 7.66 0 0 1-5.25-2 7.66 7.66 0 0 1-2-5.25q-.08-1.44-.08-5.17t.08-5.17a7.66 7.66 0 0 1 2-5.25 7.65 7.65 0 0 1 5.25-2q1.44-.08 5.17-.08t5.17.08a7.65 7.65 0 0 1 5.25 2 7.65 7.65 0 0 1 2 5.25q.08 1.44.08 5.17t-.08 5.17z"/></svg>