<svg id="894d7417-108d-4438-bc2e-ae7a6feed2a7" data-name="Layer 1" xmlns="http://www.w3.org/2000/svg" viewBox="0 0 100.74 21.07"><defs><style>.bc4f2617-c665-46cb-a3ac-3ef50bf5aea9{fill:#d2ab82}</style></defs><title>social--instagram</title><path class="bc4f2617-c665-46cb-a3ac-3ef50bf5aea9" d="M22.85 16.58a4.64 4.64 0 0 0 .06 3 .37.37 0 0 0 .61.26 11.14 11.14 0 0 0 3.17-2.87c.19-.26.14-.44-.14-.67-.53-.42-.51-.76 0-.81 1.2-.09 1.61-.92 2-1.83A10 10 0 0 0 29.78 10c0-.25.09-.48.38-.49a.48.48 0 0 1 .51.52c0 .62-.09 1.23-.15 1.84s-.15 1.15-.19 1.73.11.72.67.65 1-.47 1.48 0c-.31.5-.89.38-1.34.54a1.5 1.5 0 0 0-1.21 1.48 24.83 24.83 0 0 0 0 4.29c.09.66.2 1.39.88 1.66a1.68 1.68 0 0 0 1.78-.6 7.29 7.29 0 0 0 2.17-3.08 4.87 4.87 0 0 1 1.38-2.52c.43-.38.93-.82 1.55-.47a1.5 1.5 0 0 1 .92 1.59 5.11 5.11 0 0 0 0 1.62c.06.35.28.47.59.31a9.25 9.25 0 0 0 1.1-.65c2.36-1.63 4.55-3.48 6.79-5.27a31.38 31.38 0 0 0 3.3-2.56 1.77 1.77 0 0 1 1.47-.59c.31 0 .66.11.67.5s-.28.47-.55.5c-1.46.16-2.18 1.21-2.86 2.32a3.71 3.71 0 0 0-.26.52c-.06.14-.11.32 0 .43s.3 0 .41-.1l2-1.82c.4-.36.81-.9 1.39-.65s.36.94.32 1.46-.16 1.31-.21 2 .14.76.64.46a38.75 38.75 0 0 0 4.38-2.86 1.21 1.21 0 0 0 .5-1.09c0-.62.2-.73.8-.6 1.28.28 1.51.59 1.37 1.93a11.39 11.39 0 0 1-.34 2.06 4 4 0 0 0-.17 1c0 .54.23.68.74.42a3.41 3.41 0 0 0 .76-.53 25.48 25.48 0 0 1 5.15-3.56 1.13 1.13 0 0 1 .76-.25 1.84 1.84 0 0 0 1.72-.14c.28-.21.5.19.62.5.31.78.34.79 1 .43a5.92 5.92 0 0 0 1.6-1.33A33.34 33.34 0 0 0 75.13 8a8 8 0 0 1 2.37-2.2c.25-.16.57-.34.87-.14s.28.61.2.95c-.22.9-.46 1.8-.68 2.71-.05.22-.13.49.13.61s.34-.13.47-.27a4.4 4.4 0 0 1 1.09-1c.68-.35 1.11-.13 1.24.62a11.13 11.13 0 0 1-.07 2.2c0 2 .47 2.34 2.24 1.55a2.94 2.94 0 0 0 1-.74 6.38 6.38 0 0 1 2.45-1.73c1-.4 1.68-.21 2.07.82a2.76 2.76 0 0 0 2.86 1.89 36.19 36.19 0 0 0 7.75-.58c.69-.13 1.38-.22 2.07-.33.11 0 .26 0 .29.1s-.13.18-.23.21A45 45 0 0 1 90.11 14 2 2 0 0 1 88 12.32a4.81 4.81 0 0 0-.17-.55c-.32-.71-.68-.88-1.38-.56a4.81 4.81 0 0 0-1.61 1.12 6.59 6.59 0 0 1-2.1 1.67c-1.79.82-2.91.11-2.91-1.85 0-.7 0-1.39.05-2.09 0-.15 0-.33-.13-.41s-.36 0-.5.18a6.36 6.36 0 0 0-1.15 1.74 17.88 17.88 0 0 0-.89 2.27c-.1.33-.06.92-.62.81s-.3-.6-.24-1c0-.19.08-.38.1-.57a40.69 40.69 0 0 1 1-5.36c.09-.35.38-.84 0-1.06s-.66.28-.92.54a28.18 28.18 0 0 0-2.66 3.66 10.26 10.26 0 0 1-2.87 3c-.72.44-1.44 1-2.31.23-.22-.2-.44 0-.59.16s-.43.55-.65.82a3.38 3.38 0 0 1-.91.89c-.33.19-.66.47-1.07.24s-.32-.66-.29-1a1.36 1.36 0 0 0 0-.23c0-.21.11-.49-.18-.61s-.44.07-.63.21-.37.28-.55.43l-1.91 1.7a4.7 4.7 0 0 1-.61.53c-.55.34-1.1.87-1.8.44s-.52-1.15-.45-1.79c.1-.92.26-1.84.37-2.76 0-.21.09-.5-.21-.59s-.37.09-.5.23c-1.47 1.53-3.39 2.44-5.08 3.67a3 3 0 0 0-1.44 2.24 28.94 28.94 0 0 1-1.42 6.11 5.49 5.49 0 0 1-.63 1.37c-.47.7-1.11.68-1.55 0a3 3 0 0 1-.32-1.45 9 9 0 0 1 2.51-6.44 3.49 3.49 0 0 0 1-2.4 21.89 21.89 0 0 1 .22-2.28c0-.18 0-.41-.18-.5s-.36.06-.5.2c-.62.64-1.24 1.28-1.84 1.94a5.5 5.5 0 0 1-1.08.87.58.58 0 0 1-.91-.64c.13-.53.28-1 .41-1.58 0-.14.11-.31 0-.42s-.29 0-.42 0a9.66 9.66 0 0 0-1.48 1.2 55.23 55.23 0 0 1-5.35 4.63q-.37.29-.76.54c-1.16.76-1.26.76-2.15-.31-.25-.3-.44-.29-.63 0-.34.52-.62 1.08-1 1.57-.61.8-.89.85-1.67.23-.44-.35-.64-.07-.84.21a3.79 3.79 0 0 1-2.06 1.41 1.4 1.4 0 0 1-1.88-.65 4.43 4.43 0 0 1-.61-2 12.76 12.76 0 0 1 0-2.79 9.65 9.65 0 0 0 .07-1.16c0-.6-.28-.72-.82-.42a1.93 1.93 0 0 0-.7.76 12.06 12.06 0 0 1-3.61 3.88 1 1 0 0 0-.47 1.1V22a1.87 1.87 0 0 1-2.78 2 .85.85 0 0 1-.49-1.31 3.82 3.82 0 0 1 1.14-1.3c.93-.73.95-.73.59-1.8-.11-.35 0-.92-.48-1s-.59.47-.77.8a17.14 17.14 0 0 1-2.52 3.74 4.58 4.58 0 0 1-2.08 1.42 1.68 1.68 0 0 1-1.8-.47 5.1 5.1 0 0 1-1.25-2.7c-.11-.53-.15-1.07-.22-1.61 0-.2-.07-.42-.27-.49a.51.51 0 0 0-.58.28c-.28.42-.52.86-.77 1.3s-.64 1.15-1 1.71c-.17.27-.42.48-.78.32s-.29-.43-.25-.7a27.11 27.11 0 0 0 0-4.64c0-.58 0-1.35-.51-1.56s-1.1.38-1.56.78a9.5 9.5 0 0 0-2 2.87 10.73 10.73 0 0 1-1.57 2.57c-.44.46-.9.88-1.62.66a1.54 1.54 0 0 1-1-1.42 24.92 24.92 0 0 1-.12-6.37c.18-2.2.63-4.37.68-6.58 0-.33.07-.66.48-.65s.47.37.45.68c0 .66-.13 1.31-.22 2a42.19 42.19 0 0 0-.64 9.6 7.39 7.39 0 0 0 .16 1.26c.14.54.51.65 1 .36a2.6 2.6 0 0 0 .76-.87c.63-1 1.28-2 1.87-3.08a8.86 8.86 0 0 1 3.34-3c.46-.29.76-.15 1 .4a5.61 5.61 0 0 1 .45 2.27v2.09c0 .14.07.36.17.41s.35-.08.46-.25A4.1 4.1 0 0 1 12 18.41c.94-.65 1.52-.44 1.74.67.15.8.22 1.61.36 2.42a4.16 4.16 0 0 0 .27 1c.63 1.5 1.63 1.68 2.81.61a9.39 9.39 0 0 0 2-2.39c.9-1.63 2.12-3.06 2.88-4.77a1.39 1.39 0 0 1 .18-.3.49.49 0 0 1 .61-.2c.27.11.28.34.21.58s-.14.37-.21.55zm27.56 7h.08c.26-1.29.52-2.58.77-3.87 0-.19.06-.44-.13-.53s-.36.1-.47.26a7.47 7.47 0 0 0-1.62 5 3 3 0 0 0 .09.57c0 .19.13.38.37.38s.26-.15.32-.29c.18-.5.39-1.01.59-1.52zm-15-4.58a7.8 7.8 0 0 0-.18 1 .21.21 0 0 0 .38.16 8.33 8.33 0 0 0 1.65-2.87c.06-.23.07-.49-.19-.59s-.44.07-.59.26A6.61 6.61 0 0 0 35.41 19zm-12.83 3.77c0-.25.08-.55-.16-.72s-.43 0-.6.19a3.53 3.53 0 0 0-.43.38c-.16.17-.3.37-.13.61a.53.53 0 0 0 .52.15.94.94 0 0 0 .8-.61zm43.8-8.66c-.09.22-.21.42 0 .56s.34-.07.48-.17a1.65 1.65 0 0 0 .39-.41c.15-.23.57-.48.25-.75s-.62.09-.85.34a2.18 2.18 0 0 0-.26.43zm-37.32.29v-.08a.09.09 0 0 0-.08 0c0 .08 0 .13.07.12s0-.01.02-.04z" transform="translate(-.77 -5.54)"/></svg>